<svg width="347" height="1176" viewBox="0 0 347 1176" fill="none" xmlns="http://www.w3.org/2000/svg">
<path d="M22 1175L207.5 1176V1164H22V1175Z" fill="black"/>
<path d="M92.5 1039L94 1041H79V1011L81 996L83 978L84.5 964L86 951L84.5 932.5V921L83 912L81 908L74.5 899L62.5 886L55.5 879L49 875L45 873H40.5H37L36 875L37 879L38.5 886L40.5 896.5V906L39.5 912L37 914.5H33L29.5 908L26.5 899L23.5 886L20.5 875L18.5 859L16.5 837.5L15 820L13.5 796.5L12 777.5L9.5 760.5L8.5 747.5L7 734.5L5 726L3 717.5L2 709L0.5 705V696.5V687.5V678.5V672L2 664L7 652L15.5 639L24.5 626L35 612L40 604L44 598L46 593L47.5 588.5L49.5 583L51 580L51.5 577L52.5 565.5L53.5 557L54 548L55 537V531L57 527.5L59 521L60 511.5L60.5 499L61.5 492L62 481L62.5 473L63.5 463L64.5 456.5L66.5 448.5L68 442.5L69.5 436L71.5 431L74 427H98L96 434L94 439.5V444V451.5L81 455V453L80.5 450.5L79 449.5H76.5L74.5 450.5V453V457L73.5 465.5L71.5 475.5L70 487.5V505.5V514L72 518.5L73.5 522.5L74.5 526.5L77 528.5L81 532.5L85 538L89 544.5L93.5 554.5L95 559.5V563L94 564.5H92.5L91.5 563H90L89 564.5V567.5L88 581L87 596.5V604V610V614.5L89 618L90.5 620L93.5 622V624.5L92 627L90.5 629H87L84 626L80.5 619L79 613L77 605.5V596.5V587.5V581L76 577.5L74.5 574.5L71 570.5H66.5L64 573L62.5 576V584L58 601.5L48.5 618L35.5 635.5L21 654.5L14.5 663L12 667.5V672V684V699L14.5 707L18 713.5L19.5 716.5L21 721.5L25.5 729L30.5 737.5L34 742.5L36 746V749L34 752L30.5 753.5H28.5L26.5 752L24 749V752L25.5 759.5L28.5 781.5L30.5 799L36 814L42.5 831.5L47 842.5L54 853L71 879L85 896.5L90 904.5L92 908L93 911V920.5L94 925L95.5 929L97 931.5V934L96.5 938L95.5 948L96.5 954.5V965V969.5L94 975L93 983V990V997.5L94 1002.5V1005L93 1007L90 1012L89 1016V1023.5L89.5 1028.5L90 1032L91.5 1036.5L92.5 1039Z" fill="black"/>
<path d="M102.5 825L95 826.5L92 830V834.5L95 836H99.5L103.5 840L108.5 846.5L115 854L116.5 860.5L115 865.5L111.5 869.5L108.5 872L107.5 874.5L108.5 878.5L111.5 880L116.5 878.5L121 874.5L125 868.5L126.5 860.5V854L125 846.5L119 840L112.5 832L108.5 826.5L102.5 825Z" fill="black"/>
<path d="M155.5 598L150.5 595.5H149L147.5 596L147 597V598.5V600.5L147.5 604.5L149 610L153 620L160.5 631L168 639.5L178 647L189.5 652.5L200.5 655.5L203.5 656H208.5L213 655.5L214.5 655L215 654.5L215.5 653.5V652.5L215 651.5L214 650.5L212.5 649.5L210.5 648.5L200.5 644.5L192.5 639.5L183.5 634L176.5 629.5L170.5 621.5L166 610L162 602L155.5 598Z" fill="black"/>
<path d="M148 555V546.5L168 547L165 551L164 554.5V558L165 563L167 569L168.5 572.5L171 579L176.5 590.5L179.5 596.5L183.5 602.5L187.5 607L191 611L196 616L199.5 619L203 622.5L184.5 620L174.5 610.5L168.5 602.5L160 590.5L154.5 579L151 569L148.5 562L148 555Z" fill="black"/>
<path d="M164.5 468.5V463.5L174.5 446L192.5 467L189.5 473.5L187 474.5L185.5 476L185 478V480.5L185.5 482.5L186 485L186.5 487.5V489.5L186 492L185.5 493.5L184.5 495.5L182.5 499L181 502L180 505L179.5 508.5V511L180 516.5L180.5 519.5L181 523L182 526.5L182.5 530L183.5 533L184.5 536L186 539.5L187.5 542L190 547H175L172.5 538.5L171.5 535.5L171 533L170 532L169 531.5L167.5 532.5L167 534.5L167.5 536.5L168 547L148 546.5V532.5V528.5V524L148.5 522L149.5 519.5L151 517L152 514.5L151 513L149 512.5H146H143H138.5L134 511L129 507.5L125 504L120 502L116.5 501.5L111.5 501L107 500.5L102 500L97 499L93.5 497L90.5 495L88 492.5L86 490L84.5 486.5L83.5 480.5L83 474L82.5 467.5L82 461L81 455L94 451.5V458V467.5L94.5 475.5V480L96 484.5L98.5 488L102.5 490L106 490.5H111.5H117L120 491.5L125 493.5L129 495.5L134 496.5H138.5L143 495.5L146 493L153 487L160 480.5L163 477.5L164 474.5L164.5 468.5Z" fill="black"/>
<path d="M171 446H174.5L164.5 463.5L162 460.5L158 458L155 456.5L153 455.5L152 455L150.5 454L148.5 452.5L144.5 449.5L142 447.5L139.5 444.5L137.5 441.5L136 439L133 433.5L131 429.5V424.5L131.5 420L132 415L132.5 409.5L133 404V400.5L134 394.5L134.5 392V389V385L135 382.5L136 380.5L137 379L138.5 378L140 377.5L142 378L143.5 379.5L145 381L145.5 384V388L145 391.5L143.5 394.5L142 398L141.5 403.5V410.5L142 418L143.5 425.5L145 429.5L149 433L154 436.5L158.5 439.5L162.5 442L166.5 444L171 446Z" fill="black"/>
<path d="M215 327.5V313.5H195.5V325L196 330V335L195.5 340L195 342L193 344.5L191 347L188.5 349.5L185.5 352L181.5 355L179 357L176.5 360L174 363L172.5 365.5L170 368.5L168.5 371.5L167 375L165.5 378L164 380.5L162 383.5L161 385L160.5 387V389.5V391L161 392.5L162 394.5L163.5 398L166 402.5L168.5 407L170 410L173 414.5L176.5 419.5L178.5 422L180.5 424.5L182.5 427.5L184 432.5L184.5 437.5V440.5L184 443L182.5 444.5L180.5 445.5L178 446H174.5L192.5 467L195 463L199 459.5L202.5 456L206.5 451L208.5 445L209.5 440.5L209 437L207.5 434L206 432L203 428.5L197.5 422.5L193.5 418.5L189 413L186.5 409.5L185 406L184 401.5V397.5L185 392.5L186 386.5L187 382.5L188 378.5L189 375L191.5 370.5L195 366L198.5 361.5L203 357L205.5 354L208.5 350.5L211 347.5L212.5 345L213.5 342L214 339L215 327.5Z" fill="black"/>
<path d="M197 264.5L195 263.5L179.5 264.5L178.5 272L179 278L181 282.5L183.5 286L186.5 289.5L191.5 292L195.5 290.5L198.5 287.5L201.5 287L204.5 287.5L205.5 288.5L206 290V292L203.5 295.5L201.5 299L198.5 303L196.5 308L195.5 313.5H215V307.5L215.5 301.5L216.5 295.5L218.5 292L223 287L226.5 282.5L231.5 275.5L233 271.5L233.5 267V262.5L232.5 259L230 256L226 253.5L222 252.5H218.5L215.5 254L212.5 256L209 258L206.5 260L204 261.5L201.5 263.5L200 264.5H197Z" fill="black"/>
<path d="M165.5 128L136 73.5L123.5 80L152.5 137L165.5 156L172 167.5L176 174.5L179 180.5L183.5 187.5L186.5 191.5L189 195.5L190 201L187.5 214.5L185.5 224.5L182 237L179.5 248V264.5L195 263.5L193.5 248L195.5 237L199.5 224.5L202 214.5L203 201L202 187.5L200.5 180.5L198.5 177.5L182.5 153L179 145L165.5 128Z" fill="black"/>
<path d="M138.5 28H142V44L137.5 44.5L134.5 45L131 47L129 49L127 53V56.5L129 61.5L136 73.5L123.5 80L122 78L120.5 74.5L119.5 72L117 68L115 65.5L113.5 63L113 61.5V56.5V48V44L113.5 41L114.5 38L117.5 34.5L119.5 32L121.5 29.5L124.5 27L127 25L130 24L132.5 24.5L134.5 26L136.5 27L138.5 28Z" fill="black"/>
<path d="M152.5 15L150.5 13V1H154.5L158 1.5L160.5 3.5L163 5L164.5 7L167 8.5H169.5H173L176.5 9L179 10.5L180.5 13V16L180 19L178.5 22.5L176.5 26L174.5 29L171.5 31.5L168.5 33L165.5 34L160.5 36L157 37.5L153 39.5L149.5 41L145.5 42.5L142 44V28H145.5H150.5H154L159 27L163 25L165.5 23.5L168.5 21.5L169.5 19V16.5L168.5 15L167.5 14.5H165.5L163 15L161 16L158.5 16.5L156.5 17L154 16.5L152.5 15Z" fill="black"/>
<path d="M147 150.5L146.5 154.5L147 158.5L148.5 161L151.5 165L154 169L155.5 172L157 176.5L159.5 181.5L162.5 186.5L164.5 189.5L165.5 192.5L166.5 195.5L168 199V201.5V205.5L170 210L171.5 212H174.5L178 211L181 208L182.5 205L183.5 201.5L183 197.5L181 193.5L177 187L174.5 182L171.5 175.5L167 169L164.5 165L159.5 158.5L157 154L154 150.5L151.5 149H148.5L147 150.5Z" fill="black"/>
<path d="M191.5 552L190 547H175L178 559L181 567L184.5 577L188 585.5L191.5 593.5L195.5 598.5L198.5 603L206 610.5L211 617L212.5 620L211 623H206L184.5 620L190.5 626.5L197 632L204 636L214 641.5L222 645.5L234 647L247.5 648.5L258.5 649.5H268.5L276 650L283 651L289.5 653L294 655L299 658.5L302 664L303.5 669L305 673L308.5 678L312.5 683L316.5 687L321 691L325.5 694L329 695.5L331 698.5L330 701L328 703.5L324.5 707.5L320 711L314.5 714L309.5 716.5L303.5 718L297.5 716.5L291 713L286 707L283 702.5L280 699.5L278.5 697V694L279 691L280 688L282 686L284 685L287 686L289 687L291 689L294 691.5L296.5 694L299.5 696L302 696.5L305 695.5L307 694L308 692.5L308.5 691L308 688.5L305 686L301.5 683L295 678L288.5 676H279.5L273 677.5L268 680L262 682.5L257.5 685L252 686.5L242 687.5L230.5 689H216.5L210.5 688.5L206 688H202.5H196.5L192.5 687.5L189.5 686.5L186.5 685L181 682.5L177 680.5L172.5 678L169 675L165 671.5L162 668L159.5 665L157.5 663L156 661L154.5 659.5L153 659L151.5 659.5L150.5 660.5V661.5L151 663L151.5 664L153 665.5L154.5 667.5L156.5 669.5L158 672.5L158.5 675.5L158 679L157 681.5L155 684.5L153 686H151L148.5 684.5L146.5 683.5L143 683H138L134.5 684L131.5 685.5L130.5 687L131 689L133.5 690.5L137.5 691H142.5L147.5 691.5L151 692.5L153 693.5L156 696.5L160 700.5L162.5 703L164.5 705.5L165 710L164.5 714.5V720H184.5V714.5L187.5 711L190 709L190.5 704.5L193 701L196.5 703H206.5H219.5H230H242H252.5L262 705L268 707.5L271 711L275.5 716.5L281.5 723.5L290 731L296 733.5L302.5 734.5L310.5 733.5L318 729L327 722.5L334 717L340.5 711L344.5 705.5L346.5 700V695L345 689L340.5 683.5L334.5 681L330 680L327.5 679.5L323 676.5L318.5 671.5L317 667L316.5 662.5L316 656.5L313.5 651L309 645.5L305 641.5L299.5 637.5L295 636L287 633L278 632L270.5 631L264 630L258.5 629L253.5 626.5L247.5 623L241.5 620L236.5 617L233 613L227 608L222 603L218 598.5L214 594.5L211 590L208.5 585.5L205 580L202.5 577L201 574L198.5 570L197 567L195.5 563.5L194 558L191.5 552Z" fill="black"/>
<path d="M184.5 727.5V720H164.5L167 727.5V734V745.5V750.5L165.5 757.5L161.5 770.5L156.5 782.5L152.5 792L147.5 806L142.322 816.723L140.5 819L138 819.5L136 818L133 815L128 810.5L116.5 801L104.5 791L97.5 783.5L93 778.5L91 775L90 773.5L88 772L86 772.5L84.5 773.5L84 774.5V775.5V777L85.5 782.5L89.5 789.5L94 797L101.5 807L109 816L116.5 824L126 832.5L131 843.5L133.5 850L135 857L134.5 866.5L133 874L128 892.5L123 907L119 919L115.5 928.5L111.5 935L109.5 939L107.5 947.5L106.5 952L106 960V975V980.5L106.5 986L107.5 991.5L108.5 997.5L109.5 1002.5L111.5 1007H125L127 1011L129.5 1015.5L132.5 1020L134.5 1023L137.5 1025.5L138.5 1030V1034L137.5 1037.5L123 1056.5L127 1059.5L129 1062.5L130.5 1066L131.5 1076V1080.5L129.5 1084.5L128 1086.5L126.5 1093V1096V1101V1104.5L128 1109L133 1111.5L136.5 1114.5V1119.5V1123.5L135.5 1128.5L134 1132.5L131.5 1135.5L128 1139H22V1141.5V1164L37.5 1166L56.5 1169L82.5 1173L125.5 1176H154H207.5V1148.5L206 1145.5L203 1141.5L195 1137.5L183 1131L169.5 1123.5L160.5 1118L157 1113.5L155.5 1107.5L157 1100L160.5 1092.5L161.5 1085V1077L159 1068.5L154 1061L150 1056V1050V1042V1032.5L148 1023L143 1014L137.5 1005L135 1000L133.5 991.5L132.5 986L130.5 980.5L129.5 975V960V952L130.5 947L131.5 942.5L134 936.5L138 929L142 919L146 907L150.5 897L153.5 888.5L156 884L157 875.5L157.5 869L159 863L159.5 858.5V851V847L158.5 843.5L155.5 840.5L153.5 838.5L152.5 837L152 835L153 832.5L154.5 829L158.5 820.5L165.5 805L171.5 792L176 781L179.5 770.5L182 757.5L183 750.5L184 745.5L184.5 734V727.5Z" fill="black"/>
<path d="M125 1008L126 1009L125 1007H111.5L112 1009.5L112.5 1011L113 1013L114 1016L116 1021L118 1025L120 1029L122 1033L123 1036V1038L122 1040L121 1041H95.5H79L77 1044L73 1048L70 1052L68 1055L65 1059L62 1065L61 1074V1079.5V1085L61.5 1089L62 1092L63 1097L64 1101L67 1105L69 1107L70 1109V1110.5L69 1111.5L66 1112.5L62.5 1114L59 1115.5L52.5 1118L46.5 1120.5L42 1123L37 1125.5L31 1128.5L26 1131.5L23.5 1133L22 1134.5V1136V1139H45V1133.5L46 1131.5L49 1130L53.5 1129L57.5 1128.5L64 1127L68.5 1126L72.5 1124.5L75 1123.5H76.5L78 1124L81.5 1125.5L86 1126H91L96 1125L99 1123L102.5 1120.5L105.5 1117L108 1113L110 1110L111 1107.5V1096L110.5 1091L109.5 1087.5L108 1084L107 1082L105.5 1080L104.5 1078.5L103 1077L101.5 1076L100 1075L98.5 1074L97 1073L95 1072L93 1071.5L90.5 1071H86L83.5 1072.5L81.5 1074.5L80 1076.5L78.5 1078.5L78 1080L77.5 1081.5L77 1083L76.5 1085.5L76 1087V1089L77 1091L78 1092L79.5 1093L80.5 1094L81 1094.5V1095L80.5 1095.5L80 1096.5V1097.5L80.5 1099L81.5 1102L82.5 1104.5L84.5 1107L85.5 1108L86 1109V1110L85 1111L84 1111.5H83L82 1110.5L81.5 1110L80 1108.5L79 1107.5L77 1106L75.5 1104.5L74.5 1103.5L74 1102L74.5 1101L75 1100V1099L74.5 1098L73 1096L71.5 1094.5L70.5 1092.5L70 1089L70.5 1084.5L72 1077.5L73.5 1071.5L75.5 1063.5L79 1058.5L82 1054L86.5 1050.5L91 1047.5L94.5 1047L99.5 1047.5L104 1048.5L108.5 1049.5L113.5 1050.5L117.5 1051.5L120 1053L123 1056.5L137 1042L139.5 1036.5L138.5 1033L138 1034L137 1035L136 1035.5L135 1035L134 1033.5L133 1031.5L131.5 1029L129 1026L126 1022.5L123.5 1018.5L122 1014.5L121.5 1011.5L122 1009.5L123 1008L124 1007.5L125 1008Z" fill="black"/>
<path d="M100 418L98 427H74L76.5 420.5L79.5 414L83 408.5L84.5 405L85.5 400V396L83.5 387L83 377.5L82 363.5V351L82.5 339L85 329L87 320.5L88.5 315L91.5 309.5L96 303.5L100 296.5L102.5 290.5L105 286L106 284L106.5 279.5L107 274L109.5 269.5L115 263.5L123 255L127 247.5L129.5 240.5L130 232.5L131 216.5V205.5L130 197.5L128.5 188.5L126 174.5L123.5 158L120.5 147.5L117.5 136.5L114 127.5L112 122L111 115L109.5 109.5L109 106L107.5 103L105 98.5L99.5 90L96 76.5L92.5 65.5L91.5 59V49.5V39L92.5 30L96 21L100 14.5L104 9L107.5 4.5L110.5 2L115 0.5H120L126.5 1L132 1.5L138 2H143.5L147 1.5L150.5 1V13L150 12L148 10H145L143 11L140 13L136 14.5H133L129 14L127 13L126 12L125 10.5L123.5 9.5L121 9H118.5L116.5 9.5L114 11L112.5 12L110.5 14L109 16L108.5 19L107 24.5L105 29L103 40.5V50.5V58L104 64L107.5 75L110.5 84.5L115 94L120.5 104.5L124 112.5L127.5 120L132.5 134L136.5 146L139.5 158L142 169.5L144 176.5L145.5 190V198.5L146 205L145.5 215.5L143.5 225V231L142 235.5L141 239.5L140.5 245L139 249V252.5L136.5 254L135 257.5V263L132.5 265L130 268.5L127 273L125 276.5L122.5 280L122 284V287L123 290L124 292H127L128.5 290.5L130 287L132 283.5L134 281L136.5 279H139L142 279.5L144 281.5L145 284V287L144 290L142 293.5L141.5 298.5V301.5V304.5L140.5 307L139 308.5L136.5 309L133.5 309.5H126.5H122L118 308.5L116.5 307L114 304.5L112.5 302.5L111 301.5H109.5L108.5 302.5L107 304.5L105.5 308.5L103 314.5L100.5 319.5L97 325L94 332L93 341V346.5V352V360.5L94 365.5L95 369.5L96 372.5V375.5V380.5V385.5V389L96.5 391.5L98.5 392.5L100.5 391.5L101.5 389.5L103.5 385.5L104.5 380L107 375L111 369.5L115 365.5L118.5 362L122 359L125.5 356.5L129 353.5L130.5 352L132 351H133.5L134.5 352L135.5 354L136 356.5V359V361.5L135.5 364L134.5 366L131.5 368.5L127 371.5L123 375L118 380.5L114.5 385L111 390L108.5 394L107 398.5L105 403L103 408L102 412.5L100 418Z" fill="black"/>
</svg>
