<svg width="375" height="812" viewBox="0 0 375 812" fill="none" xmlns="http://www.w3.org/2000/svg">
<g clip-path="url(#clip0_2_2)">
<rect width="375" height="812" fill="white"/>
<path d="M25.4357 588H22.0352L26.4521 574.909H30.6644L35.0813 588H31.6808L28.6062 578.207H28.5039L25.4357 588ZM24.9819 582.848H32.0898V585.251H24.9819V582.848ZM40.4586 588.185C39.4231 588.185 38.5346 587.972 37.7931 587.546C37.0559 587.12 36.4892 586.528 36.0929 585.769C35.6966 585.006 35.4984 584.124 35.4984 583.123C35.4984 582.117 35.6966 581.235 36.0929 580.477C36.4934 579.714 37.0623 579.119 37.7995 578.693C38.541 578.267 39.4252 578.054 40.4522 578.054C41.3599 578.054 42.1504 578.218 42.8237 578.546C43.5012 578.874 44.0297 579.339 44.4089 579.94C44.7924 580.536 44.9949 581.237 45.0162 582.043H42.095C42.0353 581.54 41.8649 581.146 41.5836 580.86C41.3066 580.575 40.9444 580.432 40.497 580.432C40.1348 580.432 39.8173 580.534 39.5446 580.739C39.2718 580.939 39.0588 581.237 38.9054 581.634C38.7562 582.026 38.6816 582.511 38.6816 583.091C38.6816 583.67 38.7562 584.161 38.9054 584.561C39.0588 584.957 39.2718 585.258 39.5446 585.462C39.8173 585.663 40.1348 585.763 40.497 585.763C40.7868 585.763 41.0424 585.701 41.264 585.577C41.4899 585.454 41.6752 585.273 41.8201 585.034C41.965 584.791 42.0566 584.497 42.095 584.152H45.0162C44.9863 584.962 44.7839 585.669 44.4089 586.274C44.0382 586.879 43.5162 587.35 42.8429 587.687C42.1738 588.019 41.3791 588.185 40.4586 588.185ZM52.1577 578.182V580.483H45.9638V578.182H52.1577ZM47.2614 575.83H50.3871V584.913C50.3871 585.104 50.4169 585.26 50.4766 585.379C50.5405 585.494 50.6321 585.577 50.7514 585.629C50.8707 585.675 51.0135 585.699 51.1797 585.699C51.299 585.699 51.4247 585.688 51.5568 585.667C51.6932 585.641 51.7955 585.62 51.8636 585.603L52.3366 587.859C52.1875 587.902 51.9766 587.955 51.7038 588.019C51.4354 588.083 51.1136 588.124 50.7386 588.141C50.0057 588.175 49.3771 588.089 48.853 587.885C48.3331 587.676 47.9347 587.352 47.6577 586.913C47.3849 586.474 47.2528 585.923 47.2614 585.258V575.83ZM53.7525 588V578.182H56.8782V588H53.7525ZM55.3185 577.038C54.8796 577.038 54.5025 576.893 54.1871 576.603C53.8718 576.309 53.7141 575.955 53.7141 575.542C53.7141 575.133 53.8718 574.783 54.1871 574.494C54.5025 574.2 54.8796 574.053 55.3185 574.053C55.7617 574.053 56.1388 574.2 56.4499 574.494C56.7653 574.783 56.9229 575.133 56.9229 575.542C56.9229 575.955 56.7653 576.309 56.4499 576.603C56.1388 576.893 55.7617 577.038 55.3185 577.038ZM68.3919 578.182L65.0233 588H61.4437L58.0815 578.182H61.3734L63.1824 584.945H63.2846L65.1 578.182H68.3919ZM73.8635 588.185C72.8365 588.185 71.9501 587.983 71.2044 587.578C70.4629 587.169 69.8919 586.587 69.4913 585.833C69.095 585.075 68.8968 584.173 68.8968 583.129C68.8968 582.115 69.0971 581.229 69.4977 580.47C69.8983 579.707 70.4629 579.115 71.1916 578.693C71.9203 578.267 72.7789 578.054 73.7676 578.054C74.4664 578.054 75.1056 578.163 75.6852 578.38C76.2647 578.597 76.7654 578.919 77.1873 579.345C77.6092 579.771 77.9373 580.298 78.1717 580.924C78.4061 581.546 78.5233 582.26 78.5233 583.065V583.845H69.9899V582.03H75.6149C75.6106 581.697 75.5318 581.401 75.3784 581.141C75.225 580.881 75.014 580.679 74.7456 580.534C74.4814 580.385 74.1767 580.31 73.8315 580.31C73.4821 580.31 73.1689 580.389 72.8919 580.547C72.6149 580.7 72.3954 580.911 72.2335 581.18C72.0716 581.444 71.9863 581.744 71.9778 582.081V583.928C71.9778 584.329 72.0566 584.68 72.2143 584.983C72.372 585.281 72.5957 585.513 72.8855 585.68C73.1752 585.846 73.5204 585.929 73.921 585.929C74.198 585.929 74.4494 585.891 74.6752 585.814C74.9011 585.737 75.095 585.624 75.2569 585.475C75.4189 585.326 75.5403 585.143 75.6213 584.925L78.4913 585.009C78.372 585.652 78.1099 586.212 77.7051 586.69C77.3045 587.163 76.7782 587.531 76.1262 587.795C75.4743 588.055 74.72 588.185 73.8635 588.185ZM95.8697 579.652H92.6737C92.631 579.324 92.5437 579.028 92.4116 578.763C92.2795 578.499 92.1048 578.273 91.8874 578.086C91.6701 577.898 91.4123 577.756 91.114 577.658C90.82 577.555 90.494 577.504 90.136 577.504C89.5011 577.504 88.9535 577.66 88.4933 577.971C88.0373 578.282 87.6857 578.732 87.4386 579.32C87.1957 579.908 87.0742 580.619 87.0742 581.455C87.0742 582.324 87.1978 583.053 87.445 583.641C87.6964 584.224 88.0479 584.665 88.4996 584.964C88.9556 585.258 89.4947 585.405 90.1168 585.405C90.4663 585.405 90.7837 585.36 91.0692 585.271C91.359 585.181 91.6126 585.051 91.8299 584.881C92.0515 584.706 92.2326 584.495 92.3732 584.248C92.5181 583.996 92.6183 583.713 92.6737 583.398L95.8697 583.417C95.8143 583.996 95.646 584.567 95.3647 585.13C95.0877 585.692 94.7063 586.206 94.2205 586.67C93.7347 587.131 93.1424 587.497 92.4435 587.77C91.7489 588.043 90.9521 588.179 90.0529 588.179C88.8683 588.179 87.8072 587.919 86.8697 587.399C85.9364 586.875 85.1992 586.112 84.658 585.111C84.1168 584.109 83.8462 582.891 83.8462 581.455C83.8462 580.014 84.1211 578.793 84.6708 577.792C85.2205 576.79 85.9641 576.03 86.9016 575.51C87.8391 574.99 88.8896 574.73 90.0529 574.73C90.8455 574.73 91.5785 574.841 92.2518 575.062C92.9251 575.28 93.5174 575.599 94.0288 576.021C94.5401 576.439 94.9556 576.952 95.2752 577.562C95.5948 578.171 95.793 578.868 95.8697 579.652ZM100.448 588.166C99.8216 588.166 99.2654 588.062 98.7797 587.853C98.2981 587.64 97.9167 587.32 97.6355 586.894C97.3585 586.464 97.22 585.925 97.22 585.277C97.22 584.732 97.3159 584.271 97.5076 583.896C97.6994 583.521 97.9636 583.217 98.3002 582.982C98.6369 582.748 99.0247 582.571 99.4636 582.452C99.9025 582.328 100.371 582.245 100.87 582.202C101.428 582.151 101.878 582.098 102.219 582.043C102.559 581.983 102.807 581.9 102.96 581.793C103.118 581.683 103.197 581.527 103.197 581.327V581.295C103.197 580.967 103.084 580.713 102.858 580.534C102.632 580.355 102.327 580.266 101.944 580.266C101.53 580.266 101.198 580.355 100.947 580.534C100.695 580.713 100.535 580.96 100.467 581.276L97.5843 581.173C97.6696 580.577 97.889 580.044 98.2427 579.575C98.6007 579.102 99.0907 578.732 99.7129 578.463C100.339 578.19 101.091 578.054 101.969 578.054C102.596 578.054 103.173 578.129 103.702 578.278C104.23 578.423 104.69 578.636 105.082 578.917C105.474 579.194 105.777 579.535 105.99 579.94C106.207 580.344 106.316 580.807 106.316 581.327V588H103.376V586.632H103.299C103.124 586.964 102.9 587.246 102.628 587.476C102.359 587.706 102.042 587.879 101.675 587.994C101.313 588.109 100.904 588.166 100.448 588.166ZM101.413 586.121C101.75 586.121 102.052 586.053 102.321 585.916C102.594 585.78 102.811 585.592 102.973 585.354C103.135 585.111 103.216 584.83 103.216 584.51V583.577C103.126 583.624 103.018 583.666 102.89 583.705C102.766 583.743 102.63 583.779 102.481 583.813C102.331 583.847 102.178 583.877 102.02 583.903C101.863 583.928 101.711 583.952 101.567 583.973C101.273 584.02 101.021 584.092 100.812 584.19C100.608 584.288 100.45 584.416 100.339 584.574C100.233 584.727 100.18 584.911 100.18 585.124C100.18 585.447 100.295 585.695 100.525 585.865C100.759 586.036 101.055 586.121 101.413 586.121ZM111.353 574.909V588H108.227V574.909H111.353ZM117.925 588.185C116.894 588.185 116.008 587.974 115.266 587.553C114.529 587.126 113.96 586.534 113.56 585.776C113.163 585.013 112.965 584.129 112.965 583.123C112.965 582.113 113.163 581.229 113.56 580.47C113.96 579.707 114.529 579.115 115.266 578.693C116.008 578.267 116.894 578.054 117.925 578.054C118.957 578.054 119.841 578.267 120.578 578.693C121.32 579.115 121.888 579.707 122.285 580.47C122.685 581.229 122.886 582.113 122.886 583.123C122.886 584.129 122.685 585.013 122.285 585.776C121.888 586.534 121.32 587.126 120.578 587.553C119.841 587.974 118.957 588.185 117.925 588.185ZM117.945 585.827C118.32 585.827 118.637 585.712 118.897 585.482C119.157 585.251 119.355 584.932 119.491 584.523C119.632 584.114 119.702 583.641 119.702 583.104C119.702 582.558 119.632 582.081 119.491 581.672C119.355 581.263 119.157 580.943 118.897 580.713C118.637 580.483 118.32 580.368 117.945 580.368C117.557 580.368 117.229 580.483 116.96 580.713C116.696 580.943 116.494 581.263 116.353 581.672C116.217 582.081 116.148 582.558 116.148 583.104C116.148 583.641 116.217 584.114 116.353 584.523C116.494 584.932 116.696 585.251 116.96 585.482C117.229 585.712 117.557 585.827 117.945 585.827ZM124.487 588V578.182H127.523V579.972H127.625C127.804 579.324 128.096 578.842 128.501 578.527C128.906 578.207 129.377 578.048 129.914 578.048C130.059 578.048 130.208 578.058 130.361 578.08C130.515 578.097 130.657 578.124 130.789 578.163V580.879C130.64 580.828 130.444 580.788 130.201 580.758C129.963 580.728 129.75 580.713 129.562 580.713C129.191 580.713 128.857 580.796 128.559 580.962C128.265 581.124 128.032 581.352 127.862 581.646C127.696 581.936 127.613 582.277 127.613 582.669V588H124.487ZM132.063 588V578.182H135.189V588H132.063ZM133.629 577.038C133.19 577.038 132.813 576.893 132.498 576.603C132.182 576.309 132.025 575.955 132.025 575.542C132.025 575.133 132.182 574.783 132.498 574.494C132.813 574.2 133.19 574.053 133.629 574.053C134.072 574.053 134.449 574.2 134.76 574.494C135.076 574.783 135.233 575.133 135.233 575.542C135.233 575.955 135.076 576.309 134.76 576.603C134.449 576.893 134.072 577.038 133.629 577.038ZM141.768 588.185C140.741 588.185 139.854 587.983 139.109 587.578C138.367 587.169 137.796 586.587 137.396 585.833C136.999 585.075 136.801 584.173 136.801 583.129C136.801 582.115 137.001 581.229 137.402 580.47C137.803 579.707 138.367 579.115 139.096 578.693C139.825 578.267 140.683 578.054 141.672 578.054C142.371 578.054 143.01 578.163 143.589 578.38C144.169 578.597 144.67 578.919 145.092 579.345C145.513 579.771 145.842 580.298 146.076 580.924C146.31 581.546 146.428 582.26 146.428 583.065V583.845H137.894V582.03H143.519C143.515 581.697 143.436 581.401 143.283 581.141C143.129 580.881 142.918 580.679 142.65 580.534C142.386 580.385 142.081 580.31 141.736 580.31C141.386 580.31 141.073 580.389 140.796 580.547C140.519 580.7 140.3 580.911 140.138 581.18C139.976 581.444 139.891 581.744 139.882 582.081V583.928C139.882 584.329 139.961 584.68 140.119 584.983C140.276 585.281 140.5 585.513 140.79 585.68C141.08 585.846 141.425 585.929 141.825 585.929C142.102 585.929 142.354 585.891 142.58 585.814C142.805 585.737 142.999 585.624 143.161 585.475C143.323 585.326 143.445 585.143 143.526 584.925L146.396 585.009C146.276 585.652 146.014 586.212 145.609 586.69C145.209 587.163 144.683 587.531 144.031 587.795C143.379 588.055 142.624 588.185 141.768 588.185ZM156.596 581.18L153.726 581.256C153.696 581.052 153.615 580.871 153.483 580.713C153.351 580.551 153.178 580.425 152.965 580.336C152.756 580.242 152.513 580.195 152.236 580.195C151.874 580.195 151.565 580.268 151.309 580.413C151.058 580.558 150.934 580.754 150.939 581.001C150.934 581.192 151.011 581.359 151.169 581.499C151.331 581.64 151.618 581.753 152.032 581.838L153.924 582.196C154.904 582.384 155.633 582.695 156.11 583.129C156.591 583.564 156.834 584.139 156.839 584.855C156.834 585.528 156.634 586.114 156.238 586.613C155.846 587.112 155.309 587.499 154.627 587.776C153.945 588.049 153.165 588.185 152.287 588.185C150.885 588.185 149.78 587.898 148.97 587.322C148.165 586.743 147.704 585.967 147.589 584.996L150.677 584.919C150.745 585.277 150.922 585.55 151.207 585.737C151.493 585.925 151.857 586.018 152.3 586.018C152.701 586.018 153.027 585.944 153.278 585.795C153.53 585.646 153.657 585.447 153.662 585.2C153.657 584.979 153.559 584.802 153.368 584.67C153.176 584.533 152.876 584.427 152.466 584.35L150.753 584.024C149.769 583.845 149.036 583.515 148.555 583.033C148.073 582.548 147.834 581.93 147.839 581.18C147.834 580.523 148.009 579.963 148.363 579.499C148.716 579.03 149.219 578.672 149.871 578.425C150.523 578.178 151.292 578.054 152.179 578.054C153.508 578.054 154.557 578.333 155.324 578.891C156.091 579.445 156.515 580.208 156.596 581.18Z" fill="black"/>
<path d="M268.798 587L273.491 577.705V577.631H268.002V575.364H276.4V577.648L271.69 587H268.798ZM284.592 587.125C283.948 587.125 283.362 586.958 282.836 586.625C282.309 586.292 281.889 585.792 281.575 585.125C281.26 584.458 281.103 583.631 281.103 582.642C281.103 581.616 281.266 580.771 281.592 580.108C281.917 579.445 282.344 578.955 282.87 578.636C283.4 578.318 283.97 578.159 284.58 578.159C285.039 578.159 285.431 578.239 285.756 578.398C286.082 578.553 286.351 578.754 286.563 579C286.775 579.246 286.936 579.502 287.046 579.767H287.103V575.364H289.881V587H287.131V585.585H287.046C286.929 585.854 286.762 586.106 286.546 586.341C286.33 586.576 286.059 586.765 285.734 586.909C285.412 587.053 285.031 587.125 284.592 587.125ZM285.558 584.96C285.895 584.96 286.183 584.866 286.421 584.676C286.66 584.483 286.844 584.212 286.972 583.864C287.101 583.515 287.165 583.106 287.165 582.636C287.165 582.159 287.101 581.748 286.972 581.403C286.847 581.059 286.664 580.794 286.421 580.608C286.183 580.422 285.895 580.33 285.558 580.33C285.213 580.33 284.921 580.424 284.683 580.614C284.444 580.803 284.262 581.07 284.137 581.415C284.016 581.759 283.955 582.167 283.955 582.636C283.955 583.106 284.018 583.515 284.143 583.864C284.268 584.212 284.448 584.483 284.683 584.676C284.921 584.866 285.213 584.96 285.558 584.96ZM294.099 587.148C293.542 587.148 293.048 587.055 292.616 586.869C292.188 586.68 291.849 586.396 291.599 586.017C291.353 585.634 291.229 585.155 291.229 584.58C291.229 584.095 291.315 583.686 291.485 583.352C291.656 583.019 291.89 582.748 292.19 582.54C292.489 582.331 292.834 582.174 293.224 582.068C293.614 581.958 294.031 581.884 294.474 581.847C294.97 581.801 295.37 581.754 295.673 581.705C295.976 581.652 296.195 581.578 296.332 581.483C296.472 581.384 296.542 581.246 296.542 581.068V581.04C296.542 580.748 296.442 580.523 296.241 580.364C296.04 580.205 295.769 580.125 295.428 580.125C295.061 580.125 294.765 580.205 294.542 580.364C294.318 580.523 294.176 580.742 294.116 581.023L291.553 580.932C291.629 580.402 291.824 579.928 292.138 579.511C292.457 579.091 292.892 578.761 293.445 578.523C294.002 578.28 294.671 578.159 295.451 578.159C296.008 578.159 296.521 578.225 296.991 578.358C297.46 578.487 297.87 578.676 298.218 578.926C298.567 579.172 298.835 579.475 299.025 579.835C299.218 580.195 299.315 580.606 299.315 581.068V587H296.701V585.784H296.633C296.478 586.08 296.279 586.33 296.036 586.534C295.798 586.739 295.515 586.892 295.19 586.994C294.868 587.097 294.504 587.148 294.099 587.148ZM294.957 585.33C295.256 585.33 295.525 585.269 295.763 585.148C296.006 585.027 296.199 584.86 296.343 584.648C296.487 584.432 296.559 584.182 296.559 583.898V583.068C296.479 583.11 296.383 583.148 296.269 583.182C296.159 583.216 296.038 583.248 295.906 583.278C295.773 583.309 295.637 583.335 295.496 583.358C295.356 583.381 295.222 583.402 295.093 583.42C294.832 583.462 294.608 583.527 294.423 583.614C294.241 583.701 294.101 583.814 294.002 583.955C293.907 584.091 293.86 584.254 293.86 584.443C293.86 584.731 293.962 584.951 294.167 585.102C294.375 585.254 294.638 585.33 294.957 585.33ZM302.4 590.273C302.067 590.273 301.752 590.246 301.457 590.193C301.161 590.144 300.907 590.078 300.695 589.994L301.309 587.977C301.582 588.068 301.828 588.121 302.048 588.136C302.271 588.152 302.462 588.116 302.621 588.028C302.784 587.945 302.909 587.795 302.996 587.58L303.104 587.318L300.002 578.273H302.911L304.519 584.5H304.61L306.241 578.273H309.167L305.877 587.835C305.718 588.313 305.493 588.733 305.201 589.097C304.913 589.464 304.54 589.752 304.082 589.96C303.627 590.169 303.067 590.273 302.4 590.273ZM317.852 580.938L315.3 581.006C315.274 580.824 315.202 580.663 315.085 580.523C314.967 580.379 314.814 580.267 314.624 580.188C314.439 580.104 314.223 580.062 313.977 580.062C313.655 580.062 313.38 580.127 313.153 580.256C312.929 580.384 312.819 580.559 312.823 580.778C312.819 580.949 312.888 581.097 313.028 581.222C313.172 581.347 313.427 581.447 313.795 581.523L315.477 581.841C316.348 582.008 316.996 582.284 317.42 582.67C317.848 583.057 318.064 583.568 318.067 584.205C318.064 584.803 317.886 585.324 317.533 585.767C317.185 586.21 316.708 586.555 316.102 586.801C315.496 587.044 314.802 587.165 314.022 587.165C312.776 587.165 311.793 586.909 311.073 586.398C310.357 585.883 309.948 585.193 309.846 584.33L312.59 584.261C312.651 584.58 312.808 584.822 313.062 584.989C313.316 585.155 313.639 585.239 314.033 585.239C314.389 585.239 314.679 585.172 314.903 585.04C315.126 584.907 315.24 584.731 315.244 584.511C315.24 584.314 315.153 584.157 314.982 584.04C314.812 583.919 314.545 583.824 314.181 583.756L312.658 583.466C311.783 583.307 311.132 583.013 310.704 582.585C310.276 582.153 310.064 581.604 310.067 580.938C310.064 580.354 310.219 579.856 310.533 579.443C310.848 579.027 311.295 578.708 311.874 578.489C312.454 578.269 313.138 578.159 313.925 578.159C315.107 578.159 316.039 578.407 316.721 578.903C317.403 579.396 317.78 580.074 317.852 580.938Z" fill="black"/>
<path d="M41.993 696V693.977L46.2373 690.261C46.5555 689.973 46.8263 689.71 47.0498 689.472C47.2733 689.229 47.4437 688.987 47.5611 688.744C47.6786 688.498 47.7373 688.231 47.7373 687.943C47.7373 687.621 47.6672 687.347 47.527 687.119C47.3869 686.888 47.1937 686.71 46.9475 686.585C46.7013 686.46 46.4191 686.398 46.1009 686.398C45.7789 686.398 45.4967 686.464 45.2543 686.597C45.0119 686.725 44.8225 686.913 44.6861 687.159C44.5536 687.405 44.4873 687.705 44.4873 688.057H41.8225C41.8225 687.265 42.0005 686.581 42.3566 686.006C42.7126 685.43 43.2126 684.987 43.8566 684.676C44.5043 684.362 45.2562 684.205 46.1123 684.205C46.9948 684.205 47.7619 684.352 48.4134 684.648C49.0649 684.943 49.5687 685.356 49.9248 685.886C50.2846 686.413 50.4645 687.025 50.4645 687.722C50.4645 688.165 50.3755 688.604 50.1975 689.04C50.0195 689.475 49.6994 689.956 49.2373 690.483C48.7789 691.009 48.1274 691.64 47.2827 692.375L45.8907 693.659V693.733H50.6066V696H41.993ZM52.444 694.068V691.875L57.2111 684.364H59.1599V687.341H58.0293L55.2395 691.761V691.852H62.1429V694.068H52.444ZM58.0634 696V693.398L58.1202 692.438V684.364H60.7509V696H58.0634ZM68.9221 696.159C68.2857 696.159 67.6759 696.057 67.0926 695.852C66.5092 695.644 65.9903 695.314 65.5357 694.864C65.0812 694.409 64.7232 693.814 64.4619 693.08C64.2005 692.341 64.0717 691.441 64.0755 690.381C64.0793 689.422 64.1967 688.562 64.4278 687.801C64.6588 687.036 64.9884 686.386 65.4164 685.852C65.8482 685.318 66.3634 684.911 66.9619 684.631C67.5641 684.347 68.2365 684.205 68.9789 684.205C69.7933 684.205 70.5111 684.364 71.1323 684.682C71.7573 684.996 72.2573 685.42 72.6323 685.955C73.0073 686.485 73.2289 687.076 73.2971 687.727H70.5301C70.4467 687.36 70.263 687.081 69.9789 686.892C69.6986 686.699 69.3653 686.602 68.9789 686.602C68.2668 686.602 67.7346 686.911 67.3823 687.528C67.0338 688.146 66.8558 688.972 66.8482 690.006H66.9221C67.0812 689.657 67.3104 689.358 67.6096 689.108C67.9088 688.858 68.2516 688.667 68.638 688.534C69.0282 688.398 69.441 688.33 69.8766 688.33C70.5736 688.33 71.1891 688.491 71.7232 688.812C72.2573 689.134 72.6759 689.576 72.9789 690.136C73.282 690.693 73.4316 691.331 73.4278 692.051C73.4316 692.862 73.2422 693.578 72.8596 694.199C72.477 694.816 71.9467 695.297 71.2687 695.642C70.5945 695.987 69.8123 696.159 68.9221 696.159ZM68.9051 694C69.2498 694 69.5585 693.919 69.8312 693.756C70.1039 693.593 70.3179 693.371 70.4732 693.091C70.6285 692.811 70.7043 692.494 70.7005 692.142C70.7043 691.786 70.6285 691.47 70.4732 691.193C70.3217 690.917 70.1096 690.697 69.8369 690.534C69.5679 690.371 69.2592 690.29 68.9107 690.29C68.657 690.29 68.4202 690.337 68.2005 690.432C67.9808 690.527 67.7895 690.659 67.6266 690.83C67.4676 690.996 67.3426 691.193 67.2516 691.42C67.1607 691.644 67.1134 691.886 67.1096 692.148C67.1134 692.492 67.1929 692.805 67.3482 693.085C67.5035 693.366 67.7157 693.589 67.9846 693.756C68.2535 693.919 68.5604 694 68.9051 694ZM79.7632 696V684.364H82.5757V689.284H82.7291L86.5757 684.364H89.8882L85.7632 689.557L89.962 696H86.5984L83.7007 691.426L82.5757 692.847V696H79.7632ZM95.0708 696.165C94.1503 696.165 93.3606 695.975 92.7015 695.597C92.0462 695.218 91.5424 694.691 91.1901 694.017C90.8378 693.339 90.6617 692.555 90.6617 691.665C90.6617 690.771 90.8378 689.987 91.1901 689.312C91.5462 688.634 92.0519 688.106 92.7072 687.727C93.3662 687.348 94.1522 687.159 95.0651 687.159C95.8719 687.159 96.5746 687.305 97.1731 687.597C97.7753 687.888 98.245 688.301 98.5822 688.835C98.9231 689.366 99.103 689.989 99.1219 690.705H96.5253C96.4723 690.258 96.3208 689.907 96.0708 689.653C95.8246 689.4 95.5026 689.273 95.1049 689.273C94.7829 689.273 94.5007 689.364 94.2583 689.545C94.0159 689.723 93.8265 689.989 93.6901 690.341C93.5575 690.689 93.4912 691.121 93.4912 691.636C93.4912 692.152 93.5575 692.587 93.6901 692.943C93.8265 693.295 94.0159 693.562 94.2583 693.744C94.5007 693.922 94.7829 694.011 95.1049 694.011C95.3625 694.011 95.5897 693.956 95.7867 693.847C95.9875 693.737 96.1522 693.576 96.281 693.364C96.4098 693.148 96.4912 692.886 96.5253 692.58H99.1219C99.0954 693.299 98.9155 693.928 98.5822 694.466C98.2526 695.004 97.7886 695.422 97.1901 695.722C96.5954 696.017 95.889 696.165 95.0708 696.165ZM103.644 696.148C103.087 696.148 102.593 696.055 102.161 695.869C101.733 695.68 101.394 695.396 101.144 695.017C100.898 694.634 100.775 694.155 100.775 693.58C100.775 693.095 100.86 692.686 101.03 692.352C101.201 692.019 101.436 691.748 101.735 691.54C102.034 691.331 102.379 691.174 102.769 691.068C103.159 690.958 103.576 690.884 104.019 690.847C104.515 690.801 104.915 690.754 105.218 690.705C105.521 690.652 105.741 690.578 105.877 690.483C106.017 690.384 106.087 690.246 106.087 690.068V690.04C106.087 689.748 105.987 689.523 105.786 689.364C105.585 689.205 105.314 689.125 104.974 689.125C104.606 689.125 104.311 689.205 104.087 689.364C103.864 689.523 103.722 689.742 103.661 690.023L101.099 689.932C101.174 689.402 101.369 688.928 101.684 688.511C102.002 688.091 102.438 687.761 102.991 687.523C103.547 687.28 104.216 687.159 104.996 687.159C105.553 687.159 106.066 687.225 106.536 687.358C107.006 687.487 107.415 687.676 107.763 687.926C108.112 688.172 108.381 688.475 108.57 688.835C108.763 689.195 108.86 689.606 108.86 690.068V696H106.246V694.784H106.178C106.023 695.08 105.824 695.33 105.582 695.534C105.343 695.739 105.061 695.892 104.735 695.994C104.413 696.097 104.049 696.148 103.644 696.148ZM104.502 694.33C104.801 694.33 105.07 694.269 105.309 694.148C105.551 694.027 105.744 693.86 105.888 693.648C106.032 693.432 106.104 693.182 106.104 692.898V692.068C106.025 692.11 105.928 692.148 105.814 692.182C105.705 692.216 105.583 692.248 105.451 692.278C105.318 692.309 105.182 692.335 105.042 692.358C104.902 692.381 104.767 692.402 104.638 692.42C104.377 692.462 104.154 692.527 103.968 692.614C103.786 692.701 103.646 692.814 103.547 692.955C103.453 693.091 103.405 693.254 103.405 693.443C103.405 693.731 103.508 693.951 103.712 694.102C103.921 694.254 104.184 694.33 104.502 694.33ZM113.977 684.364V696H111.199V684.364H113.977Z" fill="black"/>
<path d="M44.7307 728V718.545H47.0158V726.144H50.9491V728H44.7307ZM54.131 728.12C53.6786 728.12 53.2769 728.045 52.9261 727.894C52.5783 727.74 52.3029 727.509 52.0997 727.201C51.8997 726.891 51.7997 726.501 51.7997 726.033C51.7997 725.639 51.8689 725.307 52.0074 725.036C52.1459 724.765 52.3367 724.545 52.5799 724.376C52.823 724.207 53.1031 724.079 53.4201 723.993C53.7371 723.904 54.0756 723.844 54.4357 723.813C54.8389 723.776 55.1635 723.737 55.4098 723.697C55.656 723.654 55.8345 723.594 55.9453 723.517C56.0591 723.437 56.1161 723.325 56.1161 723.18V723.157C56.1161 722.92 56.0345 722.737 55.8714 722.608C55.7083 722.479 55.4882 722.414 55.2112 722.414C54.9127 722.414 54.6727 722.479 54.4911 722.608C54.3095 722.737 54.1941 722.916 54.1448 723.143L52.0628 723.07C52.1244 722.639 52.2829 722.254 52.5383 721.915C52.7968 721.574 53.1508 721.306 53.6001 721.112C54.0525 720.915 54.5957 720.817 55.2297 720.817C55.6821 720.817 56.0992 720.871 56.4808 720.978C56.8624 721.083 57.1948 721.237 57.4779 721.44C57.7611 721.64 57.9796 721.886 58.1335 722.179C58.2904 722.471 58.3689 722.805 58.3689 723.18V728H56.2453V727.012H56.1899C56.0638 727.252 55.9022 727.455 55.7052 727.621C55.5113 727.788 55.282 727.912 55.0174 727.995C54.7558 728.078 54.4603 728.12 54.131 728.12ZM54.8281 726.643C55.0712 726.643 55.2897 726.594 55.4836 726.495C55.6806 726.397 55.8376 726.261 55.9545 726.089C56.0715 725.913 56.1299 725.71 56.1299 725.479V724.805C56.0653 724.839 55.9868 724.87 55.8945 724.898C55.8052 724.925 55.7068 724.952 55.599 724.976C55.4913 725.001 55.3805 725.022 55.2666 725.041C55.1528 725.059 55.0435 725.076 54.9389 725.092C54.7265 725.125 54.5449 725.178 54.3941 725.249C54.2464 725.319 54.1325 725.412 54.0525 725.526C53.9756 725.636 53.9371 725.769 53.9371 725.923C53.9371 726.156 54.0202 726.335 54.1864 726.458C54.3557 726.581 54.5696 726.643 54.8281 726.643ZM65.9399 723.074L63.8671 723.13C63.8456 722.982 63.7871 722.851 63.6917 722.737C63.5963 722.62 63.4717 722.529 63.3178 722.465C63.167 722.397 62.9916 722.363 62.7915 722.363C62.5299 722.363 62.3068 722.416 62.1221 722.52C61.9405 722.625 61.8513 722.766 61.8544 722.945C61.8513 723.083 61.9067 723.203 62.0206 723.305C62.1375 723.407 62.3452 723.488 62.6438 723.55L64.0103 723.808C64.7181 723.944 65.2444 724.168 65.5891 724.482C65.9369 724.796 66.1123 725.212 66.1154 725.729C66.1123 726.215 65.9676 726.638 65.6814 726.998C65.3983 727.358 65.0105 727.638 64.5181 727.838C64.0256 728.035 63.4624 728.134 62.8284 728.134C61.8159 728.134 61.0172 727.926 60.4325 727.511C59.8508 727.092 59.5184 726.532 59.4353 725.83L61.6651 725.775C61.7143 726.033 61.842 726.23 62.0483 726.366C62.2545 726.501 62.5176 726.569 62.8377 726.569C63.127 726.569 63.3624 726.515 63.544 726.407C63.7256 726.3 63.8179 726.156 63.821 725.978C63.8179 725.818 63.7471 725.69 63.6086 725.595C63.4701 725.496 63.2532 725.419 62.9577 725.364L61.7205 725.129C61.0095 724.999 60.4802 724.761 60.1324 724.413C59.7846 724.062 59.6123 723.616 59.6154 723.074C59.6123 722.6 59.7385 722.196 59.9939 721.86C60.2494 721.522 60.6125 721.263 61.0834 721.085C61.5543 720.906 62.1098 720.817 62.75 720.817C63.7102 720.817 64.4673 721.018 65.0213 721.422C65.5752 721.822 65.8815 722.373 65.9399 723.074ZM71.2293 720.909V722.571H66.7559V720.909H71.2293ZM67.693 719.21H69.9505V725.77C69.9505 725.909 69.972 726.021 70.0151 726.107C70.0613 726.19 70.1275 726.25 70.2136 726.287C70.2998 726.321 70.4029 726.338 70.5229 726.338C70.6091 726.338 70.6999 726.33 70.7953 726.315C70.8938 726.297 70.9677 726.281 71.0169 726.269L71.3585 727.898C71.2508 727.929 71.0985 727.968 70.9015 728.014C70.7076 728.06 70.4752 728.089 70.2044 728.102C69.6751 728.126 69.2211 728.065 68.8426 727.917C68.4671 727.766 68.1793 727.532 67.9793 727.215C67.7823 726.898 67.6869 726.5 67.693 726.02V719.21ZM75.5572 728L79.3704 720.447V720.387H74.9109V718.545H81.7341V720.401L77.907 728H75.5572ZM88.3899 728.102C87.8667 728.102 87.3912 727.966 86.9634 727.695C86.5356 727.424 86.194 727.018 85.9385 726.477C85.6831 725.935 85.5554 725.262 85.5554 724.459C85.5554 723.625 85.6877 722.939 85.9524 722.4C86.217 721.862 86.5633 721.463 86.9911 721.205C87.4219 720.946 87.8851 720.817 88.3806 720.817C88.753 720.817 89.0716 720.881 89.3362 721.011C89.6009 721.137 89.8194 721.3 89.9918 721.5C90.1641 721.7 90.2949 721.908 90.3842 722.123H90.4304V718.545H92.6878V728H90.4534V726.85H90.3842C90.2888 727.069 90.1534 727.274 89.9779 727.464C89.8025 727.655 89.5825 727.809 89.3178 727.926C89.0562 728.043 88.7469 728.102 88.3899 728.102ZM89.1747 726.343C89.4486 726.343 89.6825 726.266 89.8764 726.112C90.0703 725.955 90.2195 725.735 90.3242 725.452C90.4288 725.169 90.4811 724.836 90.4811 724.455C90.4811 724.067 90.4288 723.733 90.3242 723.453C90.2226 723.173 90.0733 722.957 89.8764 722.806C89.6825 722.656 89.4486 722.58 89.1747 722.58C88.8946 722.58 88.6576 722.657 88.4637 722.811C88.2698 722.965 88.1221 723.182 88.0206 723.462C87.9221 723.742 87.8728 724.073 87.8728 724.455C87.8728 724.836 87.9236 725.169 88.0252 725.452C88.1267 725.735 88.2729 725.955 88.4637 726.112C88.6576 726.266 88.8946 726.343 89.1747 726.343ZM96.1144 728.12C95.662 728.12 95.2603 728.045 94.9095 727.894C94.5617 727.74 94.2863 727.509 94.0831 727.201C93.8831 726.891 93.7831 726.501 93.7831 726.033C93.7831 725.639 93.8523 725.307 93.9908 725.036C94.1293 724.765 94.3201 724.545 94.5633 724.376C94.8064 724.207 95.0865 724.079 95.4035 723.993C95.7205 723.904 96.059 723.844 96.4191 723.813C96.8223 723.776 97.1469 723.737 97.3932 723.697C97.6394 723.654 97.8179 723.594 97.9287 723.517C98.0425 723.437 98.0995 723.325 98.0995 723.18V723.157C98.0995 722.92 98.0179 722.737 97.8548 722.608C97.6917 722.479 97.4716 722.414 97.1946 722.414C96.8961 722.414 96.6561 722.479 96.4745 722.608C96.2929 722.737 96.1775 722.916 96.1282 723.143L94.0462 723.07C94.1078 722.639 94.2663 722.254 94.5217 721.915C94.7802 721.574 95.1342 721.306 95.5835 721.112C96.0359 720.915 96.5791 720.817 97.2131 720.817C97.6655 720.817 98.0825 720.871 98.4642 720.978C98.8458 721.083 99.1782 721.237 99.4613 721.44C99.7445 721.64 99.963 721.886 100.117 722.179C100.274 722.471 100.352 722.805 100.352 723.18V728H98.2287V727.012H98.1733C98.0472 727.252 97.8856 727.455 97.6886 727.621C97.4947 727.788 97.2654 727.912 97.0008 727.995C96.7392 728.078 96.4437 728.12 96.1144 728.12ZM96.8115 726.643C97.0546 726.643 97.2731 726.594 97.467 726.495C97.664 726.397 97.8209 726.261 97.9379 726.089C98.0549 725.913 98.1133 725.71 98.1133 725.479V724.805C98.0487 724.839 97.9702 724.87 97.8779 724.898C97.7886 724.925 97.6901 724.952 97.5824 724.976C97.4747 725.001 97.3639 725.022 97.25 725.041C97.1362 725.059 97.0269 725.076 96.9223 725.092C96.7099 725.125 96.5283 725.178 96.3775 725.249C96.2298 725.319 96.1159 725.412 96.0359 725.526C95.959 725.636 95.9205 725.769 95.9205 725.923C95.9205 726.156 96.0036 726.335 96.1698 726.458C96.3391 726.581 96.553 726.643 96.8115 726.643ZM102.859 730.659C102.588 730.659 102.333 730.638 102.093 730.594C101.853 730.554 101.646 730.501 101.474 730.433L101.973 728.794C102.194 728.868 102.394 728.911 102.573 728.923C102.754 728.936 102.91 728.906 103.039 728.836C103.171 728.768 103.273 728.646 103.344 728.471L103.432 728.259L100.911 720.909H103.275L104.581 725.969H104.655L105.98 720.909H108.357L105.684 728.679C105.555 729.066 105.372 729.408 105.135 729.703C104.901 730.002 104.598 730.236 104.226 730.405C103.856 730.574 103.401 730.659 102.859 730.659ZM115.414 723.074L113.341 723.13C113.319 722.982 113.261 722.851 113.165 722.737C113.07 722.62 112.945 722.529 112.791 722.465C112.641 722.397 112.465 722.363 112.265 722.363C112.004 722.363 111.78 722.416 111.596 722.52C111.414 722.625 111.325 722.766 111.328 722.945C111.325 723.083 111.38 723.203 111.494 723.305C111.611 723.407 111.819 723.488 112.117 723.55L113.484 723.808C114.192 723.944 114.718 724.168 115.063 724.482C115.41 724.796 115.586 725.212 115.589 725.729C115.586 726.215 115.441 726.638 115.155 726.998C114.872 727.358 114.484 727.638 113.992 727.838C113.499 728.035 112.936 728.134 112.302 728.134C111.29 728.134 110.491 727.926 109.906 727.511C109.324 727.092 108.992 726.532 108.909 725.83L111.139 725.775C111.188 726.033 111.316 726.23 111.522 726.366C111.728 726.501 111.991 726.569 112.311 726.569C112.601 726.569 112.836 726.515 113.018 726.407C113.199 726.3 113.292 726.156 113.295 725.978C113.292 725.818 113.221 725.69 113.082 725.595C112.944 725.496 112.727 725.419 112.431 725.364L111.194 725.129C110.483 724.999 109.954 724.761 109.606 724.413C109.258 724.062 109.086 723.616 109.089 723.074C109.086 722.6 109.212 722.196 109.468 721.86C109.723 721.522 110.086 721.263 110.557 721.085C111.028 720.906 111.583 720.817 112.224 720.817C113.184 720.817 113.941 721.018 114.495 721.422C115.049 721.822 115.355 722.373 115.414 723.074Z" fill="#D0D0D0"/>
<path d="M164.475 728H162.019L165.209 718.545H168.251L171.441 728H168.985L166.765 720.928H166.691L164.475 728ZM164.147 724.279H169.281V726.015H164.147V724.279ZM174.717 718.545V728H172.459V718.545H174.717ZM178.411 718.545V728H176.154V718.545H178.411ZM182.332 720.401V718.545H190.323V720.401H187.456V728H185.203V720.401H182.332ZM191.439 728V720.909H193.696V728H191.439ZM192.57 720.083C192.253 720.083 191.98 719.978 191.753 719.769C191.525 719.556 191.411 719.301 191.411 719.002C191.411 718.707 191.525 718.455 191.753 718.245C191.98 718.033 192.253 717.927 192.57 717.927C192.89 717.927 193.162 718.033 193.387 718.245C193.615 718.455 193.728 718.707 193.728 719.002C193.728 719.301 193.615 719.556 193.387 719.769C193.162 719.978 192.89 720.083 192.57 720.083ZM195.133 728V720.909H197.28V722.211H197.358C197.506 721.78 197.755 721.44 198.106 721.191C198.457 720.941 198.875 720.817 199.362 720.817C199.854 720.817 200.276 720.943 200.627 721.195C200.977 721.448 201.201 721.786 201.296 722.211H201.37C201.502 721.789 201.761 721.452 202.145 721.2C202.53 720.944 202.984 720.817 203.507 720.817C204.178 720.817 204.723 721.032 205.142 721.463C205.56 721.891 205.769 722.479 205.769 723.227V728H203.512V723.744C203.512 723.39 203.421 723.12 203.24 722.936C203.058 722.748 202.823 722.654 202.533 722.654C202.222 722.654 201.978 722.756 201.799 722.959C201.624 723.159 201.536 723.428 201.536 723.767V728H199.366V723.721C199.366 723.391 199.277 723.131 199.099 722.94C198.92 722.75 198.685 722.654 198.392 722.654C198.195 722.654 198.021 722.702 197.871 722.797C197.72 722.89 197.601 723.022 197.515 723.194C197.432 723.367 197.39 723.57 197.39 723.804V728H195.133ZM210.483 728.134C209.741 728.134 209.101 727.988 208.562 727.695C208.027 727.4 207.614 726.98 207.325 726.435C207.039 725.887 206.896 725.236 206.896 724.482C206.896 723.75 207.04 723.11 207.33 722.562C207.619 722.011 208.027 721.583 208.553 721.278C209.079 720.971 209.7 720.817 210.414 720.817C210.918 720.817 211.38 720.895 211.799 721.052C212.217 721.209 212.579 721.442 212.883 721.749C213.188 722.057 213.425 722.437 213.594 722.89C213.764 723.339 213.848 723.854 213.848 724.436V724.999H207.685V723.688H211.748C211.745 723.448 211.688 723.234 211.577 723.047C211.466 722.859 211.314 722.713 211.12 722.608C210.929 722.5 210.709 722.446 210.46 722.446C210.207 722.446 209.981 722.503 209.781 722.617C209.581 722.728 209.423 722.88 209.306 723.074C209.189 723.265 209.127 723.482 209.121 723.725V725.059C209.121 725.349 209.178 725.603 209.292 725.821C209.406 726.036 209.567 726.204 209.777 726.324C209.986 726.444 210.235 726.504 210.524 726.504C210.724 726.504 210.906 726.477 211.069 726.421C211.232 726.366 211.372 726.284 211.489 726.176C211.606 726.069 211.694 725.936 211.752 725.779L213.825 725.839C213.739 726.304 213.55 726.709 213.257 727.054C212.968 727.395 212.588 727.661 212.117 727.852C211.646 728.04 211.101 728.134 210.483 728.134Z" fill="#D0D0D0"/>
<path d="M274.018 729H271.562L274.752 719.545H277.794L280.984 729H278.528L276.308 721.928H276.234L274.018 729ZM273.69 725.279H278.824V727.015H273.69V725.279ZM287.992 721.909L285.559 729H282.974L280.546 721.909H282.923L284.23 726.793H284.303L285.615 721.909H287.992ZM291.944 729.134C291.202 729.134 290.562 728.988 290.023 728.695C289.488 728.4 289.075 727.98 288.786 727.435C288.5 726.887 288.357 726.236 288.357 725.482C288.357 724.75 288.501 724.11 288.791 723.562C289.08 723.011 289.488 722.583 290.014 722.278C290.54 721.971 291.16 721.817 291.875 721.817C292.379 721.817 292.841 721.895 293.259 722.052C293.678 722.209 294.04 722.442 294.344 722.749C294.649 723.057 294.886 723.437 295.055 723.89C295.225 724.339 295.309 724.854 295.309 725.436V725.999H289.146V724.688H293.209C293.206 724.448 293.149 724.234 293.038 724.047C292.927 723.859 292.775 723.713 292.581 723.608C292.39 723.5 292.17 723.446 291.921 723.446C291.668 723.446 291.442 723.503 291.242 723.617C291.042 723.728 290.884 723.88 290.767 724.074C290.65 724.265 290.588 724.482 290.582 724.725V726.059C290.582 726.349 290.639 726.603 290.753 726.821C290.867 727.036 291.028 727.204 291.237 727.324C291.447 727.444 291.696 727.504 291.985 727.504C292.185 727.504 292.367 727.477 292.53 727.421C292.693 727.366 292.833 727.284 292.95 727.176C293.067 727.069 293.155 726.936 293.213 726.779L295.286 726.839C295.2 727.304 295.011 727.709 294.718 728.054C294.429 728.395 294.049 728.661 293.578 728.852C293.107 729.04 292.562 729.134 291.944 729.134ZM296.462 729V721.909H298.655V723.202H298.729C298.858 722.734 299.069 722.386 299.361 722.158C299.654 721.928 299.994 721.812 300.382 721.812C300.486 721.812 300.594 721.82 300.705 721.835C300.815 721.848 300.919 721.868 301.014 721.895V723.857C300.906 723.82 300.765 723.791 300.589 723.77C300.417 723.748 300.263 723.737 300.128 723.737C299.86 723.737 299.618 723.797 299.403 723.917C299.19 724.034 299.023 724.199 298.9 724.411C298.78 724.621 298.72 724.867 298.72 725.15V729H296.462ZM303.666 729.12C303.214 729.12 302.812 729.045 302.461 728.894C302.113 728.74 301.838 728.509 301.635 728.201C301.435 727.891 301.335 727.501 301.335 727.033C301.335 726.639 301.404 726.307 301.543 726.036C301.681 725.765 301.872 725.545 302.115 725.376C302.358 725.207 302.638 725.079 302.955 724.993C303.272 724.904 303.611 724.844 303.971 724.813C304.374 724.776 304.699 724.737 304.945 724.697C305.191 724.654 305.37 724.594 305.48 724.517C305.594 724.437 305.651 724.325 305.651 724.18V724.157C305.651 723.92 305.57 723.737 305.407 723.608C305.243 723.479 305.023 723.414 304.746 723.414C304.448 723.414 304.208 723.479 304.026 723.608C303.845 723.737 303.729 723.916 303.68 724.143L301.598 724.07C301.66 723.639 301.818 723.254 302.073 722.915C302.332 722.574 302.686 722.306 303.135 722.112C303.588 721.915 304.131 721.817 304.765 721.817C305.217 721.817 305.634 721.871 306.016 721.978C306.398 722.083 306.73 722.237 307.013 722.44C307.296 722.64 307.515 722.886 307.669 723.179C307.826 723.471 307.904 723.805 307.904 724.18V729H305.78V728.012H305.725C305.599 728.252 305.437 728.455 305.24 728.621C305.046 728.788 304.817 728.912 304.553 728.995C304.291 729.078 303.995 729.12 303.666 729.12ZM304.363 727.643C304.606 727.643 304.825 727.594 305.019 727.495C305.216 727.397 305.373 727.261 305.49 727.089C305.607 726.913 305.665 726.71 305.665 726.479V725.805C305.6 725.839 305.522 725.87 305.43 725.898C305.34 725.925 305.242 725.952 305.134 725.976C305.026 726.001 304.916 726.022 304.802 726.041C304.688 726.059 304.579 726.076 304.474 726.092C304.262 726.125 304.08 726.178 303.929 726.249C303.782 726.319 303.668 726.412 303.588 726.526C303.511 726.636 303.472 726.769 303.472 726.923C303.472 727.156 303.555 727.335 303.722 727.458C303.891 727.581 304.105 727.643 304.363 727.643ZM312.59 731.807C311.916 731.807 311.339 731.713 310.859 731.525C310.379 731.337 310.001 731.08 309.728 730.754C309.454 730.428 309.289 730.059 309.234 729.646L311.371 729.526C311.411 729.671 311.485 729.797 311.593 729.905C311.703 730.013 311.847 730.096 312.022 730.154C312.2 730.213 312.41 730.242 312.65 730.242C313.028 730.242 313.341 730.15 313.587 729.965C313.836 729.783 313.961 729.465 313.961 729.009V727.763H313.882C313.793 727.981 313.658 728.177 313.476 728.349C313.295 728.521 313.068 728.657 312.798 728.755C312.53 728.854 312.222 728.903 311.874 728.903C311.357 728.903 310.883 728.783 310.452 728.543C310.025 728.3 309.681 727.924 309.423 727.417C309.167 726.906 309.04 726.249 309.04 725.445C309.04 724.617 309.172 723.936 309.437 723.4C309.701 722.862 310.048 722.463 310.475 722.205C310.906 721.946 311.37 721.817 311.865 721.817C312.237 721.817 312.556 721.881 312.821 722.011C313.088 722.137 313.308 722.3 313.481 722.5C313.653 722.7 313.784 722.908 313.873 723.123H313.938V721.909H316.186V729.028C316.186 729.628 316.035 730.134 315.734 730.547C315.432 730.959 315.01 731.271 314.469 731.484C313.927 731.699 313.301 731.807 312.59 731.807ZM312.659 727.26C312.933 727.26 313.167 727.187 313.361 727.043C313.555 726.898 313.704 726.69 313.809 726.419C313.913 726.149 313.966 725.824 313.966 725.445C313.966 725.061 313.913 724.73 313.809 724.453C313.707 724.173 313.558 723.957 313.361 723.806C313.167 723.656 312.933 723.58 312.659 723.58C312.379 723.58 312.142 723.657 311.948 723.811C311.754 723.965 311.606 724.182 311.505 724.462C311.406 724.739 311.357 725.067 311.357 725.445C311.357 725.824 311.408 726.149 311.51 726.419C311.611 726.69 311.757 726.898 311.948 727.043C312.142 727.187 312.379 727.26 312.659 727.26ZM320.94 729.134C320.198 729.134 319.558 728.988 319.019 728.695C318.484 728.4 318.071 727.98 317.782 727.435C317.496 726.887 317.353 726.236 317.353 725.482C317.353 724.75 317.497 724.11 317.787 723.562C318.076 723.011 318.484 722.583 319.01 722.278C319.536 721.971 320.157 721.817 320.871 721.817C321.375 721.817 321.837 721.895 322.256 722.052C322.674 722.209 323.036 722.442 323.34 722.749C323.645 723.057 323.882 723.437 324.051 723.89C324.221 724.339 324.305 724.854 324.305 725.436V725.999H318.142V724.688H322.205C322.202 724.448 322.145 724.234 322.034 724.047C321.923 723.859 321.771 723.713 321.577 723.608C321.386 723.5 321.166 723.446 320.917 723.446C320.664 723.446 320.438 723.503 320.238 723.617C320.038 723.728 319.88 723.88 319.763 724.074C319.646 724.265 319.584 724.482 319.578 724.725V726.059C319.578 726.349 319.635 726.603 319.749 726.821C319.863 727.036 320.024 727.204 320.234 727.324C320.443 727.444 320.692 727.504 320.981 727.504C321.181 727.504 321.363 727.477 321.526 727.421C321.689 727.366 321.829 727.284 321.946 727.176C322.063 727.069 322.151 726.936 322.209 726.779L324.282 726.839C324.196 727.304 324.007 727.709 323.714 728.054C323.425 728.395 323.045 728.661 322.574 728.852C322.103 729.04 321.558 729.134 320.94 729.134Z" fill="#D0D0D0"/>
<path d="M155.774 696.179C154.789 696.179 153.914 696.019 153.147 695.7C152.384 695.376 151.785 694.935 151.35 694.376C150.916 693.818 150.698 693.185 150.698 692.478C150.698 691.933 150.822 691.432 151.069 690.976C151.321 690.516 151.661 690.134 152.092 689.832C152.522 689.525 153.004 689.329 153.536 689.244V689.154C152.838 689.013 152.271 688.675 151.836 688.138C151.402 687.597 151.184 686.968 151.184 686.252C151.184 685.575 151.382 684.972 151.779 684.443C152.175 683.911 152.718 683.493 153.409 683.19C154.103 682.884 154.892 682.73 155.774 682.73C156.656 682.73 157.442 682.884 158.132 683.19C158.827 683.497 159.372 683.917 159.769 684.45C160.165 684.978 160.365 685.579 160.37 686.252C160.365 686.972 160.144 687.601 159.705 688.138C159.266 688.675 158.703 689.013 158.017 689.154V689.244C158.541 689.329 159.017 689.525 159.443 689.832C159.873 690.134 160.214 690.516 160.465 690.976C160.721 691.432 160.851 691.933 160.855 692.478C160.851 693.185 160.632 693.818 160.197 694.376C159.762 694.935 159.161 695.376 158.394 695.7C157.632 696.019 156.758 696.179 155.774 696.179ZM155.774 694.146C156.213 694.146 156.596 694.067 156.924 693.91C157.252 693.748 157.508 693.526 157.691 693.245C157.879 692.96 157.973 692.631 157.973 692.261C157.973 691.881 157.877 691.547 157.685 691.257C157.493 690.963 157.233 690.733 156.905 690.567C156.577 690.396 156.2 690.311 155.774 690.311C155.352 690.311 154.975 690.396 154.642 690.567C154.31 690.733 154.048 690.963 153.856 691.257C153.669 691.547 153.575 691.881 153.575 692.261C153.575 692.631 153.666 692.96 153.85 693.245C154.033 693.526 154.291 693.748 154.623 693.91C154.956 694.067 155.339 694.146 155.774 694.146ZM155.774 688.298C156.14 688.298 156.466 688.223 156.752 688.074C157.037 687.925 157.261 687.718 157.423 687.454C157.585 687.19 157.666 686.885 157.666 686.54C157.666 686.199 157.585 685.901 157.423 685.645C157.261 685.385 157.039 685.183 156.758 685.038C156.477 684.888 156.149 684.814 155.774 684.814C155.403 684.814 155.075 684.888 154.789 685.038C154.504 685.183 154.28 685.385 154.118 685.645C153.96 685.901 153.882 686.199 153.882 686.54C153.882 686.885 153.963 687.19 154.125 687.454C154.286 687.718 154.51 687.925 154.796 688.074C155.081 688.223 155.407 688.298 155.774 688.298ZM162.592 693.699V691.519L168.058 682.909H169.937V685.926H168.825L165.379 691.379V691.481H173.146V693.699H162.592ZM168.876 696V693.034L168.927 692.069V682.909H171.522V696H168.876ZM177.483 693.175L177.489 689.908H177.885L181.03 686.182H184.156L179.931 691.116H179.285L177.483 693.175ZM175.015 696V682.909H177.738V696H175.015ZM181.152 696L178.263 691.724L180.078 689.8L184.341 696H181.152ZM189.709 696V682.909H192.477V688.681H192.649L197.36 682.909H200.678L195.82 688.771L200.735 696H197.424L193.838 690.618L192.477 692.28V696H189.709ZM205.783 696.192C204.778 696.192 203.913 695.979 203.188 695.553C202.468 695.122 201.914 694.526 201.526 693.763C201.143 693 200.951 692.122 200.951 691.129C200.951 690.124 201.145 689.241 201.533 688.483C201.925 687.72 202.481 687.126 203.201 686.7C203.921 686.269 204.778 686.054 205.771 686.054C206.627 686.054 207.377 686.21 208.021 686.521C208.664 686.832 209.173 687.268 209.548 687.831C209.923 688.393 210.13 689.054 210.168 689.812H207.599C207.526 689.322 207.335 688.928 207.024 688.63C206.717 688.327 206.314 688.176 205.815 688.176C205.394 688.176 205.025 688.291 204.71 688.521C204.399 688.747 204.156 689.077 203.981 689.512C203.806 689.947 203.719 690.473 203.719 691.091C203.719 691.717 203.804 692.25 203.975 692.689C204.149 693.128 204.394 693.462 204.71 693.692C205.025 693.923 205.394 694.038 205.815 694.038C206.127 694.038 206.406 693.974 206.653 693.846C206.904 693.718 207.111 693.533 207.273 693.29C207.439 693.043 207.548 692.746 207.599 692.401H210.168C210.126 693.151 209.921 693.812 209.555 694.383C209.193 694.95 208.692 695.393 208.053 695.712C207.413 696.032 206.657 696.192 205.783 696.192ZM214.712 696.185C214.085 696.185 213.527 696.077 213.037 695.859C212.547 695.638 212.159 695.312 211.873 694.881C211.592 694.447 211.452 693.906 211.452 693.258C211.452 692.712 211.552 692.254 211.752 691.884C211.952 691.513 212.225 691.214 212.57 690.989C212.915 690.763 213.307 690.592 213.746 690.477C214.19 690.362 214.654 690.281 215.14 690.234C215.711 690.175 216.171 690.119 216.521 690.068C216.87 690.013 217.123 689.932 217.281 689.825C217.439 689.719 217.518 689.561 217.518 689.352V689.314C217.518 688.909 217.39 688.596 217.134 688.374C216.883 688.153 216.525 688.042 216.06 688.042C215.57 688.042 215.18 688.151 214.891 688.368C214.601 688.581 214.409 688.849 214.315 689.173L211.797 688.969C211.925 688.372 212.176 687.857 212.551 687.422C212.926 686.983 213.41 686.646 214.002 686.412C214.599 686.173 215.289 686.054 216.073 686.054C216.619 686.054 217.141 686.118 217.639 686.246C218.142 686.374 218.587 686.572 218.975 686.84C219.367 687.109 219.676 687.454 219.902 687.876C220.128 688.293 220.241 688.794 220.241 689.378V696H217.658V694.638H217.582C217.424 694.945 217.213 695.216 216.949 695.45C216.685 695.68 216.367 695.862 215.996 695.994C215.626 696.121 215.197 696.185 214.712 696.185ZM215.491 694.306C215.892 694.306 216.246 694.227 216.552 694.07C216.859 693.908 217.1 693.69 217.275 693.418C217.449 693.145 217.537 692.836 217.537 692.491V691.449C217.452 691.504 217.334 691.555 217.185 691.602C217.04 691.645 216.876 691.685 216.693 691.724C216.51 691.758 216.327 691.79 216.143 691.82C215.96 691.845 215.794 691.869 215.645 691.89C215.325 691.937 215.046 692.011 214.807 692.114C214.569 692.216 214.383 692.354 214.251 692.529C214.119 692.7 214.053 692.913 214.053 693.168C214.053 693.539 214.187 693.822 214.456 694.018C214.729 694.21 215.074 694.306 215.491 694.306ZM225.076 682.909V696H222.353V682.909H225.076Z" fill="black"/>
<path d="M268.76 695L273.454 685.705V685.631H267.965V683.364H276.363V685.648L271.652 695H268.76ZM278.547 695V692.977L282.791 689.261C283.109 688.973 283.38 688.71 283.604 688.472C283.827 688.229 283.997 687.987 284.115 687.744C284.232 687.498 284.291 687.231 284.291 686.943C284.291 686.621 284.221 686.347 284.081 686.119C283.941 685.888 283.747 685.71 283.501 685.585C283.255 685.46 282.973 685.398 282.655 685.398C282.333 685.398 282.05 685.464 281.808 685.597C281.566 685.725 281.376 685.913 281.24 686.159C281.107 686.405 281.041 686.705 281.041 687.057H278.376C278.376 686.265 278.554 685.581 278.91 685.006C279.266 684.43 279.766 683.987 280.41 683.676C281.058 683.362 281.81 683.205 282.666 683.205C283.549 683.205 284.316 683.352 284.967 683.648C285.619 683.943 286.122 684.356 286.479 684.886C286.838 685.413 287.018 686.025 287.018 686.722C287.018 687.165 286.929 687.604 286.751 688.04C286.573 688.475 286.253 688.956 285.791 689.483C285.333 690.009 284.681 690.64 283.836 691.375L282.444 692.659V692.733H287.16V695H278.547ZM293.49 695V683.364H296.303V688.284H296.456L300.303 683.364H303.615L299.49 688.557L303.689 695H300.325L297.428 690.426L296.303 691.847V695H293.49ZM308.798 695.165C307.877 695.165 307.087 694.975 306.428 694.597C305.773 694.218 305.269 693.691 304.917 693.017C304.565 692.339 304.389 691.555 304.389 690.665C304.389 689.771 304.565 688.987 304.917 688.312C305.273 687.634 305.779 687.106 306.434 686.727C307.093 686.348 307.879 686.159 308.792 686.159C309.599 686.159 310.301 686.305 310.9 686.597C311.502 686.888 311.972 687.301 312.309 687.835C312.65 688.366 312.83 688.989 312.849 689.705H310.252C310.199 689.258 310.048 688.907 309.798 688.653C309.551 688.4 309.229 688.273 308.832 688.273C308.51 688.273 308.228 688.364 307.985 688.545C307.743 688.723 307.553 688.989 307.417 689.341C307.284 689.689 307.218 690.121 307.218 690.636C307.218 691.152 307.284 691.587 307.417 691.943C307.553 692.295 307.743 692.562 307.985 692.744C308.228 692.922 308.51 693.011 308.832 693.011C309.089 693.011 309.317 692.956 309.514 692.847C309.714 692.737 309.879 692.576 310.008 692.364C310.137 692.148 310.218 691.886 310.252 691.58H312.849C312.822 692.299 312.642 692.928 312.309 693.466C311.979 694.004 311.515 694.422 310.917 694.722C310.322 695.017 309.616 695.165 308.798 695.165ZM317.371 695.148C316.814 695.148 316.32 695.055 315.888 694.869C315.46 694.68 315.121 694.396 314.871 694.017C314.625 693.634 314.502 693.155 314.502 692.58C314.502 692.095 314.587 691.686 314.757 691.352C314.928 691.019 315.163 690.748 315.462 690.54C315.761 690.331 316.106 690.174 316.496 690.068C316.886 689.958 317.303 689.884 317.746 689.847C318.242 689.801 318.642 689.754 318.945 689.705C319.248 689.652 319.467 689.578 319.604 689.483C319.744 689.384 319.814 689.246 319.814 689.068V689.04C319.814 688.748 319.714 688.523 319.513 688.364C319.312 688.205 319.041 688.125 318.7 688.125C318.333 688.125 318.038 688.205 317.814 688.364C317.591 688.523 317.449 688.742 317.388 689.023L314.825 688.932C314.901 688.402 315.096 687.928 315.411 687.511C315.729 687.091 316.164 686.761 316.717 686.523C317.274 686.28 317.943 686.159 318.723 686.159C319.28 686.159 319.793 686.225 320.263 686.358C320.733 686.487 321.142 686.676 321.49 686.926C321.839 687.172 322.108 687.475 322.297 687.835C322.49 688.195 322.587 688.606 322.587 689.068V695H319.973V693.784H319.905C319.75 694.08 319.551 694.33 319.308 694.534C319.07 694.739 318.788 694.892 318.462 694.994C318.14 695.097 317.776 695.148 317.371 695.148ZM318.229 693.33C318.528 693.33 318.797 693.269 319.036 693.148C319.278 693.027 319.471 692.86 319.615 692.648C319.759 692.432 319.831 692.182 319.831 691.898V691.068C319.752 691.11 319.655 691.148 319.541 691.182C319.432 691.216 319.31 691.248 319.178 691.278C319.045 691.309 318.909 691.335 318.769 691.358C318.628 691.381 318.494 691.402 318.365 691.42C318.104 691.462 317.88 691.527 317.695 691.614C317.513 691.701 317.373 691.814 317.274 691.955C317.18 692.091 317.132 692.254 317.132 692.443C317.132 692.731 317.235 692.951 317.439 693.102C317.647 693.254 317.911 693.33 318.229 693.33ZM327.704 683.364V695H324.926V683.364H327.704Z" fill="black"/>
<circle cx="340" cy="576" r="2" fill="#A6A6A6"/>
<circle cx="340" cy="576" r="2" fill="#A6A6A6"/>
<circle cx="340" cy="585" r="2" fill="#A6A6A6"/>
<circle cx="340" cy="585" r="2" fill="#A6A6A6"/>
<path d="M84 657H86V655.5V654V651.5V649.5L85 648L84 647.5L83 647H80.5L78.5 648.5L75.5 647.5L74.5 647H73L71 648L69.5 648.5V651.5V654V655.5L71 657L78.5 662.5L80.5 661C81.3333 660.333 83.2 658.6 84 657ZM84 657L83 659" stroke="black" stroke-width="2"/>
<path d="M195.5 655.5L188 647L180 655.5V658.5L181.5 660.5L185 664H188H190L193 662.5L195.5 660.5V658.5V655.5Z" stroke="black" stroke-width="2"/>
<path d="M299.5 652.5V645.5L291 657.5H296.5V663.5L305 652.5H299.5Z" stroke="black" stroke-width="2"/>
<path d="M24 156C24 147.716 30.7157 141 39 141H340C348.284 141 355 147.716 355 156V158C355 166.284 348.284 173 340 173H39C30.7157 173 24 166.284 24 158V156Z" fill="#FFEFF2"/>
<path d="M51.4313 154.986V153.273H58.8077V154.986H56.1614V162H54.0819V154.986H51.4313ZM60.3179 162V155.455H62.4017V162H60.3179ZM61.362 154.692C61.0694 154.692 60.8179 154.595 60.6077 154.402C60.3975 154.206 60.2924 153.97 60.2924 153.695C60.2924 153.422 60.3975 153.189 60.6077 152.996C60.8179 152.8 61.0694 152.702 61.362 152.702C61.6574 152.702 61.9088 152.8 62.1162 152.996C62.3265 153.189 62.4316 153.422 62.4316 153.695C62.4316 153.97 62.3265 154.206 62.1162 154.402C61.9088 154.595 61.6574 154.692 61.362 154.692ZM64.2081 162V155.455H66.1896V156.656H66.2621C66.3984 156.259 66.6285 155.945 66.9524 155.714C67.2763 155.484 67.6626 155.369 68.1115 155.369C68.566 155.369 68.9552 155.486 69.2791 155.719C69.603 155.952 69.8089 156.264 69.897 156.656H69.9652C70.0874 156.267 70.326 155.956 70.6811 155.723C71.0362 155.487 71.4552 155.369 71.9382 155.369C72.5575 155.369 73.0604 155.568 73.4467 155.966C73.8331 156.361 74.0263 156.903 74.0263 157.594V162H71.9425V158.071C71.9425 157.744 71.8587 157.496 71.691 157.325C71.5234 157.152 71.3061 157.065 71.0391 157.065C70.7521 157.065 70.5263 157.159 70.3615 157.347C70.1996 157.531 70.1186 157.78 70.1186 158.092V162H68.1158V158.05C68.1158 157.746 68.0334 157.506 67.8686 157.33C67.7038 157.153 67.4865 157.065 67.2166 157.065C67.0348 157.065 66.8743 157.109 66.7351 157.197C66.5959 157.283 66.4865 157.405 66.407 157.564C66.3302 157.723 66.2919 157.911 66.2919 158.126V162H64.2081ZM78.8571 162.124C78.1725 162.124 77.5816 161.989 77.0844 161.719C76.5901 161.446 76.2094 161.058 75.9424 160.555C75.6781 160.05 75.546 159.449 75.546 158.753C75.546 158.077 75.6796 157.486 75.9466 156.98C76.2137 156.472 76.5901 156.077 77.0759 155.795C77.5617 155.511 78.1341 155.369 78.7932 155.369C79.2591 155.369 79.6852 155.442 80.0716 155.587C80.458 155.732 80.7918 155.946 81.073 156.23C81.3543 156.514 81.573 156.865 81.7293 157.283C81.8855 157.697 81.9637 158.173 81.9637 158.71V159.23H76.2747V158.02H80.0247C80.0219 157.798 79.9693 157.601 79.8671 157.428C79.7648 157.254 79.6242 157.119 79.4452 157.023C79.2691 156.923 79.0659 156.874 78.8358 156.874C78.6029 156.874 78.3941 156.926 78.2094 157.031C78.0247 157.134 77.8784 157.274 77.7705 157.453C77.6625 157.629 77.6057 157.83 77.6 158.054V159.286C77.6 159.553 77.6526 159.787 77.7577 159.989C77.8628 160.187 78.012 160.342 78.2051 160.453C78.3983 160.564 78.6284 160.619 78.8955 160.619C79.0801 160.619 79.2477 160.594 79.3983 160.543C79.5489 160.491 79.6781 160.416 79.7861 160.317C79.8941 160.217 79.975 160.095 80.029 159.95L81.9424 160.006C81.8628 160.435 81.6881 160.808 81.4182 161.126C81.1512 161.442 80.8003 161.687 80.3656 161.864C79.931 162.037 79.4281 162.124 78.8571 162.124ZM85.5917 153.273V162H83.5079V153.273H85.5917ZM87.3981 162V155.455H89.4819V162H87.3981ZM88.4421 154.692C88.1495 154.692 87.8981 154.595 87.6879 154.402C87.4776 154.206 87.3725 153.97 87.3725 153.695C87.3725 153.422 87.4776 153.189 87.6879 152.996C87.8981 152.8 88.1495 152.702 88.4421 152.702C88.7376 152.702 88.989 152.8 89.1964 152.996C89.4066 153.189 89.5117 153.422 89.5117 153.695C89.5117 153.97 89.4066 154.206 89.1964 154.402C88.989 154.595 88.7376 154.692 88.4421 154.692ZM93.3721 158.267V162H91.2882V155.455H93.2698V156.656H93.3422C93.4871 156.256 93.7343 155.942 94.0837 155.714C94.4331 155.484 94.8493 155.369 95.3323 155.369C95.7925 155.369 96.1917 155.473 96.5297 155.68C96.8706 155.885 97.1348 156.172 97.3223 156.541C97.5127 156.908 97.6064 157.337 97.6036 157.828V162H95.5198V158.237C95.5226 157.874 95.4303 157.589 95.2428 157.385C95.0581 157.18 94.801 157.078 94.4715 157.078C94.2527 157.078 94.0596 157.126 93.8919 157.223C93.7272 157.317 93.5993 157.452 93.5084 157.628C93.4203 157.804 93.3749 158.017 93.3721 158.267ZM102.433 162.124C101.749 162.124 101.158 161.989 100.661 161.719C100.166 161.446 99.7856 161.058 99.5186 160.555C99.2544 160.05 99.1223 159.449 99.1223 158.753C99.1223 158.077 99.2558 157.486 99.5229 156.98C99.7899 156.472 100.166 156.077 100.652 155.795C101.138 155.511 101.71 155.369 102.369 155.369C102.835 155.369 103.261 155.442 103.648 155.587C104.034 155.732 104.368 155.946 104.649 156.23C104.931 156.514 105.149 156.865 105.306 157.283C105.462 157.697 105.54 158.173 105.54 158.71V159.23H99.851V158.02H103.601C103.598 157.798 103.546 157.601 103.443 157.428C103.341 157.254 103.2 157.119 103.021 157.023C102.845 156.923 102.642 156.874 102.412 156.874C102.179 156.874 101.97 156.926 101.786 157.031C101.601 157.134 101.455 157.274 101.347 157.453C101.239 157.629 101.182 157.83 101.176 158.054V159.286C101.176 159.553 101.229 159.787 101.334 159.989C101.439 160.187 101.588 160.342 101.781 160.453C101.975 160.564 102.205 160.619 102.472 160.619C102.656 160.619 102.824 160.594 102.975 160.543C103.125 160.491 103.254 160.416 103.362 160.317C103.47 160.217 103.551 160.095 103.605 159.95L105.519 160.006C105.439 160.435 105.264 160.808 104.994 161.126C104.727 161.442 104.377 161.687 103.942 161.864C103.507 162.037 103.004 162.124 102.433 162.124Z" fill="black"/>
<path d="M281.458 162H278.232V153.273H281.453C282.343 153.273 283.108 153.447 283.75 153.797C284.395 154.143 284.892 154.643 285.242 155.297C285.591 155.947 285.766 156.726 285.766 157.632C285.766 158.541 285.591 159.322 285.242 159.976C284.895 160.629 284.399 161.131 283.754 161.48C283.11 161.827 282.344 162 281.458 162ZM280.341 160.202H281.377C281.865 160.202 282.279 160.119 282.617 159.955C282.958 159.787 283.215 159.516 283.388 159.141C283.564 158.763 283.652 158.26 283.652 157.632C283.652 157.004 283.564 156.504 283.388 156.132C283.212 155.757 282.952 155.487 282.608 155.322C282.267 155.155 281.847 155.071 281.347 155.071H280.341V160.202ZM291.7 159.175V155.455H293.78V162H291.794V160.781H291.726C291.581 161.182 291.334 161.5 290.984 161.736C290.638 161.969 290.219 162.085 289.727 162.085C289.281 162.085 288.889 161.983 288.551 161.778C288.213 161.574 287.95 161.288 287.763 160.922C287.575 160.553 287.48 160.121 287.477 159.626V155.455H289.561V159.217C289.564 159.572 289.658 159.852 289.842 160.057C290.027 160.261 290.279 160.364 290.597 160.364C290.804 160.364 290.99 160.318 291.155 160.227C291.323 160.134 291.455 159.999 291.551 159.822C291.651 159.643 291.7 159.428 291.7 159.175ZM298.646 162.124C297.961 162.124 297.37 161.989 296.873 161.719C296.379 161.446 295.998 161.058 295.731 160.555C295.467 160.05 295.335 159.449 295.335 158.753C295.335 158.077 295.468 157.486 295.735 156.98C296.002 156.472 296.379 156.077 296.865 155.795C297.35 155.511 297.923 155.369 298.582 155.369C299.048 155.369 299.474 155.442 299.86 155.587C300.247 155.732 300.581 155.946 300.862 156.23C301.143 156.514 301.362 156.865 301.518 157.283C301.674 157.697 301.752 158.173 301.752 158.71V159.23H296.064V158.02H299.814C299.811 157.798 299.758 157.601 299.656 157.428C299.554 157.254 299.413 157.119 299.234 157.023C299.058 156.923 298.855 156.874 298.625 156.874C298.392 156.874 298.183 156.926 297.998 157.031C297.814 157.134 297.667 157.274 297.559 157.453C297.451 157.629 297.395 157.83 297.389 158.054V159.286C297.389 159.553 297.441 159.787 297.547 159.989C297.652 160.187 297.801 160.342 297.994 160.453C298.187 160.564 298.417 160.619 298.684 160.619C298.869 160.619 299.037 160.594 299.187 160.543C299.338 160.491 299.467 160.416 299.575 160.317C299.683 160.217 299.764 160.095 299.818 159.95L301.731 160.006C301.652 160.435 301.477 160.808 301.207 161.126C300.94 161.442 300.589 161.687 300.154 161.864C299.72 162.037 299.217 162.124 298.646 162.124ZM305.381 153.273V162H303.297V153.273H305.381ZM312.901 157.453L310.988 157.504C310.968 157.368 310.914 157.247 310.826 157.142C310.738 157.034 310.623 156.95 310.481 156.891C310.342 156.828 310.18 156.797 309.995 156.797C309.754 156.797 309.548 156.845 309.377 156.942C309.21 157.038 309.127 157.169 309.13 157.334C309.127 157.462 309.178 157.572 309.284 157.666C309.391 157.76 309.583 157.835 309.859 157.892L311.12 158.131C311.774 158.256 312.259 158.463 312.578 158.753C312.899 159.043 313.06 159.426 313.063 159.903C313.06 160.352 312.927 160.743 312.663 161.075C312.401 161.408 312.043 161.666 311.589 161.851C311.134 162.033 310.614 162.124 310.029 162.124C309.095 162.124 308.357 161.932 307.818 161.548C307.281 161.162 306.974 160.645 306.897 159.997L308.955 159.946C309.001 160.185 309.119 160.366 309.309 160.491C309.499 160.616 309.742 160.679 310.038 160.679C310.305 160.679 310.522 160.629 310.69 160.53C310.857 160.43 310.943 160.298 310.945 160.134C310.943 159.986 310.877 159.868 310.749 159.78C310.622 159.689 310.421 159.618 310.149 159.567L309.007 159.349C308.35 159.23 307.862 159.01 307.541 158.689C307.22 158.365 307.06 157.953 307.063 157.453C307.06 157.016 307.177 156.642 307.413 156.332C307.649 156.02 307.984 155.781 308.418 155.616C308.853 155.452 309.366 155.369 309.957 155.369C310.843 155.369 311.542 155.555 312.053 155.928C312.565 156.297 312.847 156.805 312.901 157.453Z" fill="black"/>
<rect x="134" y="142" width="107" height="29" rx="10" fill="white"/>
<path d="M176.273 155.889C176.245 155.577 176.118 155.334 175.894 155.161C175.672 154.984 175.356 154.896 174.944 154.896C174.671 154.896 174.444 154.932 174.262 155.003C174.08 155.074 173.944 155.172 173.853 155.297C173.762 155.419 173.715 155.56 173.712 155.719C173.707 155.849 173.732 155.964 173.789 156.064C173.849 156.163 173.934 156.251 174.045 156.328C174.158 156.402 174.295 156.467 174.454 156.524C174.613 156.581 174.792 156.631 174.991 156.673L175.741 156.844C176.172 156.938 176.553 157.062 176.883 157.219C177.215 157.375 177.493 157.561 177.718 157.777C177.945 157.993 178.117 158.241 178.234 158.523C178.35 158.804 178.41 159.119 178.413 159.469C178.41 160.02 178.27 160.493 177.995 160.888C177.719 161.283 177.323 161.585 176.806 161.795C176.292 162.006 175.671 162.111 174.944 162.111C174.214 162.111 173.577 162.001 173.035 161.783C172.492 161.564 172.07 161.232 171.769 160.786C171.468 160.339 171.313 159.776 171.305 159.094H173.324C173.341 159.375 173.417 159.609 173.55 159.797C173.684 159.984 173.867 160.126 174.1 160.223C174.336 160.32 174.609 160.368 174.918 160.368C175.202 160.368 175.444 160.33 175.643 160.253C175.844 160.176 175.999 160.07 176.107 159.933C176.215 159.797 176.27 159.641 176.273 159.464C176.27 159.3 176.219 159.159 176.12 159.043C176.02 158.923 175.867 158.821 175.66 158.736C175.455 158.648 175.194 158.567 174.876 158.493L173.964 158.28C173.208 158.107 172.613 157.827 172.178 157.44C171.743 157.051 171.528 156.526 171.53 155.864C171.528 155.324 171.672 154.851 171.965 154.445C172.258 154.038 172.663 153.722 173.18 153.494C173.697 153.267 174.286 153.153 174.948 153.153C175.624 153.153 176.211 153.268 176.708 153.499C177.208 153.726 177.596 154.045 177.871 154.457C178.147 154.869 178.288 155.347 178.293 155.889H176.273ZM183.652 155.455V156.989H179.523V155.455H183.652ZM180.388 153.886H182.472V159.942C182.472 160.07 182.492 160.173 182.532 160.253C182.574 160.33 182.635 160.385 182.715 160.419C182.795 160.45 182.89 160.466 183 160.466C183.08 160.466 183.164 160.459 183.252 160.445C183.343 160.428 183.411 160.413 183.456 160.402L183.772 161.906C183.672 161.935 183.532 161.97 183.35 162.013C183.171 162.055 182.956 162.082 182.706 162.094C182.218 162.116 181.799 162.06 181.449 161.923C181.103 161.784 180.837 161.568 180.652 161.276C180.471 160.983 180.383 160.615 180.388 160.172V153.886ZM187.041 162.111C186.623 162.111 186.252 162.041 185.929 161.902C185.608 161.76 185.353 161.547 185.166 161.263C184.981 160.976 184.889 160.616 184.889 160.185C184.889 159.821 184.953 159.514 185.081 159.264C185.208 159.014 185.385 158.811 185.609 158.655C185.833 158.499 186.092 158.381 186.385 158.301C186.677 158.219 186.99 158.163 187.322 158.135C187.694 158.101 187.994 158.065 188.221 158.028C188.449 157.989 188.613 157.933 188.716 157.862C188.821 157.788 188.873 157.685 188.873 157.551V157.53C188.873 157.311 188.798 157.142 188.647 157.023C188.497 156.903 188.294 156.844 188.038 156.844C187.762 156.844 187.541 156.903 187.373 157.023C187.206 157.142 187.099 157.307 187.054 157.517L185.132 157.449C185.189 157.051 185.335 156.696 185.571 156.384C185.809 156.068 186.136 155.821 186.551 155.642C186.968 155.46 187.47 155.369 188.055 155.369C188.473 155.369 188.858 155.419 189.21 155.518C189.562 155.615 189.869 155.757 190.13 155.945C190.392 156.129 190.593 156.357 190.735 156.626C190.88 156.896 190.953 157.205 190.953 157.551V162H188.993V161.088H188.941C188.825 161.31 188.676 161.497 188.494 161.651C188.315 161.804 188.103 161.919 187.859 161.996C187.618 162.072 187.345 162.111 187.041 162.111ZM187.684 160.747C187.909 160.747 188.11 160.702 188.289 160.611C188.471 160.52 188.616 160.395 188.724 160.236C188.832 160.074 188.886 159.886 188.886 159.673V159.051C188.826 159.082 188.754 159.111 188.669 159.136C188.586 159.162 188.495 159.186 188.396 159.209C188.297 159.232 188.194 159.251 188.089 159.268C187.984 159.286 187.883 159.301 187.787 159.315C187.591 159.347 187.423 159.395 187.284 159.46C187.147 159.526 187.042 159.611 186.968 159.716C186.897 159.818 186.862 159.94 186.862 160.082C186.862 160.298 186.939 160.463 187.092 160.577C187.248 160.69 187.446 160.747 187.684 160.747ZM196.402 155.455V156.989H192.272V155.455H196.402ZM193.137 153.886H195.221V159.942C195.221 160.07 195.241 160.173 195.281 160.253C195.323 160.33 195.384 160.385 195.464 160.419C195.544 160.45 195.639 160.466 195.75 160.466C195.829 160.466 195.913 160.459 196.001 160.445C196.092 160.428 196.16 160.413 196.206 160.402L196.521 161.906C196.421 161.935 196.281 161.97 196.099 162.013C195.92 162.055 195.706 162.082 195.456 162.094C194.967 162.116 194.548 162.06 194.198 161.923C193.852 161.784 193.586 161.568 193.402 161.276C193.22 160.983 193.132 160.615 193.137 160.172V153.886ZM203.577 157.453L201.664 157.504C201.644 157.368 201.59 157.247 201.502 157.142C201.414 157.034 201.299 156.95 201.157 156.891C201.018 156.828 200.856 156.797 200.671 156.797C200.429 156.797 200.223 156.845 200.053 156.942C199.885 157.038 199.803 157.169 199.806 157.334C199.803 157.462 199.854 157.572 199.959 157.666C200.067 157.76 200.259 157.835 200.535 157.892L201.796 158.131C202.449 158.256 202.935 158.463 203.253 158.753C203.574 159.043 203.736 159.426 203.739 159.903C203.736 160.352 203.603 160.743 203.339 161.075C203.077 161.408 202.719 161.666 202.265 161.851C201.81 162.033 201.29 162.124 200.705 162.124C199.77 162.124 199.033 161.932 198.493 161.548C197.956 161.162 197.65 160.645 197.573 159.997L199.631 159.946C199.677 160.185 199.795 160.366 199.985 160.491C200.175 160.616 200.418 160.679 200.714 160.679C200.981 160.679 201.198 160.629 201.366 160.53C201.533 160.43 201.618 160.298 201.621 160.134C201.618 159.986 201.553 159.868 201.425 159.78C201.297 159.689 201.097 159.618 200.824 159.567L199.682 159.349C199.026 159.23 198.537 159.01 198.216 158.689C197.895 158.365 197.736 157.953 197.739 157.453C197.736 157.016 197.853 156.642 198.089 156.332C198.324 156.02 198.66 155.781 199.094 155.616C199.529 155.452 200.042 155.369 200.633 155.369C201.519 155.369 202.218 155.555 202.729 155.928C203.241 156.297 203.523 156.805 203.577 157.453Z" fill="#DB6685"/>
<path d="M144.253 82.0909H147.198L149.505 86.6559H149.601L151.907 82.0909H154.853L150.863 89.3565V93H148.242V89.3565L144.253 82.0909ZM157.888 93.1545C157.028 93.1545 156.29 92.9787 155.672 92.6271C155.057 92.272 154.583 91.7784 154.249 91.1463C153.919 90.5107 153.754 89.7738 153.754 88.9357C153.754 88.0941 153.919 87.3572 154.249 86.7251C154.583 86.0895 155.057 85.5959 155.672 85.2443C156.29 84.8892 157.028 84.7116 157.888 84.7116C158.747 84.7116 159.484 84.8892 160.098 85.2443C160.716 85.5959 161.19 86.0895 161.52 86.7251C161.854 87.3572 162.021 88.0941 162.021 88.9357C162.021 89.7738 161.854 90.5107 161.52 91.1463C161.19 91.7784 160.716 92.272 160.098 92.6271C159.484 92.9787 158.747 93.1545 157.888 93.1545ZM157.904 91.1889C158.216 91.1889 158.481 91.093 158.697 90.9013C158.914 90.7095 159.079 90.4432 159.193 90.1023C159.31 89.7614 159.368 89.3672 159.368 88.9197C159.368 88.4652 159.31 88.0675 159.193 87.7266C159.079 87.3857 158.914 87.1193 158.697 86.9276C158.481 86.7358 158.216 86.6399 157.904 86.6399C157.58 86.6399 157.307 86.7358 157.083 86.9276C156.863 87.1193 156.694 87.3857 156.577 87.7266C156.464 88.0675 156.407 88.4652 156.407 88.9197C156.407 89.3672 156.464 89.7614 156.577 90.1023C156.694 90.4432 156.863 90.7095 157.083 90.9013C157.307 91.093 157.58 91.1889 157.904 91.1889ZM168.634 89.4684V84.8182H171.234V93H168.751V91.4766H168.666C168.485 91.9773 168.176 92.375 167.739 92.6697C167.306 92.9609 166.782 93.1065 166.168 93.1065C165.61 93.1065 165.12 92.9787 164.698 92.723C164.275 92.4673 163.947 92.1104 163.712 91.6523C163.478 91.1907 163.359 90.6509 163.355 90.033V84.8182H165.96V89.5217C165.964 89.9656 166.081 90.3153 166.312 90.571C166.543 90.8267 166.857 90.9545 167.255 90.9545C167.514 90.9545 167.746 90.8977 167.952 90.7841C168.162 90.6669 168.327 90.4982 168.448 90.2781C168.572 90.0543 168.634 89.7844 168.634 89.4684ZM172.892 93V84.8182H175.422V86.3097H175.507C175.656 85.7699 175.899 85.3686 176.237 85.1058C176.574 84.8395 176.966 84.7063 177.414 84.7063C177.535 84.7063 177.659 84.7152 177.787 84.733C177.915 84.7472 178.034 84.7702 178.144 84.8022V87.0661C178.019 87.0234 177.856 86.9897 177.654 86.9648C177.455 86.94 177.277 86.9276 177.121 86.9276C176.812 86.9276 176.533 86.9968 176.285 87.1353C176.04 87.2702 175.846 87.4602 175.704 87.7053C175.566 87.9467 175.496 88.2308 175.496 88.5575V93H172.892ZM182.428 93V82.0909H186.934C187.751 82.0909 188.456 82.2507 189.049 82.5703C189.645 82.8864 190.105 83.3285 190.428 83.8967C190.752 84.4613 190.913 85.1183 190.913 85.8675C190.913 86.6204 190.748 87.2791 190.418 87.8438C190.091 88.4048 189.624 88.8398 189.017 89.1488C188.41 89.4577 187.689 89.6122 186.854 89.6122H184.074V87.5348H186.364C186.762 87.5348 187.094 87.4656 187.36 87.3271C187.63 87.1886 187.834 86.995 187.973 86.7464C188.111 86.4943 188.181 86.2013 188.181 85.8675C188.181 85.5302 188.111 85.239 187.973 84.994C187.834 84.7454 187.63 84.5536 187.36 84.4187C187.09 84.2837 186.758 84.2163 186.364 84.2163H185.064V93H182.428ZM192.213 93V84.8182H194.743V86.3097H194.828C194.977 85.7699 195.221 85.3686 195.558 85.1058C195.895 84.8395 196.288 84.7063 196.735 84.7063C196.856 84.7063 196.98 84.7152 197.108 84.733C197.236 84.7472 197.355 84.7702 197.465 84.8022V87.0661C197.341 87.0234 197.177 86.9897 196.975 86.9648C196.776 86.94 196.598 86.9276 196.442 86.9276C196.133 86.9276 195.855 86.9968 195.606 87.1353C195.361 87.2702 195.167 87.4602 195.025 87.7053C194.887 87.9467 194.818 88.2308 194.818 88.5575V93H192.213ZM201.921 93.1545C201.061 93.1545 200.323 92.9787 199.705 92.6271C199.091 92.272 198.616 91.7784 198.283 91.1463C197.952 90.5107 197.787 89.7738 197.787 88.9357C197.787 88.0941 197.952 87.3572 198.283 86.7251C198.616 86.0895 199.091 85.5959 199.705 85.2443C200.323 84.8892 201.061 84.7116 201.921 84.7116C202.78 84.7116 203.517 84.8892 204.131 85.2443C204.749 85.5959 205.223 86.0895 205.554 86.7251C205.887 87.3572 206.054 88.0941 206.054 88.9357C206.054 89.7738 205.887 90.5107 205.554 91.1463C205.223 91.7784 204.749 92.272 204.131 92.6271C203.517 92.9787 202.78 93.1545 201.921 93.1545ZM201.937 91.1889C202.249 91.1889 202.514 91.093 202.73 90.9013C202.947 90.7095 203.112 90.4432 203.226 90.1023C203.343 89.7614 203.402 89.3672 203.402 88.9197C203.402 88.4652 203.343 88.0675 203.226 87.7266C203.112 87.3857 202.947 87.1193 202.73 86.9276C202.514 86.7358 202.249 86.6399 201.937 86.6399C201.614 86.6399 201.34 86.7358 201.116 86.9276C200.896 87.1193 200.728 87.3857 200.61 87.7266C200.497 88.0675 200.44 88.4652 200.44 88.9197C200.44 89.3672 200.497 89.7614 200.61 90.1023C200.728 90.4432 200.896 90.7095 201.116 90.9013C201.34 91.093 201.614 91.1889 201.937 91.1889ZM212.039 84.8182V86.7358H206.776V84.8182H212.039ZM207.873 93V84.4027C207.873 83.7706 207.992 83.2468 208.23 82.8313C208.468 82.4123 208.798 82.0998 209.221 81.8938C209.644 81.6843 210.132 81.5795 210.686 81.5795C211.048 81.5795 211.389 81.608 211.709 81.6648C212.032 81.718 212.271 81.766 212.428 81.8086L212.012 83.7156C211.916 83.6836 211.799 83.657 211.661 83.6357C211.526 83.6143 211.398 83.6037 211.277 83.6037C210.972 83.6037 210.762 83.6712 210.649 83.8061C210.535 83.9411 210.478 84.1257 210.478 84.3601V93H207.873ZM213.292 93V84.8182H215.897V93H213.292ZM214.597 83.8647C214.231 83.8647 213.917 83.744 213.654 83.5025C213.391 83.2575 213.26 82.9627 213.26 82.6183C213.26 82.2773 213.391 81.9862 213.654 81.7447C213.917 81.4996 214.231 81.3771 214.597 81.3771C214.966 81.3771 215.281 81.4996 215.54 81.7447C215.803 81.9862 215.934 82.2773 215.934 82.6183C215.934 82.9627 215.803 83.2575 215.54 83.5025C215.281 83.744 214.966 83.8647 214.597 83.8647ZM220.159 82.0909V93H217.555V82.0909H220.159ZM225.642 93.1545C224.786 93.1545 224.047 92.9858 223.426 92.6484C222.808 92.3075 222.332 91.8228 221.998 91.1942C221.668 90.5621 221.503 89.8111 221.503 88.9411C221.503 88.0959 221.67 87.3572 222.004 86.7251C222.338 86.0895 222.808 85.5959 223.415 85.2443C224.023 84.8892 224.738 84.7116 225.562 84.7116C226.144 84.7116 226.677 84.8022 227.16 84.9833C227.643 85.1644 228.06 85.4325 228.412 85.7876C228.763 86.1428 229.037 86.5813 229.232 87.1033C229.427 87.6218 229.525 88.2166 229.525 88.8878V89.5376H222.414V88.0249H227.101C227.098 87.7479 227.032 87.5011 226.904 87.2844C226.777 87.0678 226.601 86.8991 226.377 86.7784C226.157 86.6541 225.903 86.592 225.615 86.592C225.324 86.592 225.063 86.6577 224.832 86.7891C224.601 86.9169 224.419 87.0927 224.284 87.3164C224.149 87.5366 224.078 87.7869 224.071 88.0675V89.6069C224.071 89.9407 224.136 90.2337 224.268 90.4858C224.399 90.7344 224.585 90.9279 224.827 91.0664C225.068 91.2049 225.356 91.2741 225.69 91.2741C225.921 91.2741 226.13 91.2422 226.318 91.1783C226.507 91.1143 226.668 91.0202 226.803 90.896C226.938 90.7717 227.039 90.619 227.107 90.4379L229.498 90.5071C229.399 91.0433 229.181 91.5103 228.843 91.908C228.509 92.3022 228.071 92.6094 227.528 92.8295C226.984 93.0462 226.356 93.1545 225.642 93.1545Z" fill="black"/>
<circle cx="325" cy="89" r="28.75" fill="white" stroke="#F0F0F0" stroke-width="2.5"/>
<circle cx="50" cy="89" r="28.75" fill="white" stroke="#F0F0F0" stroke-width="2.5"/>
<path d="M331.5 82H327L326.286 81L324.5 78.5L322 82L317 81.5L318 85.5L314 88.5L318 91.5L317 95.5H322L326 99L328 95.5L331.5 97V92.5L335 89.5L331.5 85.5V83.5V82Z" stroke="#B3B3B3" stroke-width="2"/>
<path d="M55.5 85L46 95.5M46 85L55.5 95.5" stroke="black" stroke-width="2" stroke-linecap="round" stroke-linejoin="round"/>
<circle cx="325" cy="89" r="3" fill="white" stroke="#B3B3B3" stroke-width="2"/>
<path d="M226.162 267V256.818H228.007V261.496H228.131L232.104 256.818H234.356L230.418 261.387L234.39 267H232.173L229.135 262.635L228.007 263.967V267H226.162ZM238.328 267.149C237.566 267.149 236.911 266.982 236.364 266.647C235.821 266.312 235.401 265.85 235.106 265.26C234.815 264.667 234.669 263.984 234.669 263.212C234.669 262.436 234.818 261.752 235.116 261.158C235.415 260.562 235.836 260.098 236.379 259.766C236.926 259.432 237.572 259.264 238.318 259.264C238.938 259.264 239.486 259.379 239.964 259.607C240.444 259.833 240.827 260.152 241.112 260.567C241.397 260.978 241.559 261.458 241.599 262.009H239.879C239.809 261.641 239.644 261.334 239.382 261.089C239.123 260.84 238.777 260.716 238.343 260.716C237.975 260.716 237.652 260.815 237.373 261.014C237.095 261.21 236.878 261.491 236.722 261.859C236.57 262.227 236.493 262.668 236.493 263.182C236.493 263.702 236.57 264.15 236.722 264.524C236.875 264.895 237.088 265.182 237.363 265.384C237.642 265.583 237.968 265.683 238.343 265.683C238.608 265.683 238.845 265.633 239.054 265.533C239.266 265.431 239.443 265.283 239.586 265.091C239.728 264.899 239.826 264.665 239.879 264.39H241.599C241.556 264.93 241.397 265.409 241.122 265.827C240.847 266.241 240.472 266.566 239.998 266.801C239.524 267.033 238.968 267.149 238.328 267.149ZM245.275 267.154C244.791 267.154 244.355 267.068 243.967 266.896C243.583 266.72 243.278 266.461 243.052 266.12C242.83 265.779 242.719 265.358 242.719 264.857C242.719 264.426 242.799 264.07 242.958 263.788C243.117 263.507 243.334 263.281 243.609 263.112C243.884 262.943 244.194 262.816 244.539 262.729C244.887 262.64 245.246 262.575 245.618 262.536C246.065 262.489 246.428 262.448 246.706 262.411C246.985 262.371 247.187 262.312 247.313 262.232C247.442 262.149 247.507 262.022 247.507 261.849V261.82C247.507 261.445 247.396 261.155 247.174 260.95C246.952 260.744 246.632 260.641 246.214 260.641C245.773 260.641 245.424 260.737 245.165 260.93C244.91 261.122 244.738 261.349 244.648 261.611L242.968 261.372C243.1 260.908 243.319 260.52 243.624 260.209C243.929 259.894 244.302 259.659 244.743 259.503C245.183 259.344 245.671 259.264 246.204 259.264C246.572 259.264 246.938 259.307 247.303 259.393C247.667 259.48 248.001 259.622 248.302 259.821C248.604 260.017 248.846 260.283 249.028 260.621C249.214 260.96 249.306 261.382 249.306 261.889V267H247.576V265.951H247.517C247.407 266.163 247.253 266.362 247.054 266.548C246.859 266.73 246.612 266.877 246.314 266.99C246.019 267.099 245.672 267.154 245.275 267.154ZM245.742 265.832C246.103 265.832 246.416 265.76 246.681 265.618C246.947 265.472 247.15 265.28 247.293 265.041C247.439 264.803 247.512 264.542 247.512 264.261V263.361C247.455 263.407 247.359 263.45 247.223 263.49C247.091 263.53 246.942 263.565 246.776 263.594C246.61 263.624 246.446 263.651 246.284 263.674C246.121 263.697 245.98 263.717 245.861 263.734C245.593 263.77 245.352 263.83 245.14 263.913C244.928 263.996 244.761 264.112 244.638 264.261C244.516 264.406 244.454 264.595 244.454 264.827C244.454 265.159 244.575 265.409 244.817 265.578C245.059 265.747 245.367 265.832 245.742 265.832ZM252.916 256.818V267H251.116V256.818H252.916Z" fill="#9F9E9E"/>
<path d="M211.406 216.182V238H206.144V221.104H206.016L201.137 224.087V219.527L206.517 216.182H211.406ZM216.23 238V234.207L224.188 227.24C224.784 226.7 225.292 226.207 225.711 225.759C226.13 225.305 226.45 224.85 226.67 224.396C226.89 223.934 227 223.433 227 222.893C227 222.29 226.869 221.775 226.606 221.349C226.343 220.915 225.981 220.582 225.52 220.347C225.058 220.113 224.529 219.996 223.932 219.996C223.328 219.996 222.799 220.12 222.345 220.369C221.89 220.61 221.535 220.962 221.279 221.423C221.031 221.885 220.907 222.446 220.907 223.107H215.91C215.91 221.622 216.244 220.34 216.912 219.261C217.579 218.181 218.517 217.35 219.724 216.768C220.939 216.178 222.348 215.884 223.953 215.884C225.608 215.884 227.047 216.161 228.268 216.714C229.49 217.268 230.434 218.043 231.102 219.037C231.777 220.024 232.114 221.171 232.114 222.478C232.114 223.309 231.947 224.133 231.613 224.95C231.279 225.766 230.679 226.668 229.813 227.656C228.953 228.643 227.732 229.825 226.148 231.203L223.538 233.611V233.749H232.38V238H216.23ZM244.384 238.533C242.481 238.533 240.84 238.082 239.462 237.18C238.084 236.271 237.023 234.967 236.277 233.27C235.531 231.565 235.162 229.516 235.169 227.123C235.176 224.729 235.549 222.698 236.287 221.029C237.033 219.353 238.091 218.078 239.462 217.205C240.84 216.324 242.481 215.884 244.384 215.884C246.287 215.884 247.928 216.324 249.306 217.205C250.691 218.078 251.756 219.353 252.502 221.029C253.248 222.705 253.617 224.737 253.61 227.123C253.61 229.523 253.237 231.576 252.491 233.281C251.746 234.985 250.684 236.288 249.306 237.19C247.935 238.085 246.295 238.533 244.384 238.533ZM244.384 234.218C245.52 234.218 246.44 233.639 247.143 232.482C247.846 231.317 248.194 229.531 248.187 227.123C248.187 225.546 248.028 224.246 247.708 223.224C247.388 222.194 246.944 221.427 246.376 220.923C245.808 220.418 245.144 220.166 244.384 220.166C243.255 220.166 242.342 220.738 241.646 221.881C240.95 223.018 240.599 224.765 240.591 227.123C240.584 228.721 240.737 230.045 241.05 231.097C241.369 232.148 241.817 232.933 242.392 233.451C242.967 233.962 243.631 234.218 244.384 234.218ZM265.654 238.533C263.75 238.533 262.11 238.082 260.732 237.18C259.354 236.271 258.292 234.967 257.546 233.27C256.801 231.565 256.431 229.516 256.438 227.123C256.445 224.729 256.818 222.698 257.557 221.029C258.303 219.353 259.361 218.078 260.732 217.205C262.11 216.324 263.75 215.884 265.654 215.884C267.557 215.884 269.198 216.324 270.575 217.205C271.96 218.078 273.026 219.353 273.771 221.029C274.517 222.705 274.887 224.737 274.879 227.123C274.879 229.523 274.507 231.576 273.761 233.281C273.015 234.985 271.953 236.288 270.575 237.19C269.205 238.085 267.564 238.533 265.654 238.533ZM265.654 234.218C266.79 234.218 267.71 233.639 268.413 232.482C269.116 231.317 269.464 229.531 269.457 227.123C269.457 225.546 269.297 224.246 268.977 223.224C268.658 222.194 268.214 221.427 267.646 220.923C267.078 220.418 266.414 220.166 265.654 220.166C264.524 220.166 263.612 220.738 262.916 221.881C262.22 223.018 261.868 224.765 261.861 227.123C261.854 228.721 262.007 230.045 262.319 231.097C262.639 232.148 263.086 232.933 263.661 233.451C264.237 233.962 264.901 234.218 265.654 234.218Z" fill="black"/>
<path d="M38.0273 503.253C37.2435 503.253 36.5622 503.134 35.9834 502.897C35.4046 502.66 34.9489 502.328 34.6162 501.899C34.2881 501.466 34.1035 500.958 34.0625 500.375L34.0557 500.266H36.0449L36.0518 500.334C36.0791 500.58 36.1794 500.797 36.3525 500.983C36.5303 501.166 36.7673 501.309 37.0635 501.414C37.3597 501.519 37.6992 501.571 38.082 501.571C38.4512 501.571 38.7747 501.517 39.0527 501.407C39.3307 501.298 39.5472 501.147 39.7021 500.956C39.8617 500.76 39.9414 500.537 39.9414 500.286V500.279C39.9414 499.956 39.8092 499.696 39.5449 499.5C39.2852 499.304 38.8477 499.142 38.2324 499.015L37.1934 498.803C36.168 498.593 35.4229 498.249 34.958 497.771C34.4932 497.292 34.2607 496.679 34.2607 495.932V495.925C34.2607 495.314 34.4225 494.781 34.7461 494.325C35.0697 493.869 35.514 493.516 36.0791 493.266C36.6442 493.01 37.2913 492.883 38.0205 492.883C38.7861 492.883 39.4424 493.008 39.9893 493.259C40.5407 493.505 40.9714 493.844 41.2812 494.277C41.5911 494.706 41.7666 495.196 41.8076 495.747L41.8145 495.836H39.873L39.8594 495.754C39.8184 495.517 39.7181 495.31 39.5586 495.132C39.4036 494.954 39.194 494.815 38.9297 494.715C38.6699 494.61 38.3669 494.558 38.0205 494.558C37.6833 494.558 37.387 494.608 37.1318 494.708C36.8766 494.808 36.6784 494.95 36.5371 495.132C36.3958 495.31 36.3252 495.521 36.3252 495.768V495.774C36.3252 496.093 36.4528 496.355 36.708 496.561C36.9678 496.761 37.387 496.921 37.9658 497.039L39.0117 497.251C39.709 497.392 40.2764 497.584 40.7139 497.825C41.1559 498.067 41.4818 498.37 41.6914 498.734C41.901 499.099 42.0059 499.539 42.0059 500.054V500.061C42.0059 500.712 41.8441 501.277 41.5205 501.756C41.2015 502.23 40.7435 502.599 40.1465 502.863C39.554 503.123 38.8477 503.253 38.0273 503.253ZM45.7041 503.116C45.2301 503.116 44.8063 503.025 44.4326 502.843C44.0635 502.656 43.7741 502.394 43.5645 502.057C43.3548 501.715 43.25 501.316 43.25 500.86V500.847C43.25 500.396 43.3617 500.008 43.585 499.685C43.8128 499.361 44.1432 499.108 44.5762 498.926C45.0137 498.739 45.5446 498.627 46.1689 498.591L48.9717 498.42V499.637L46.4697 499.801C46.0413 499.824 45.7223 499.915 45.5127 500.074C45.3031 500.234 45.1982 500.45 45.1982 500.724V500.737C45.1982 501.024 45.3076 501.25 45.5264 501.414C45.7451 501.578 46.0277 501.66 46.374 501.66C46.6839 501.66 46.9596 501.599 47.2012 501.476C47.4427 501.353 47.6341 501.186 47.7754 500.977C47.9167 500.762 47.9873 500.523 47.9873 500.259V497.859C47.9873 497.531 47.8779 497.281 47.6592 497.107C47.445 496.93 47.1328 496.841 46.7227 496.841C46.3626 496.841 46.0687 496.902 45.8408 497.025C45.6175 497.144 45.4671 497.315 45.3896 497.538L45.376 497.565H43.5303L43.5371 497.504C43.5918 497.062 43.7581 496.677 44.0361 496.349C44.3187 496.021 44.6969 495.765 45.1709 495.583C45.6494 495.401 46.2031 495.31 46.832 495.31C47.4974 495.31 48.0625 495.412 48.5273 495.617C48.9922 495.818 49.3454 496.109 49.5869 496.492C49.833 496.87 49.9561 497.326 49.9561 497.859V503H47.9873V502.002H47.8643C47.7367 502.234 47.5658 502.435 47.3516 502.604C47.1419 502.768 46.8958 502.895 46.6133 502.986C46.3353 503.073 46.0322 503.116 45.7041 503.116ZM55.0352 503.027C54.1237 503.027 53.4674 502.868 53.0664 502.549C52.6654 502.225 52.4648 501.699 52.4648 500.97V496.978H51.3027V495.474H52.4648V493.676H54.4814V495.474H56.0332V496.978H54.4814V500.512C54.4814 500.849 54.5566 501.097 54.707 501.257C54.862 501.412 55.1081 501.489 55.4453 501.489C55.5729 501.489 55.6777 501.487 55.7598 501.482C55.8464 501.473 55.9375 501.464 56.0332 501.455V502.938C55.9102 502.961 55.762 502.982 55.5889 503C55.4157 503.018 55.2311 503.027 55.0352 503.027Z" fill="#B3B3B3"/>
<path d="M84.2021 503.253C83.4183 503.253 82.737 503.134 82.1582 502.897C81.5794 502.66 81.1237 502.328 80.791 501.899C80.4629 501.466 80.2783 500.958 80.2373 500.375L80.2305 500.266H82.2197L82.2266 500.334C82.2539 500.58 82.3542 500.797 82.5273 500.983C82.7051 501.166 82.9421 501.309 83.2383 501.414C83.5345 501.519 83.874 501.571 84.2568 501.571C84.626 501.571 84.9495 501.517 85.2275 501.407C85.5055 501.298 85.722 501.147 85.877 500.956C86.0365 500.76 86.1162 500.537 86.1162 500.286V500.279C86.1162 499.956 85.984 499.696 85.7197 499.5C85.46 499.304 85.0225 499.142 84.4072 499.015L83.3682 498.803C82.3428 498.593 81.5977 498.249 81.1328 497.771C80.668 497.292 80.4355 496.679 80.4355 495.932V495.925C80.4355 495.314 80.5973 494.781 80.9209 494.325C81.2445 493.869 81.6888 493.516 82.2539 493.266C82.819 493.01 83.4661 492.883 84.1953 492.883C84.9609 492.883 85.6172 493.008 86.1641 493.259C86.7155 493.505 87.1462 493.844 87.4561 494.277C87.766 494.706 87.9414 495.196 87.9824 495.747L87.9893 495.836H86.0479L86.0342 495.754C85.9932 495.517 85.8929 495.31 85.7334 495.132C85.5785 494.954 85.3688 494.815 85.1045 494.715C84.8447 494.61 84.5417 494.558 84.1953 494.558C83.8581 494.558 83.5618 494.608 83.3066 494.708C83.0514 494.808 82.8532 494.95 82.7119 495.132C82.5706 495.31 82.5 495.521 82.5 495.768V495.774C82.5 496.093 82.6276 496.355 82.8828 496.561C83.1426 496.761 83.5618 496.921 84.1406 497.039L85.1865 497.251C85.8838 497.392 86.4512 497.584 86.8887 497.825C87.3307 498.067 87.6566 498.37 87.8662 498.734C88.0758 499.099 88.1807 499.539 88.1807 500.054V500.061C88.1807 500.712 88.0189 501.277 87.6953 501.756C87.3763 502.23 86.9183 502.599 86.3213 502.863C85.7288 503.123 85.0225 503.253 84.2021 503.253ZM92.4258 503.157C91.8652 503.157 91.3936 503.048 91.0107 502.829C90.6325 502.61 90.3477 502.291 90.1562 501.872C89.9648 501.448 89.8691 500.938 89.8691 500.341V495.474H91.8652V499.883C91.8652 500.416 91.9701 500.819 92.1797 501.093C92.3939 501.366 92.738 501.503 93.2119 501.503C93.458 501.503 93.6745 501.464 93.8613 501.387C94.0527 501.305 94.2122 501.191 94.3398 501.045C94.4674 500.899 94.5632 500.724 94.627 500.519C94.6953 500.309 94.7295 500.076 94.7295 499.821V495.474H96.7256V503H94.7295V501.838H94.6064C94.4925 502.111 94.333 502.348 94.1279 502.549C93.9229 502.745 93.6768 502.895 93.3896 503C93.1025 503.105 92.7812 503.157 92.4258 503.157ZM98.7285 503V495.474H100.725V496.636H100.848C101.021 496.226 101.29 495.902 101.654 495.665C102.019 495.428 102.47 495.31 103.008 495.31C103.846 495.31 104.484 495.556 104.922 496.048C105.364 496.535 105.585 497.23 105.585 498.133V503H103.589V498.584C103.589 498.051 103.477 497.647 103.254 497.374C103.031 497.101 102.682 496.964 102.208 496.964C101.903 496.964 101.638 497.035 101.415 497.176C101.196 497.312 101.025 497.506 100.902 497.757C100.784 498.007 100.725 498.304 100.725 498.646V503H98.7285Z" fill="#B3B3B3"/>
<path d="M125.969 503V493.136H128.335L131.062 500.354H131.185L133.906 493.136H136.271V503H134.432V496.287H133.414L135.382 493.409L131.766 503H130.474L126.865 493.409L128.827 496.287H127.808V503H125.969ZM141.955 503.157C141.185 503.157 140.522 503.002 139.966 502.692C139.41 502.378 138.984 501.929 138.688 501.346C138.391 500.758 138.243 500.056 138.243 499.24V499.227C138.243 498.415 138.394 497.718 138.694 497.135C138.995 496.551 139.421 496.103 139.973 495.788C140.529 495.469 141.189 495.31 141.955 495.31C142.721 495.31 143.379 495.467 143.931 495.781C144.487 496.096 144.915 496.547 145.216 497.135C145.517 497.718 145.667 498.415 145.667 499.227V499.24C145.667 500.056 145.519 500.758 145.223 501.346C144.926 501.929 144.5 502.378 143.944 502.692C143.393 503.002 142.73 503.157 141.955 503.157ZM141.955 501.592C142.311 501.592 142.611 501.498 142.857 501.312C143.104 501.125 143.293 500.856 143.425 500.505C143.557 500.154 143.623 499.732 143.623 499.24V499.227C143.623 498.734 143.557 498.315 143.425 497.969C143.293 497.618 143.101 497.349 142.851 497.162C142.604 496.971 142.306 496.875 141.955 496.875C141.604 496.875 141.303 496.971 141.053 497.162C140.807 497.349 140.618 497.618 140.485 497.969C140.353 498.315 140.287 498.734 140.287 499.227V499.24C140.287 499.737 140.351 500.161 140.479 500.512C140.611 500.863 140.8 501.132 141.046 501.318C141.297 501.501 141.6 501.592 141.955 501.592ZM147.434 503V495.474H149.43V496.636H149.553C149.726 496.226 149.995 495.902 150.36 495.665C150.724 495.428 151.175 495.31 151.713 495.31C152.552 495.31 153.19 495.556 153.627 496.048C154.069 496.535 154.29 497.23 154.29 498.133V503H152.294V498.584C152.294 498.051 152.183 497.647 151.959 497.374C151.736 497.101 151.387 496.964 150.913 496.964C150.608 496.964 150.344 497.035 150.12 497.176C149.902 497.312 149.731 497.506 149.608 497.757C149.489 498.007 149.43 498.304 149.43 498.646V503H147.434Z" fill="#B3B3B3"/>
<path d="M178.724 503V494.838H175.764V493.136H183.748V494.838H180.788V503H178.724ZM187.139 503.157C186.578 503.157 186.106 503.048 185.724 502.829C185.345 502.61 185.061 502.291 184.869 501.872C184.678 501.448 184.582 500.938 184.582 500.341V495.474H186.578V499.883C186.578 500.416 186.683 500.819 186.893 501.093C187.107 501.366 187.451 501.503 187.925 501.503C188.171 501.503 188.387 501.464 188.574 501.387C188.766 501.305 188.925 501.191 189.053 501.045C189.18 500.899 189.276 500.724 189.34 500.519C189.408 500.309 189.442 500.076 189.442 499.821V495.474H191.438V503H189.442V501.838H189.319C189.205 502.111 189.046 502.348 188.841 502.549C188.636 502.745 188.39 502.895 188.103 503C187.815 503.105 187.494 503.157 187.139 503.157ZM196.75 503.157C195.989 503.157 195.333 503 194.781 502.686C194.234 502.367 193.813 501.915 193.517 501.332C193.22 500.749 193.072 500.054 193.072 499.247V499.24C193.072 498.443 193.218 497.75 193.51 497.162C193.806 496.574 194.223 496.118 194.761 495.795C195.303 495.471 195.939 495.31 196.668 495.31C197.402 495.31 198.035 495.467 198.568 495.781C199.102 496.096 199.512 496.535 199.799 497.101C200.086 497.666 200.229 498.329 200.229 499.09V499.712H194.07V498.461H199.272L198.336 499.644V498.844C198.336 498.393 198.265 498.017 198.124 497.716C197.987 497.415 197.796 497.189 197.55 497.039C197.308 496.884 197.026 496.807 196.702 496.807C196.383 496.807 196.098 496.886 195.848 497.046C195.602 497.201 195.406 497.431 195.26 497.736C195.118 498.037 195.048 498.406 195.048 498.844V499.65C195.048 500.074 195.118 500.437 195.26 500.737C195.401 501.038 195.602 501.268 195.861 501.428C196.121 501.587 196.431 501.667 196.791 501.667C197.083 501.667 197.331 501.624 197.536 501.537C197.741 501.451 197.905 501.35 198.028 501.236C198.156 501.118 198.243 501.011 198.288 500.915L198.309 500.874H200.168L200.154 500.942C200.095 501.179 199.988 501.428 199.833 501.688C199.678 501.943 199.464 502.182 199.19 502.405C198.922 502.629 198.584 502.811 198.179 502.952C197.778 503.089 197.301 503.157 196.75 503.157Z" fill="#B3B3B3"/>
<path d="M222.784 503L220.173 493.136H222.319L223.857 500.184H223.967L225.765 493.136H227.508L229.34 500.184H229.449L230.974 493.136H233.106L230.488 503H228.554L226.688 496.355H226.578L224.732 503H222.784ZM237.194 503.157C236.433 503.157 235.777 503 235.226 502.686C234.679 502.367 234.257 501.915 233.961 501.332C233.665 500.749 233.517 500.054 233.517 499.247V499.24C233.517 498.443 233.662 497.75 233.954 497.162C234.25 496.574 234.667 496.118 235.205 495.795C235.747 495.471 236.383 495.31 237.112 495.31C237.846 495.31 238.479 495.467 239.013 495.781C239.546 496.096 239.956 496.535 240.243 497.101C240.53 497.666 240.674 498.329 240.674 499.09V499.712H234.515V498.461H239.717L238.78 499.644V498.844C238.78 498.393 238.71 498.017 238.568 497.716C238.432 497.415 238.24 497.189 237.994 497.039C237.753 496.884 237.47 496.807 237.146 496.807C236.827 496.807 236.543 496.886 236.292 497.046C236.046 497.201 235.85 497.431 235.704 497.736C235.563 498.037 235.492 498.406 235.492 498.844V499.65C235.492 500.074 235.563 500.437 235.704 500.737C235.845 501.038 236.046 501.268 236.306 501.428C236.565 501.587 236.875 501.667 237.235 501.667C237.527 501.667 237.775 501.624 237.98 501.537C238.186 501.451 238.35 501.35 238.473 501.236C238.6 501.118 238.687 501.011 238.732 500.915L238.753 500.874H240.612L240.599 500.942C240.539 501.179 240.432 501.428 240.277 501.688C240.122 501.943 239.908 502.182 239.635 502.405C239.366 502.629 239.029 502.811 238.623 502.952C238.222 503.089 237.746 503.157 237.194 503.157ZM244.994 503.116C244.37 503.116 243.827 502.961 243.367 502.651C242.911 502.337 242.558 501.89 242.308 501.312C242.062 500.733 241.938 500.042 241.938 499.24V499.227C241.938 498.42 242.059 497.727 242.301 497.148C242.547 496.57 242.898 496.125 243.354 495.815C243.809 495.506 244.356 495.351 244.994 495.351C245.336 495.351 245.653 495.405 245.944 495.515C246.241 495.619 246.5 495.77 246.724 495.966C246.947 496.162 247.12 496.399 247.243 496.677H247.366V492.596H249.362V503H247.366V501.831H247.243C247.116 502.1 246.942 502.33 246.724 502.521C246.509 502.713 246.257 502.861 245.965 502.966C245.673 503.066 245.35 503.116 244.994 503.116ZM245.671 501.462C246.026 501.462 246.332 501.373 246.587 501.195C246.842 501.018 247.038 500.762 247.175 500.43C247.316 500.097 247.387 499.703 247.387 499.247V499.233C247.387 498.769 247.316 498.372 247.175 498.044C247.038 497.711 246.84 497.456 246.58 497.278C246.325 497.096 246.022 497.005 245.671 497.005C245.325 497.005 245.021 497.096 244.762 497.278C244.507 497.456 244.311 497.711 244.174 498.044C244.037 498.372 243.969 498.766 243.969 499.227V499.24C243.969 499.701 244.037 500.097 244.174 500.43C244.311 500.762 244.507 501.018 244.762 501.195C245.017 501.373 245.32 501.462 245.671 501.462Z" fill="#13090B"/>
<path d="M273.989 503V494.838H271.029V493.136H279.014V494.838H276.054V503H273.989ZM280.709 503V492.596H282.705V496.636H282.828C283.001 496.226 283.27 495.902 283.635 495.665C283.999 495.428 284.451 495.31 284.988 495.31C285.549 495.31 286.018 495.421 286.396 495.645C286.779 495.863 287.069 496.182 287.265 496.602C287.465 497.021 287.565 497.531 287.565 498.133V503H285.569V498.584C285.569 498.051 285.458 497.647 285.234 497.374C285.011 497.101 284.662 496.964 284.188 496.964C283.883 496.964 283.619 497.035 283.396 497.176C283.177 497.312 283.006 497.506 282.883 497.757C282.764 498.007 282.705 498.304 282.705 498.646V503H280.709ZM289.5 503V495.474H291.496V496.643H291.619C291.742 496.232 291.968 495.916 292.296 495.692C292.624 495.465 293.032 495.351 293.52 495.351C293.656 495.351 293.788 495.36 293.916 495.378C294.048 495.396 294.164 495.419 294.265 495.446V497.189C294.114 497.153 293.962 497.126 293.807 497.107C293.656 497.085 293.504 497.073 293.349 497.073C292.97 497.073 292.642 497.144 292.364 497.285C292.086 497.422 291.872 497.618 291.722 497.873C291.571 498.128 291.496 498.434 291.496 498.789V503H289.5Z" fill="#B3B3B3"/>
<path d="M322.454 503V493.136H328.914V494.838H324.519V497.483H328.531V499.117H324.519V503H322.454ZM330.623 503V495.474H332.619V496.643H332.742C332.865 496.232 333.091 495.916 333.419 495.692C333.747 495.465 334.155 495.351 334.643 495.351C334.779 495.351 334.911 495.36 335.039 495.378C335.171 495.396 335.287 495.419 335.388 495.446V497.189C335.237 497.153 335.085 497.126 334.93 497.107C334.779 497.085 334.627 497.073 334.472 497.073C334.093 497.073 333.765 497.144 333.487 497.285C333.209 497.422 332.995 497.618 332.845 497.873C332.694 498.128 332.619 498.434 332.619 498.789V503H330.623ZM336.734 503V495.474H338.73V503H336.734ZM337.739 494.318C337.434 494.318 337.17 494.211 336.946 493.997C336.723 493.778 336.611 493.516 336.611 493.211C336.611 492.901 336.723 492.639 336.946 492.425C337.17 492.206 337.434 492.097 337.739 492.097C338.049 492.097 338.313 492.206 338.532 492.425C338.751 492.639 338.86 492.901 338.86 493.211C338.86 493.516 338.751 493.778 338.532 493.997C338.313 494.211 338.049 494.318 337.739 494.318Z" fill="#B3B3B3"/>
<path d="M26 431.657C26 431.657 57.8 459.612 79 459.612C100.2 459.612 110.8 361.772 132 361.772C153.2 361.772 163.8 433.055 185 433.055C206.2 433.055 216.8 291.886 238 291.886C259.2 291.886 269.8 296.079 291 298.874C312.2 301.67 344 305.863 344 305.863" stroke="url(#paint0_linear_2_2)" stroke-width="3"/>
<g filter="url(#filter0_d_2_2)">
<path d="M238 304C234.818 304 231.766 302.736 229.516 300.486C227.265 298.237 226.001 295.185 226 292.003C225.999 288.821 227.262 285.769 229.512 283.518C231.761 281.267 234.812 280.002 237.994 280C241.176 279.998 244.229 281.261 246.48 283.509C248.731 285.758 249.998 288.809 250 291.991C250.002 295.173 248.741 298.226 246.493 300.478C244.245 302.73 241.194 303.997 238.012 304L238 304Z" fill="#DB6685"/>
<path d="M238 300.25C238 300.25 237.999 300.25 237.999 300.25C235.811 300.25 233.714 299.381 232.167 297.834C230.62 296.288 229.751 294.19 229.75 292.002C229.749 289.814 230.618 287.716 232.164 286.169C233.711 284.621 235.808 283.751 237.996 283.75C240.184 283.749 242.282 284.617 243.83 286.163C245.378 287.709 246.248 289.806 246.25 291.994C246.252 294.181 245.384 296.28 243.839 297.829C242.293 299.377 240.196 300.248 238.008 300.25C238.008 300.25 238.008 300.25 238.008 300.25L238 300.25Z" stroke="white" stroke-width="7.5"/>
</g>
</g>
<defs>
<filter id="filter0_d_2_2" x="222" y="280" width="32" height="32" filterUnits="userSpaceOnUse" color-interpolation-filters="sRGB">
<feFlood flood-opacity="0" result="BackgroundImageFix"/>
<feColorMatrix in="SourceAlpha" type="matrix" values="0 0 0 0 0 0 0 0 0 0 0 0 0 0 0 0 0 0 127 0" result="hardAlpha"/>
<feOffset dy="4"/>
<feGaussianBlur stdDeviation="2"/>
<feComposite in2="hardAlpha" operator="out"/>
<feColorMatrix type="matrix" values="0 0 0 0 0.894118 0 0 0 0 0.392157 0 0 0 0 0.509804 0 0 0 0.5 0"/>
<feBlend mode="normal" in2="BackgroundImageFix" result="effect1_dropShadow_2_2"/>
<feBlend mode="normal" in="SourceGraphic" in2="effect1_dropShadow_2_2" result="shape"/>
</filter>
<linearGradient id="paint0_linear_2_2" x1="80.801" y1="336.66" x2="265.063" y2="296.596" gradientUnits="userSpaceOnUse">
<stop stop-color="#E46482"/>
<stop offset="0.504876" stop-color="#13090B"/>
<stop offset="0.960382" stop-color="#E46482"/>
</linearGradient>
<clipPath id="clip0_2_2">
<rect width="375" height="812" fill="white"/>
</clipPath>
</defs>
</svg>
