<svg width="1280" height="832" viewBox="0 0 1280 832" fill="none" xmlns="http://www.w3.org/2000/svg">
<rect width="1280" height="832" fill="white"/>
<mask id="path-1-inside-1_9_17" fill="white">
<path d="M0 0H1280V147H0V0Z"/>
</mask>
<path d="M0 0H1280V147H0V0Z" fill="#FAFCFF"/>
<path d="M1280 146.5H0V147.5H1280V146.5Z" fill="#D3D3D3" mask="url(#path-1-inside-1_9_17)"/>
<path d="M50.6875 66.5664C50.6875 68.7409 50.0169 70.3945 48.6758 71.5273C47.3346 72.6471 45.7526 73.3698 43.9297 73.6953C42.1198 74.0078 40.2122 74.1641 38.207 74.1641H36.4492V81.0781C36.4492 81.8594 36.5339 82.4648 36.7031 82.8945C36.8724 83.3242 37.237 83.6497 37.7969 83.8711C38.3568 84.0924 39.2096 84.2031 40.3555 84.2031V86H27.0352V84.2031C28.168 84.2031 29.0013 84.0859 29.5352 83.8516C30.082 83.6172 30.4336 83.2852 30.5898 82.8555C30.7591 82.4258 30.8438 81.8333 30.8438 81.0781V64.3594C30.8438 63.6042 30.7656 63.0182 30.6094 62.6016C30.4531 62.1719 30.1016 61.8398 29.5547 61.6055C29.0078 61.3581 28.168 61.2344 27.0352 61.2344V59.3984L34.5938 59.2031C34.9844 59.1901 35.4076 59.1836 35.8633 59.1836C36.332 59.1706 36.7031 59.1641 36.9766 59.1641C37.25 59.151 37.6536 59.1445 38.1875 59.1445C38.8516 59.1445 39.3464 59.151 39.6719 59.1641C41.2214 59.2292 42.7122 59.3789 44.1445 59.6133C45.5768 59.8477 47.0221 60.5117 48.4805 61.6055C49.9518 62.6862 50.6875 64.3398 50.6875 66.5664ZM44.6719 66.6055C44.6719 64.4961 44.0534 63.0898 42.8164 62.3867C41.5924 61.6706 39.9779 61.3125 37.9727 61.3125C37.6081 61.3125 37.1003 61.3255 36.4492 61.3516V71.9961H38.2461C40.1602 71.9961 41.7096 71.6706 42.8945 71.0195C44.0794 70.3555 44.6719 68.8841 44.6719 66.6055ZM69.4961 72.4453C69.4961 73.2005 69.2617 73.7995 68.793 74.2422C68.3372 74.6719 67.7969 74.8867 67.1719 74.8867C66.4297 74.8867 65.7786 74.5221 65.2188 73.793C64.9583 73.4674 64.7435 73.2331 64.5742 73.0898C64.4049 72.9466 64.1641 72.875 63.8516 72.875C62.8359 72.875 62.0417 73.4284 61.4688 74.5352C60.9089 75.6289 60.6289 76.7682 60.6289 77.9531V81.3516C60.6289 82.4453 60.7656 83.194 61.0391 83.5977C61.3255 84.0013 62.0677 84.2031 63.2656 84.2031H64.3008V86H52.1719V84.2031H53.1875C54.2812 84.2031 54.9518 83.9948 55.1992 83.5781C55.4466 83.1615 55.5703 82.4193 55.5703 81.3516V75.6484C55.5703 74.776 55.4792 74.151 55.2969 73.7734C55.1276 73.3958 54.8151 73.1484 54.3594 73.0312C53.9036 72.901 53.1745 72.8359 52.1719 72.8359V71.0391L59.7891 69.3594C59.9844 70.0234 60.1667 71.4362 60.3359 73.5977C60.7005 72.8294 61.1758 72.1263 61.7617 71.4883C62.3607 70.8503 63.0247 70.3359 63.7539 69.9453C64.4961 69.5547 65.2513 69.3594 66.0195 69.3594C67.0872 69.3594 67.9336 69.6589 68.5586 70.2578C69.1836 70.8568 69.4961 71.5859 69.4961 72.4453ZM90.2773 77.9531C90.2773 79.724 89.8477 81.2669 88.9883 82.582C88.1289 83.8971 86.9635 84.9062 85.4922 85.6094C84.0339 86.2995 82.4323 86.6445 80.6875 86.6445C79.0469 86.6445 77.4909 86.3255 76.0195 85.6875C74.5612 85.0495 73.3633 84.0794 72.4258 82.7773C71.5013 81.4753 71.0391 79.8802 71.0391 77.9922C71.0391 75.1667 72.0026 73.0247 73.9297 71.5664C75.8568 70.0951 78.1484 69.3594 80.8047 69.3594C82.7839 69.3594 84.4896 69.75 85.9219 70.5312C87.3542 71.3125 88.4349 72.3607 89.1641 73.6758C89.9062 74.9909 90.2773 76.4167 90.2773 77.9531ZM84.8867 77.8359C84.8867 75.6224 84.5938 73.9557 84.0078 72.8359C83.4219 71.7161 82.2826 71.1562 80.5898 71.1562C79.5091 71.1562 78.6628 71.4036 78.0508 71.8984C77.4518 72.3802 77.0286 73.1354 76.7812 74.1641C76.5469 75.1797 76.4297 76.5013 76.4297 78.1289C76.4297 80.1341 76.6966 81.7552 77.2305 82.9922C77.7643 84.2292 78.9297 84.8477 80.7266 84.8477C81.9115 84.8477 82.8099 84.5091 83.4219 83.832C84.0469 83.1419 84.444 82.2956 84.6133 81.293C84.7956 80.2773 84.8867 79.125 84.8867 77.8359ZM101.977 61.7227C101.977 62.5039 101.697 63.1745 101.137 63.7344C100.59 64.2812 99.9258 64.5547 99.1445 64.5547C98.3763 64.5547 97.7057 64.2747 97.1328 63.7148C96.5729 63.1419 96.293 62.4779 96.293 61.7227C96.293 60.9414 96.5729 60.2708 97.1328 59.7109C97.6927 59.151 98.3633 58.8711 99.1445 58.8711C99.9388 58.8711 100.609 59.1445 101.156 59.6914C101.703 60.2383 101.977 60.9154 101.977 61.7227ZM101.332 86.4883C101.332 87.7773 101.28 88.8516 101.176 89.7109C101.072 90.5833 100.805 91.3841 100.375 92.1133C99.5677 93.5326 98.5521 94.4961 97.3281 95.0039C96.1042 95.5117 94.8802 95.7656 93.6562 95.7656C91.8333 95.7656 90.4792 95.4271 89.5938 94.75C88.7083 94.0729 88.2656 93.2786 88.2656 92.3672C88.2656 91.7292 88.5065 91.1953 88.9883 90.7656C89.4701 90.3359 90.0234 90.1211 90.6484 90.1211C91.3646 90.1211 91.8919 90.3359 92.2305 90.7656C92.582 91.2083 92.8685 91.7552 93.0898 92.4062C93.2852 92.875 93.4805 93.2201 93.6758 93.4414C93.8841 93.6758 94.1836 93.793 94.5742 93.793C95.0951 93.793 95.4792 93.6042 95.7266 93.2266C95.987 92.862 96.1432 92.3607 96.1953 91.7227C96.2604 91.0846 96.293 90.082 96.293 88.7148V75.1602C96.293 74.444 96.2148 73.9362 96.0586 73.6367C95.9154 73.3242 95.6224 73.1159 95.1797 73.0117C94.737 72.8945 94.0404 72.8359 93.0898 72.8359V71.0391L101.332 69.3594V86.4883ZM123.48 77.4062H111.469C111.482 77.6536 111.514 78.181 111.566 78.9883C111.632 79.7956 111.814 80.6224 112.113 81.4688C112.426 82.3151 112.953 83.0312 113.695 83.6172C114.451 84.1901 115.46 84.4766 116.723 84.4766C117.413 84.4766 118.246 84.3008 119.223 83.9492C120.199 83.5977 121.046 82.9206 121.762 81.918L123.285 82.9531C121.749 85.4141 119.307 86.6445 115.961 86.6445C114.464 86.6445 113.096 86.4297 111.859 86C110.635 85.5703 109.594 84.9714 108.734 84.2031C107.875 83.4349 107.217 82.5299 106.762 81.4883C106.306 80.4466 106.078 79.3268 106.078 78.1289C106.078 76.5534 106.456 75.0951 107.211 73.7539C107.979 72.4128 109.073 71.3451 110.492 70.5508C111.911 69.7565 113.533 69.3594 115.355 69.3594C117.139 69.3594 118.643 69.7435 119.867 70.5117C121.104 71.2799 122.016 72.276 122.602 73.5C123.188 74.724 123.48 76.026 123.48 77.4062ZM118.637 75.6094C118.637 72.6406 117.465 71.1562 115.121 71.1562C113.988 71.1562 113.116 71.5664 112.504 72.3867C111.905 73.207 111.573 74.2812 111.508 75.6094H118.637ZM143.5 82.0352C141.924 85.1081 139.392 86.6445 135.902 86.6445C134.275 86.6445 132.732 86.3125 131.273 85.6484C129.828 84.9844 128.663 84.0208 127.777 82.7578C126.905 81.4948 126.469 80.0169 126.469 78.3242C126.469 77.1523 126.703 76.0326 127.172 74.9648C127.654 73.8971 128.344 72.9336 129.242 72.0742C130.141 71.2148 131.202 70.5508 132.426 70.082C133.663 69.6003 134.984 69.3594 136.391 69.3594C138.188 69.3594 139.77 69.7174 141.137 70.4336C142.504 71.1367 143.188 72.1133 143.188 73.3633C143.188 73.9362 142.973 74.4245 142.543 74.8281C142.113 75.2318 141.618 75.4336 141.059 75.4336C140.525 75.4336 140.115 75.3099 139.828 75.0625C139.542 74.8151 139.353 74.5612 139.262 74.3008C139.171 74.0404 139.04 73.5781 138.871 72.9141C138.702 72.276 138.422 71.8268 138.031 71.5664C137.641 71.293 137.094 71.1562 136.391 71.1562C135.206 71.1562 134.151 71.599 133.227 72.4844C132.315 73.3568 131.859 74.9974 131.859 77.4062C131.859 78.6953 132.042 79.8802 132.406 80.9609C132.784 82.0417 133.37 82.901 134.164 83.5391C134.971 84.1641 135.954 84.4766 137.113 84.4766C138.402 84.4766 139.385 84.1576 140.062 83.5195C140.74 82.8815 141.339 82.1328 141.859 81.2734L143.5 82.0352ZM158.715 82.5234C158.012 83.9948 157.191 85.0495 156.254 85.6875C155.316 86.3255 154.216 86.6445 152.953 86.6445C151.417 86.6445 150.284 86.332 149.555 85.707C148.826 85.082 148.376 84.3854 148.207 83.6172C148.038 82.8359 147.953 81.9635 147.953 81V71.8008H145.004V70.0039C146.241 70.0039 147.315 69.7695 148.227 69.3008C149.138 68.832 149.854 68.2005 150.375 67.4062C150.909 66.612 151.247 65.7591 151.391 64.8477H152.992V70.0039H158.52V71.8008H152.992V81.1172C152.992 82.25 153.064 83.0703 153.207 83.5781C153.363 84.0729 153.734 84.3203 154.32 84.3203C154.945 84.3203 155.46 84.0794 155.863 83.5977C156.267 83.1029 156.658 82.4909 157.035 81.7617L158.715 82.5234ZM193.93 79.0078C193.93 80.4922 193.552 81.7096 192.797 82.6602C192.042 83.5977 191.085 84.3138 189.926 84.8086C188.767 85.2904 187.634 85.6094 186.527 85.7656C185.421 85.9219 184.353 86 183.324 86H170.043V84.2031C171.176 84.2031 172.009 84.0859 172.543 83.8516C173.09 83.6172 173.441 83.2852 173.598 82.8555C173.767 82.4258 173.852 81.8333 173.852 81.0781V64.3594C173.852 63.1875 173.611 62.3737 173.129 61.918C172.647 61.4622 171.618 61.2344 170.043 61.2344V59.3984C171.931 59.3594 173.728 59.3203 175.434 59.2812C177.139 59.2422 178.539 59.2161 179.633 59.2031C180.74 59.1771 181.514 59.1641 181.957 59.1641H182.68C184.034 59.1641 185.447 59.3073 186.918 59.5938C188.402 59.8672 189.75 60.4987 190.961 61.4883C192.185 62.4779 192.797 63.9036 192.797 65.7656C192.797 67.1589 192.302 68.3568 191.312 69.3594C190.323 70.362 188.702 71.1888 186.449 71.8398C187.986 72.1133 189.32 72.5755 190.453 73.2266C191.599 73.8646 192.465 74.6784 193.051 75.668C193.637 76.6576 193.93 77.7708 193.93 79.0078ZM187.211 65.9219C187.211 65.0104 186.99 64.2161 186.547 63.5391C186.117 62.849 185.473 62.3151 184.613 61.9375C183.767 61.5469 182.725 61.3516 181.488 61.3516H179.438V70.8438H181.039C183.135 70.8438 184.685 70.401 185.688 69.5156C186.703 68.6302 187.211 67.4323 187.211 65.9219ZM187.934 78.6758C187.934 76.8789 187.465 75.4857 186.527 74.4961C185.603 73.4935 184.294 72.9922 182.602 72.9922H179.438V79.3594V79.8867C179.438 80.8503 179.496 81.6055 179.613 82.1523C179.73 82.6862 180.023 83.1029 180.492 83.4023C180.961 83.6888 181.703 83.832 182.719 83.832C184.073 83.832 185.277 83.4219 186.332 82.6016C187.4 81.7812 187.934 80.4727 187.934 78.6758ZM202.523 83.5977C202.523 84.457 202.224 85.1797 201.625 85.7656C201.026 86.3516 200.303 86.6445 199.457 86.6445C198.624 86.6445 197.908 86.3516 197.309 85.7656C196.71 85.1797 196.41 84.457 196.41 83.5977C196.41 82.7383 196.703 82.0091 197.289 81.4102C197.875 80.8112 198.598 80.5117 199.457 80.5117C200.316 80.5117 201.039 80.8112 201.625 81.4102C202.224 81.9961 202.523 82.7253 202.523 83.5977ZM219.301 86H205.863V84.2031C206.983 84.2031 207.829 84.099 208.402 83.8906C208.975 83.6693 209.346 83.3438 209.516 82.9141C209.698 82.4844 209.789 81.8724 209.789 81.0781V64.4375C209.789 63.2917 209.548 62.4844 209.066 62.0156C208.598 61.5469 207.53 61.3125 205.863 61.3125V59.5156H219.301V61.3125C218.181 61.3125 217.335 61.4232 216.762 61.6445C216.189 61.8659 215.811 62.1914 215.629 62.6211C215.46 63.0378 215.375 63.6432 215.375 64.4375V81.0781C215.375 81.8333 215.46 82.4258 215.629 82.8555C215.798 83.2852 216.156 83.6172 216.703 83.8516C217.263 84.0859 218.129 84.2031 219.301 84.2031V86ZM228.773 83.5977C228.773 84.457 228.474 85.1797 227.875 85.7656C227.276 86.3516 226.553 86.6445 225.707 86.6445C224.874 86.6445 224.158 86.3516 223.559 85.7656C222.96 85.1797 222.66 84.457 222.66 83.5977C222.66 82.7383 222.953 82.0091 223.539 81.4102C224.125 80.8112 224.848 80.5117 225.707 80.5117C226.566 80.5117 227.289 80.8112 227.875 81.4102C228.474 81.9961 228.773 82.7253 228.773 83.5977ZM256.078 77.1523L255.902 86H232.309V84.2031C233.936 84.2031 234.984 83.9688 235.453 83.5C235.922 83.0312 236.156 82.224 236.156 81.0781V64.4375C236.156 63.6693 236.078 63.0768 235.922 62.6602C235.766 62.2305 235.401 61.8984 234.828 61.6641C234.268 61.4297 233.428 61.3125 232.309 61.3125V59.5156H245.629V61.3125C244.522 61.3125 243.682 61.4232 243.109 61.6445C242.549 61.8659 242.178 62.1914 241.996 62.6211C241.827 63.0378 241.742 63.6432 241.742 64.4375V79.6719C241.742 80.8698 241.801 81.7292 241.918 82.25C242.035 82.7708 242.354 83.168 242.875 83.4414C243.396 83.7018 244.249 83.832 245.434 83.832C246.931 83.832 248.24 83.7214 249.359 83.5C250.492 83.2656 251.534 82.6602 252.484 81.6836C253.448 80.694 254.047 79.1836 254.281 77.1523H256.078ZM265.883 83.5977C265.883 84.457 265.583 85.1797 264.984 85.7656C264.385 86.3516 263.663 86.6445 262.816 86.6445C261.983 86.6445 261.267 86.3516 260.668 85.7656C260.069 85.1797 259.77 84.457 259.77 83.5977C259.77 82.7383 260.062 82.0091 260.648 81.4102C261.234 80.8112 261.957 80.5117 262.816 80.5117C263.676 80.5117 264.398 80.8112 264.984 81.4102C265.583 81.9961 265.883 82.7253 265.883 83.5977ZM293.188 77.1523L293.012 86H269.418V84.2031C271.046 84.2031 272.094 83.9688 272.562 83.5C273.031 83.0312 273.266 82.224 273.266 81.0781V64.4375C273.266 63.6693 273.188 63.0768 273.031 62.6602C272.875 62.2305 272.51 61.8984 271.938 61.6641C271.378 61.4297 270.538 61.3125 269.418 61.3125V59.5156H282.738V61.3125C281.632 61.3125 280.792 61.4232 280.219 61.6445C279.659 61.8659 279.288 62.1914 279.105 62.6211C278.936 63.0378 278.852 63.6432 278.852 64.4375V79.6719C278.852 80.8698 278.91 81.7292 279.027 82.25C279.145 82.7708 279.464 83.168 279.984 83.4414C280.505 83.7018 281.358 83.832 282.543 83.832C284.04 83.832 285.349 83.7214 286.469 83.5C287.602 83.2656 288.643 82.6602 289.594 81.6836C290.557 80.694 291.156 79.1836 291.391 77.1523H293.188ZM302.992 83.5977C302.992 84.457 302.693 85.1797 302.094 85.7656C301.495 86.3516 300.772 86.6445 299.926 86.6445C299.092 86.6445 298.376 86.3516 297.777 85.7656C297.178 85.1797 296.879 84.457 296.879 83.5977C296.879 82.7383 297.172 82.0091 297.758 81.4102C298.344 80.8112 299.066 80.5117 299.926 80.5117C300.785 80.5117 301.508 80.8112 302.094 81.4102C302.693 81.9961 302.992 82.7253 302.992 83.5977Z" fill="black"/>
<g filter="url(#filter0_d_9_17)">
<rect x="249.5" y="435.5" width="780" height="88" rx="19.5" fill="#FFFEFE" stroke="#E9E9E9"/>
<circle cx="990" cy="481" r="20" fill="black"/>
<g clip-path="url(#clip0_9_17)">
<g clip-path="url(#clip1_9_17)">
<path d="M991.325 470.104C990.973 469.753 990.497 469.555 990 469.555C989.503 469.555 989.027 469.753 988.675 470.104L981.601 477.174C981.249 477.526 981.052 478.003 981.052 478.5C981.052 478.997 981.249 479.475 981.601 479.826C981.953 480.178 982.43 480.376 982.927 480.376C983.425 480.376 983.902 480.178 984.254 479.826L988.125 475.956V490.375C988.125 490.872 988.323 491.349 988.674 491.701C989.026 492.052 989.503 492.25 990 492.25C990.497 492.25 990.974 492.052 991.326 491.701C991.677 491.349 991.875 490.872 991.875 490.375V475.956L995.745 479.826C995.919 480 996.126 480.139 996.353 480.233C996.581 480.327 996.825 480.376 997.071 480.376C997.318 480.376 997.561 480.327 997.789 480.233C998.017 480.139 998.223 480 998.397 479.826C998.572 479.652 998.71 479.445 998.804 479.218C998.898 478.99 998.947 478.746 998.947 478.5C998.947 478.254 998.898 478.01 998.804 477.782C998.71 477.555 998.572 477.348 998.397 477.174L991.325 470.104Z" fill="white"/>
</g>
<circle cx="990" cy="481" r="20" fill="#4088FF"/>
<g clip-path="url(#clip2_9_17)">
<path d="M991.325 470.104C990.973 469.753 990.497 469.555 990 469.555C989.503 469.555 989.027 469.753 988.675 470.104L981.601 477.174C981.249 477.526 981.052 478.003 981.052 478.5C981.052 478.997 981.249 479.475 981.601 479.826C981.953 480.178 982.43 480.376 982.927 480.376C983.425 480.376 983.902 480.178 984.254 479.826L988.125 475.956V490.375C988.125 490.872 988.323 491.349 988.674 491.701C989.026 492.052 989.503 492.25 990 492.25C990.497 492.25 990.974 492.052 991.326 491.701C991.677 491.349 991.875 490.872 991.875 490.375V475.956L995.745 479.826C995.919 480 996.126 480.139 996.353 480.233C996.581 480.327 996.825 480.376 997.071 480.376C997.318 480.376 997.561 480.327 997.789 480.233C998.017 480.139 998.223 480 998.397 479.826C998.572 479.652 998.71 479.445 998.804 479.218C998.898 478.99 998.947 478.746 998.947 478.5C998.947 478.254 998.898 478.01 998.804 477.782C998.71 477.555 998.572 477.348 998.397 477.174L991.325 470.104Z" fill="white"/>
</g>
</g>
<path d="M288.828 491V488.141H295.422C296.984 488.141 298.177 487.828 299 487.203C299.823 486.578 300.234 485.667 300.234 484.469V484.438C300.234 483.625 300.042 482.948 299.656 482.406C299.281 481.865 298.719 481.458 297.969 481.188C297.219 480.906 296.286 480.766 295.172 480.766H288.828V478.062H294.469C296.01 478.062 297.188 477.76 298 477.156C298.812 476.552 299.219 475.688 299.219 474.562V474.531C299.219 473.49 298.87 472.693 298.172 472.141C297.484 471.589 296.505 471.312 295.234 471.312H288.828V468.453H296.078C297.422 468.453 298.589 468.688 299.578 469.156C300.578 469.615 301.349 470.271 301.891 471.125C302.443 471.969 302.719 472.958 302.719 474.094V474.125C302.719 474.917 302.536 475.667 302.172 476.375C301.807 477.083 301.307 477.677 300.672 478.156C300.047 478.635 299.333 478.932 298.531 479.047V479.109C299.604 479.214 300.536 479.516 301.328 480.016C302.13 480.505 302.745 481.146 303.172 481.938C303.609 482.719 303.828 483.609 303.828 484.609V484.641C303.828 485.964 303.516 487.099 302.891 488.047C302.276 488.995 301.396 489.724 300.25 490.234C299.104 490.745 297.729 491 296.125 491H288.828ZM287.078 491V468.453H290.578V491H287.078ZM313.438 491.328C311.833 491.328 310.448 490.984 309.281 490.297C308.125 489.599 307.234 488.615 306.609 487.344C305.995 486.062 305.688 484.557 305.688 482.828V482.812C305.688 481.104 306 479.609 306.625 478.328C307.25 477.036 308.13 476.036 309.266 475.328C310.401 474.609 311.734 474.25 313.266 474.25C314.807 474.25 316.13 474.594 317.234 475.281C318.349 475.958 319.208 476.922 319.812 478.172C320.417 479.411 320.719 480.854 320.719 482.5V483.641H307.359V481.25H319.078L317.406 483.484V482.172C317.406 481.016 317.229 480.057 316.875 479.297C316.531 478.526 316.047 477.953 315.422 477.578C314.807 477.203 314.094 477.016 313.281 477.016C312.479 477.016 311.76 477.214 311.125 477.609C310.49 478.005 309.99 478.589 309.625 479.359C309.26 480.12 309.078 481.057 309.078 482.172V483.484C309.078 484.547 309.255 485.458 309.609 486.219C309.974 486.969 310.49 487.547 311.156 487.953C311.823 488.349 312.609 488.547 313.516 488.547C314.182 488.547 314.771 488.448 315.281 488.25C315.792 488.042 316.214 487.771 316.547 487.438C316.891 487.094 317.13 486.714 317.266 486.297L317.312 486.172H320.531L320.5 486.344C320.365 486.99 320.109 487.609 319.734 488.203C319.359 488.797 318.87 489.333 318.266 489.812C317.672 490.281 316.969 490.651 316.156 490.922C315.344 491.193 314.438 491.328 313.438 491.328ZM330.547 496.797C329.141 496.797 327.911 496.599 326.859 496.203C325.818 495.807 324.979 495.271 324.344 494.594C323.708 493.917 323.307 493.161 323.141 492.328L323.109 492.188H326.484L326.531 492.312C326.76 492.833 327.219 493.255 327.906 493.578C328.604 493.911 329.479 494.078 330.531 494.078C331.865 494.078 332.891 493.74 333.609 493.062C334.328 492.396 334.688 491.495 334.688 490.359V488.094H334.609C334.297 488.688 333.885 489.203 333.375 489.641C332.875 490.078 332.292 490.417 331.625 490.656C330.958 490.896 330.229 491.016 329.438 491.016C328.062 491.016 326.859 490.677 325.828 490C324.797 489.312 324 488.344 323.438 487.094C322.875 485.844 322.594 484.365 322.594 482.656V482.641C322.594 480.922 322.88 479.438 323.453 478.188C324.026 476.927 324.828 475.958 325.859 475.281C326.901 474.594 328.115 474.25 329.5 474.25C330.281 474.25 330.995 474.38 331.641 474.641C332.297 474.901 332.875 475.266 333.375 475.734C333.875 476.193 334.286 476.734 334.609 477.359H334.688V474.562H338.078V490.547C338.078 491.797 337.771 492.891 337.156 493.828C336.552 494.766 335.682 495.495 334.547 496.016C333.422 496.536 332.089 496.797 330.547 496.797ZM330.391 488.266C331.255 488.266 332.005 488.036 332.641 487.578C333.286 487.12 333.786 486.474 334.141 485.641C334.505 484.807 334.688 483.828 334.688 482.703V482.688C334.688 481.562 334.505 480.589 334.141 479.766C333.786 478.932 333.286 478.292 332.641 477.844C331.995 477.385 331.245 477.156 330.391 477.156C329.505 477.156 328.734 477.38 328.078 477.828C327.432 478.276 326.932 478.917 326.578 479.75C326.224 480.573 326.047 481.547 326.047 482.672V482.688C326.047 483.844 326.224 484.839 326.578 485.672C326.932 486.495 327.432 487.135 328.078 487.594C328.734 488.042 329.505 488.266 330.391 488.266ZM341.547 491V474.562H344.953V491H341.547ZM343.25 472.031C342.708 472.031 342.245 471.844 341.859 471.469C341.474 471.083 341.281 470.625 341.281 470.094C341.281 469.542 341.474 469.078 341.859 468.703C342.245 468.328 342.708 468.141 343.25 468.141C343.802 468.141 344.266 468.328 344.641 468.703C345.026 469.078 345.219 469.542 345.219 470.094C345.219 470.625 345.026 471.083 344.641 471.469C344.266 471.844 343.802 472.031 343.25 472.031ZM348.406 491V474.562H351.812V477.047H351.875C352.312 476.214 352.953 475.542 353.797 475.031C354.641 474.51 355.682 474.25 356.922 474.25C358.724 474.25 360.12 474.797 361.109 475.891C362.099 476.974 362.594 478.464 362.594 480.359V491H359.203V481.016C359.203 479.776 358.911 478.823 358.328 478.156C357.755 477.49 356.885 477.156 355.719 477.156C354.927 477.156 354.234 477.333 353.641 477.688C353.057 478.042 352.604 478.536 352.281 479.172C351.969 479.807 351.812 480.557 351.812 481.422V491H348.406ZM371.062 491L379.266 468.453H382.109V472.188H381.125L374.75 491H371.062ZM375.047 484.906L376.062 482.094H386.25L387.266 484.906H375.047ZM387.562 491L381.203 472.188V468.453H383.062L391.25 491H387.562ZM393.312 491V474.562H396.719V477.047H396.781C397.219 476.214 397.859 475.542 398.703 475.031C399.547 474.51 400.589 474.25 401.828 474.25C403.63 474.25 405.026 474.797 406.016 475.891C407.005 476.974 407.5 478.464 407.5 480.359V491H404.109V481.016C404.109 479.776 403.818 478.823 403.234 478.156C402.661 477.49 401.792 477.156 400.625 477.156C399.833 477.156 399.141 477.333 398.547 477.688C397.964 478.042 397.51 478.536 397.188 479.172C396.875 479.807 396.719 480.557 396.719 481.422V491H393.312ZM415.594 491.297C414.5 491.297 413.542 491.089 412.719 490.672C411.896 490.255 411.255 489.672 410.797 488.922C410.339 488.172 410.109 487.307 410.109 486.328V486.297C410.109 485.339 410.349 484.516 410.828 483.828C411.307 483.13 412 482.578 412.906 482.172C413.823 481.766 414.927 481.526 416.219 481.453L422.438 481.078V483.453L416.672 483.812C415.661 483.875 414.88 484.12 414.328 484.547C413.786 484.964 413.516 485.521 413.516 486.219V486.25C413.516 486.969 413.786 487.536 414.328 487.953C414.88 488.37 415.609 488.578 416.516 488.578C417.307 488.578 418.016 488.417 418.641 488.094C419.276 487.771 419.776 487.328 420.141 486.766C420.505 486.193 420.688 485.552 420.688 484.844V479.953C420.688 479.047 420.406 478.339 419.844 477.828C419.281 477.307 418.474 477.047 417.422 477.047C416.453 477.047 415.672 477.255 415.078 477.672C414.495 478.089 414.13 478.625 413.984 479.281L413.953 479.422H410.766L410.781 479.25C410.865 478.302 411.182 477.453 411.734 476.703C412.286 475.943 413.052 475.344 414.031 474.906C415.01 474.469 416.172 474.25 417.516 474.25C418.859 474.25 420.021 474.474 421 474.922C421.979 475.37 422.74 476 423.281 476.812C423.823 477.625 424.094 478.578 424.094 479.672V491H420.688V488.406H420.625C420.302 489 419.885 489.516 419.375 489.953C418.865 490.38 418.286 490.714 417.641 490.953C417.005 491.182 416.323 491.297 415.594 491.297ZM427.484 491V468.453H430.875V491H427.484ZM436.297 496.484C435.974 496.484 435.651 496.469 435.328 496.438C435.005 496.406 434.74 496.37 434.531 496.328V493.688C434.656 493.708 434.812 493.729 435 493.75C435.198 493.781 435.411 493.797 435.641 493.797C436.443 493.797 437.078 493.661 437.547 493.391C438.026 493.12 438.401 492.589 438.672 491.797L438.953 491.016L432.969 474.562H436.641L441 488.672L440.406 487.938H441.234L440.641 488.672L445.016 474.562H448.594L442.469 491.75C442.062 492.885 441.583 493.802 441.031 494.5C440.49 495.198 439.833 495.703 439.062 496.016C438.302 496.328 437.38 496.484 436.297 496.484ZM456.688 491.328C455.312 491.328 454.13 491.12 453.141 490.703C452.161 490.276 451.391 489.688 450.828 488.938C450.266 488.177 449.927 487.297 449.812 486.297L449.797 486.156H453.141L453.172 486.312C453.339 487.062 453.708 487.651 454.281 488.078C454.854 488.495 455.656 488.703 456.688 488.703C457.375 488.703 457.958 488.62 458.438 488.453C458.917 488.276 459.286 488.026 459.547 487.703C459.807 487.38 459.938 486.995 459.938 486.547V486.531C459.938 486 459.766 485.573 459.422 485.25C459.078 484.927 458.464 484.656 457.578 484.438L454.891 483.828C453.849 483.589 452.979 483.26 452.281 482.844C451.594 482.427 451.078 481.917 450.734 481.312C450.391 480.708 450.219 480.01 450.219 479.219V479.203C450.219 478.214 450.484 477.349 451.016 476.609C451.547 475.859 452.292 475.281 453.25 474.875C454.208 474.458 455.318 474.25 456.578 474.25C457.87 474.25 458.984 474.469 459.922 474.906C460.859 475.344 461.589 475.943 462.109 476.703C462.641 477.453 462.932 478.292 462.984 479.219V479.406H459.812L459.797 479.297C459.703 478.578 459.38 477.995 458.828 477.547C458.276 477.089 457.526 476.859 456.578 476.859C455.974 476.859 455.448 476.948 455 477.125C454.552 477.302 454.208 477.557 453.969 477.891C453.729 478.214 453.609 478.594 453.609 479.031V479.047C453.609 479.38 453.688 479.682 453.844 479.953C454.01 480.224 454.276 480.458 454.641 480.656C455.005 480.854 455.474 481.021 456.047 481.156L458.734 481.781C460.411 482.167 461.599 482.714 462.297 483.422C463.005 484.12 463.359 485.062 463.359 486.25V486.266C463.359 487.266 463.073 488.146 462.5 488.906C461.927 489.667 461.135 490.26 460.125 490.688C459.125 491.115 457.979 491.328 456.688 491.328ZM466.109 491V474.562H469.516V491H466.109ZM467.812 472.031C467.271 472.031 466.807 471.844 466.422 471.469C466.036 471.083 465.844 470.625 465.844 470.094C465.844 469.542 466.036 469.078 466.422 468.703C466.807 468.328 467.271 468.141 467.812 468.141C468.365 468.141 468.828 468.328 469.203 468.703C469.589 469.078 469.781 469.542 469.781 470.094C469.781 470.625 469.589 471.083 469.203 471.469C468.828 471.844 468.365 472.031 467.812 472.031ZM479.156 491.328C477.781 491.328 476.599 491.12 475.609 490.703C474.63 490.276 473.859 489.688 473.297 488.938C472.734 488.177 472.396 487.297 472.281 486.297L472.266 486.156H475.609L475.641 486.312C475.807 487.062 476.177 487.651 476.75 488.078C477.323 488.495 478.125 488.703 479.156 488.703C479.844 488.703 480.427 488.62 480.906 488.453C481.385 488.276 481.755 488.026 482.016 487.703C482.276 487.38 482.406 486.995 482.406 486.547V486.531C482.406 486 482.234 485.573 481.891 485.25C481.547 484.927 480.932 484.656 480.047 484.438L477.359 483.828C476.318 483.589 475.448 483.26 474.75 482.844C474.062 482.427 473.547 481.917 473.203 481.312C472.859 480.708 472.688 480.01 472.688 479.219V479.203C472.688 478.214 472.953 477.349 473.484 476.609C474.016 475.859 474.76 475.281 475.719 474.875C476.677 474.458 477.786 474.25 479.047 474.25C480.339 474.25 481.453 474.469 482.391 474.906C483.328 475.344 484.057 475.943 484.578 476.703C485.109 477.453 485.401 478.292 485.453 479.219V479.406H482.281L482.266 479.297C482.172 478.578 481.849 477.995 481.297 477.547C480.745 477.089 479.995 476.859 479.047 476.859C478.443 476.859 477.917 476.948 477.469 477.125C477.021 477.302 476.677 477.557 476.438 477.891C476.198 478.214 476.078 478.594 476.078 479.031V479.047C476.078 479.38 476.156 479.682 476.312 479.953C476.479 480.224 476.745 480.458 477.109 480.656C477.474 480.854 477.943 481.021 478.516 481.156L481.203 481.781C482.88 482.167 484.068 482.714 484.766 483.422C485.474 484.12 485.828 485.062 485.828 486.25V486.266C485.828 487.266 485.542 488.146 484.969 488.906C484.396 489.667 483.604 490.26 482.594 490.688C481.594 491.115 480.448 491.328 479.156 491.328ZM495.328 491V468.453H498.828V477.984H510.391V468.453H513.906V491H510.391V481.016H498.828V491H495.328ZM524.688 491.328C523.083 491.328 521.698 490.984 520.531 490.297C519.375 489.599 518.484 488.615 517.859 487.344C517.245 486.062 516.938 484.557 516.938 482.828V482.812C516.938 481.104 517.25 479.609 517.875 478.328C518.5 477.036 519.38 476.036 520.516 475.328C521.651 474.609 522.984 474.25 524.516 474.25C526.057 474.25 527.38 474.594 528.484 475.281C529.599 475.958 530.458 476.922 531.062 478.172C531.667 479.411 531.969 480.854 531.969 482.5V483.641H518.609V481.25H530.328L528.656 483.484V482.172C528.656 481.016 528.479 480.057 528.125 479.297C527.781 478.526 527.297 477.953 526.672 477.578C526.057 477.203 525.344 477.016 524.531 477.016C523.729 477.016 523.01 477.214 522.375 477.609C521.74 478.005 521.24 478.589 520.875 479.359C520.51 480.12 520.328 481.057 520.328 482.172V483.484C520.328 484.547 520.505 485.458 520.859 486.219C521.224 486.969 521.74 487.547 522.406 487.953C523.073 488.349 523.859 488.547 524.766 488.547C525.432 488.547 526.021 488.448 526.531 488.25C527.042 488.042 527.464 487.771 527.797 487.438C528.141 487.094 528.38 486.714 528.516 486.297L528.562 486.172H531.781L531.75 486.344C531.615 486.99 531.359 487.609 530.984 488.203C530.609 488.797 530.12 489.333 529.516 489.812C528.922 490.281 528.219 490.651 527.406 490.922C526.594 491.193 525.688 491.328 524.688 491.328ZM534.562 491V474.562H537.969V477.375H538.031C538.292 476.406 538.755 475.646 539.422 475.094C540.089 474.531 540.891 474.25 541.828 474.25C542.078 474.25 542.302 474.266 542.5 474.297C542.708 474.318 542.875 474.344 543 474.375V477.516C542.865 477.464 542.661 477.422 542.391 477.391C542.12 477.349 541.818 477.328 541.484 477.328C540.766 477.328 540.141 477.484 539.609 477.797C539.078 478.099 538.672 478.542 538.391 479.125C538.109 479.698 537.969 480.391 537.969 481.203V491H534.562ZM551.438 491.328C549.833 491.328 548.448 490.984 547.281 490.297C546.125 489.599 545.234 488.615 544.609 487.344C543.995 486.062 543.688 484.557 543.688 482.828V482.812C543.688 481.104 544 479.609 544.625 478.328C545.25 477.036 546.13 476.036 547.266 475.328C548.401 474.609 549.734 474.25 551.266 474.25C552.807 474.25 554.13 474.594 555.234 475.281C556.349 475.958 557.208 476.922 557.812 478.172C558.417 479.411 558.719 480.854 558.719 482.5V483.641H545.359V481.25H557.078L555.406 483.484V482.172C555.406 481.016 555.229 480.057 554.875 479.297C554.531 478.526 554.047 477.953 553.422 477.578C552.807 477.203 552.094 477.016 551.281 477.016C550.479 477.016 549.76 477.214 549.125 477.609C548.49 478.005 547.99 478.589 547.625 479.359C547.26 480.12 547.078 481.057 547.078 482.172V483.484C547.078 484.547 547.255 485.458 547.609 486.219C547.974 486.969 548.49 487.547 549.156 487.953C549.823 488.349 550.609 488.547 551.516 488.547C552.182 488.547 552.771 488.448 553.281 488.25C553.792 488.042 554.214 487.771 554.547 487.438C554.891 487.094 555.13 486.714 555.266 486.297L555.312 486.172H558.531L558.5 486.344C558.365 486.99 558.109 487.609 557.734 488.203C557.359 488.797 556.87 489.333 556.266 489.812C555.672 490.281 554.969 490.651 554.156 490.922C553.344 491.193 552.438 491.328 551.438 491.328Z" fill="#9D9595"/>
</g>
<path d="M230.938 407V380.818H247.966V384.794H235.681V391.902H247.084V395.878H235.681V403.024H248.069V407H230.938ZM257.228 395.494V407H252.6V387.364H257.024V390.7H257.254C257.706 389.601 258.426 388.727 259.414 388.08C260.412 387.432 261.643 387.108 263.109 387.108C264.464 387.108 265.645 387.398 266.65 387.977C267.664 388.557 268.449 389.396 269.002 390.496C269.565 391.595 269.842 392.929 269.833 394.497V407H265.206V395.213C265.206 393.901 264.865 392.874 264.183 392.132C263.51 391.391 262.576 391.02 261.383 391.02C260.574 391.02 259.853 391.199 259.223 391.557C258.6 391.906 258.11 392.413 257.752 393.078C257.403 393.743 257.228 394.548 257.228 395.494ZM284.343 387.364V390.943H273.055V387.364H284.343ZM275.842 382.659H280.47V401.094C280.47 401.716 280.564 402.193 280.751 402.526C280.947 402.849 281.203 403.071 281.518 403.19C281.833 403.31 282.183 403.369 282.566 403.369C282.856 403.369 283.12 403.348 283.359 403.305C283.606 403.263 283.794 403.224 283.922 403.19L284.701 406.808C284.454 406.893 284.1 406.987 283.64 407.089C283.189 407.192 282.635 407.251 281.978 407.268C280.819 407.303 279.775 407.128 278.846 406.744C277.917 406.352 277.18 405.747 276.635 404.929C276.098 404.111 275.833 403.088 275.842 401.861V382.659ZM296.696 407.384C294.727 407.384 293.027 406.974 291.595 406.156C290.172 405.33 289.077 404.162 288.31 402.653C287.543 401.136 287.159 399.351 287.159 397.297C287.159 395.277 287.543 393.504 288.31 391.979C289.085 390.445 290.168 389.251 291.557 388.399C292.946 387.538 294.578 387.108 296.453 387.108C297.663 387.108 298.805 387.304 299.879 387.696C300.962 388.08 301.916 388.676 302.743 389.486C303.578 390.295 304.234 391.327 304.712 392.58C305.189 393.824 305.428 395.307 305.428 397.028V398.447H289.332V395.328H300.991C300.983 394.442 300.791 393.653 300.416 392.963C300.041 392.264 299.517 391.714 298.844 391.314C298.179 390.913 297.403 390.713 296.517 390.713C295.571 390.713 294.74 390.943 294.024 391.403C293.308 391.855 292.75 392.452 292.349 393.193C291.957 393.926 291.757 394.732 291.749 395.609V398.332C291.749 399.474 291.957 400.455 292.375 401.273C292.793 402.082 293.376 402.705 294.126 403.139C294.876 403.565 295.754 403.778 296.76 403.778C297.433 403.778 298.043 403.685 298.588 403.497C299.134 403.301 299.607 403.016 300.007 402.641C300.408 402.266 300.71 401.801 300.915 401.247L305.236 401.733C304.963 402.875 304.443 403.872 303.676 404.724C302.918 405.568 301.946 406.224 300.761 406.693C299.577 407.153 298.222 407.384 296.696 407.384ZM309.343 407V387.364H313.83V390.636H314.034C314.392 389.503 315.006 388.629 315.875 388.016C316.753 387.393 317.755 387.082 318.88 387.082C319.135 387.082 319.421 387.095 319.736 387.121C320.06 387.138 320.328 387.168 320.542 387.21V391.467C320.346 391.399 320.034 391.339 319.608 391.288C319.191 391.229 318.786 391.199 318.394 391.199C317.55 391.199 316.792 391.382 316.118 391.749C315.453 392.107 314.929 392.605 314.546 393.244C314.162 393.884 313.971 394.621 313.971 395.456V407H309.343ZM338.196 407.396C336.952 407.396 335.831 407.175 334.834 406.732C333.846 406.28 333.061 405.615 332.482 404.737C331.911 403.859 331.625 402.777 331.625 401.49C331.625 400.382 331.83 399.466 332.239 398.741C332.648 398.017 333.206 397.438 333.914 397.003C334.621 396.568 335.418 396.24 336.304 396.018C337.199 395.788 338.124 395.622 339.078 395.52C340.229 395.401 341.162 395.294 341.878 395.2C342.594 395.098 343.114 394.945 343.438 394.74C343.77 394.527 343.936 394.199 343.936 393.756V393.679C343.936 392.716 343.651 391.97 343.08 391.442C342.509 390.913 341.686 390.649 340.613 390.649C339.479 390.649 338.58 390.896 337.915 391.391C337.259 391.885 336.816 392.469 336.586 393.142L332.265 392.528C332.605 391.335 333.168 390.338 333.952 389.537C334.736 388.727 335.695 388.122 336.828 387.722C337.962 387.312 339.215 387.108 340.587 387.108C341.533 387.108 342.475 387.219 343.412 387.44C344.35 387.662 345.206 388.028 345.982 388.54C346.757 389.043 347.38 389.729 347.848 390.598C348.326 391.467 348.564 392.554 348.564 393.858V407H344.115V404.303H343.962C343.681 404.848 343.284 405.359 342.773 405.837C342.27 406.305 341.635 406.685 340.868 406.974C340.11 407.256 339.219 407.396 338.196 407.396ZM339.398 403.996C340.327 403.996 341.132 403.812 341.814 403.446C342.496 403.071 343.02 402.577 343.387 401.963C343.762 401.349 343.949 400.68 343.949 399.956V397.642C343.804 397.761 343.557 397.872 343.208 397.974C342.867 398.077 342.483 398.166 342.057 398.243C341.631 398.32 341.209 398.388 340.792 398.447C340.374 398.507 340.012 398.558 339.705 398.601C339.015 398.695 338.397 398.848 337.851 399.061C337.306 399.274 336.875 399.572 336.56 399.956C336.245 400.331 336.087 400.817 336.087 401.413C336.087 402.266 336.398 402.909 337.02 403.344C337.642 403.778 338.435 403.996 339.398 403.996ZM362.352 407V380.818H372.17C374.181 380.818 375.869 381.168 377.233 381.866C378.605 382.565 379.64 383.545 380.339 384.807C381.047 386.06 381.4 387.521 381.4 389.192C381.4 390.871 381.042 392.328 380.326 393.564C379.619 394.791 378.575 395.741 377.194 396.415C375.814 397.08 374.118 397.412 372.106 397.412H365.113V393.474H371.467C372.643 393.474 373.606 393.312 374.356 392.989C375.106 392.656 375.66 392.175 376.018 391.544C376.385 390.905 376.568 390.121 376.568 389.192C376.568 388.263 376.385 387.47 376.018 386.814C375.652 386.149 375.093 385.646 374.343 385.305C373.593 384.956 372.626 384.781 371.441 384.781H367.095V407H362.352ZM375.877 395.136L382.359 407H377.066L370.7 395.136H375.877ZM393.973 407.384C392.005 407.384 390.304 406.974 388.873 406.156C387.449 405.33 386.354 404.162 385.587 402.653C384.82 401.136 384.436 399.351 384.436 397.297C384.436 395.277 384.82 393.504 385.587 391.979C386.363 390.445 387.445 389.251 388.834 388.399C390.223 387.538 391.855 387.108 393.73 387.108C394.941 387.108 396.083 387.304 397.157 387.696C398.239 388.08 399.194 388.676 400.02 389.486C400.855 390.295 401.512 391.327 401.989 392.58C402.466 393.824 402.705 395.307 402.705 397.028V398.447H386.61V395.328H398.269C398.26 394.442 398.069 393.653 397.694 392.963C397.319 392.264 396.794 391.714 396.121 391.314C395.456 390.913 394.681 390.713 393.794 390.713C392.848 390.713 392.017 390.943 391.301 391.403C390.586 391.855 390.027 392.452 389.627 393.193C389.235 393.926 389.034 394.732 389.026 395.609V398.332C389.026 399.474 389.235 400.455 389.652 401.273C390.07 402.082 390.654 402.705 391.404 403.139C392.154 403.565 393.032 403.778 394.037 403.778C394.711 403.778 395.32 403.685 395.865 403.497C396.411 403.301 396.884 403.016 397.284 402.641C397.685 402.266 397.988 401.801 398.192 401.247L402.513 401.733C402.24 402.875 401.721 403.872 400.953 404.724C400.195 405.568 399.223 406.224 398.039 406.693C396.854 407.153 395.499 407.384 393.973 407.384ZM422.14 392.554L417.921 393.014C417.802 392.588 417.593 392.188 417.295 391.812C417.005 391.438 416.613 391.135 416.119 390.905C415.624 390.675 415.019 390.56 414.303 390.56C413.34 390.56 412.531 390.768 411.874 391.186C411.227 391.604 410.907 392.145 410.915 392.81C410.907 393.381 411.116 393.845 411.542 394.203C411.977 394.561 412.692 394.855 413.69 395.085L417.039 395.801C418.897 396.202 420.278 396.837 421.181 397.706C422.093 398.575 422.553 399.713 422.562 401.119C422.553 402.355 422.191 403.446 421.475 404.392C420.768 405.33 419.783 406.062 418.522 406.591C417.261 407.119 415.812 407.384 414.175 407.384C411.772 407.384 409.837 406.881 408.371 405.875C406.906 404.861 406.032 403.45 405.751 401.643L410.263 401.209C410.468 402.095 410.903 402.764 411.567 403.216C412.232 403.668 413.097 403.893 414.163 403.893C415.262 403.893 416.144 403.668 416.809 403.216C417.482 402.764 417.819 402.206 417.819 401.541C417.819 400.979 417.602 400.514 417.167 400.148C416.741 399.781 416.076 399.5 415.173 399.304L411.823 398.601C409.94 398.209 408.546 397.548 407.643 396.619C406.739 395.682 406.292 394.497 406.3 393.065C406.292 391.855 406.62 390.807 407.285 389.92C407.958 389.026 408.891 388.335 410.085 387.849C411.286 387.355 412.671 387.108 414.239 387.108C416.54 387.108 418.352 387.598 419.673 388.578C421.002 389.558 421.825 390.884 422.14 392.554ZM435.071 407.384C433.102 407.384 431.402 406.974 429.97 406.156C428.547 405.33 427.452 404.162 426.685 402.653C425.918 401.136 425.534 399.351 425.534 397.297C425.534 395.277 425.918 393.504 426.685 391.979C427.46 390.445 428.543 389.251 429.932 388.399C431.321 387.538 432.953 387.108 434.828 387.108C436.038 387.108 437.18 387.304 438.254 387.696C439.337 388.08 440.291 388.676 441.118 389.486C441.953 390.295 442.609 391.327 443.087 392.58C443.564 393.824 443.803 395.307 443.803 397.028V398.447H427.707V395.328H439.366C439.358 394.442 439.166 393.653 438.791 392.963C438.416 392.264 437.892 391.714 437.219 391.314C436.554 390.913 435.778 390.713 434.892 390.713C433.946 390.713 433.115 390.943 432.399 391.403C431.683 391.855 431.125 392.452 430.724 393.193C430.332 393.926 430.132 394.732 430.124 395.609V398.332C430.124 399.474 430.332 400.455 430.75 401.273C431.168 402.082 431.751 402.705 432.501 403.139C433.251 403.565 434.129 403.778 435.135 403.778C435.808 403.778 436.418 403.685 436.963 403.497C437.509 403.301 437.982 403.016 438.382 402.641C438.783 402.266 439.085 401.801 439.29 401.247L443.611 401.733C443.338 402.875 442.818 403.872 442.051 404.724C441.293 405.568 440.321 406.224 439.136 406.693C437.952 407.153 436.597 407.384 435.071 407.384ZM453.368 407.396C452.124 407.396 451.003 407.175 450.006 406.732C449.017 406.28 448.233 405.615 447.654 404.737C447.083 403.859 446.797 402.777 446.797 401.49C446.797 400.382 447.002 399.466 447.411 398.741C447.82 398.017 448.378 397.438 449.086 397.003C449.793 396.568 450.59 396.24 451.476 396.018C452.371 395.788 453.296 395.622 454.25 395.52C455.401 395.401 456.334 395.294 457.05 395.2C457.766 395.098 458.286 394.945 458.61 394.74C458.942 394.527 459.108 394.199 459.108 393.756V393.679C459.108 392.716 458.823 391.97 458.252 391.442C457.681 390.913 456.858 390.649 455.784 390.649C454.651 390.649 453.752 390.896 453.087 391.391C452.431 391.885 451.988 392.469 451.757 393.142L447.436 392.528C447.777 391.335 448.34 390.338 449.124 389.537C449.908 388.727 450.867 388.122 452 387.722C453.134 387.312 454.387 387.108 455.759 387.108C456.705 387.108 457.647 387.219 458.584 387.44C459.522 387.662 460.378 388.028 461.154 388.54C461.929 389.043 462.551 389.729 463.02 390.598C463.498 391.467 463.736 392.554 463.736 393.858V407H459.287V404.303H459.134C458.853 404.848 458.456 405.359 457.945 405.837C457.442 406.305 456.807 406.685 456.04 406.974C455.282 407.256 454.391 407.396 453.368 407.396ZM454.57 403.996C455.499 403.996 456.304 403.812 456.986 403.446C457.668 403.071 458.192 402.577 458.559 401.963C458.934 401.349 459.121 400.68 459.121 399.956V397.642C458.976 397.761 458.729 397.872 458.38 397.974C458.039 398.077 457.655 398.166 457.229 398.243C456.803 398.32 456.381 398.388 455.963 398.447C455.546 398.507 455.184 398.558 454.877 398.601C454.186 398.695 453.569 398.848 453.023 399.061C452.478 399.274 452.047 399.572 451.732 399.956C451.417 400.331 451.259 400.817 451.259 401.413C451.259 402.266 451.57 402.909 452.192 403.344C452.814 403.778 453.607 403.996 454.57 403.996ZM468.39 407V387.364H472.877V390.636H473.081C473.439 389.503 474.053 388.629 474.922 388.016C475.8 387.393 476.801 387.082 477.926 387.082C478.182 387.082 478.468 387.095 478.783 387.121C479.107 387.138 479.375 387.168 479.588 387.21V391.467C479.392 391.399 479.081 391.339 478.655 391.288C478.238 391.229 477.833 391.199 477.441 391.199C476.597 391.199 475.838 391.382 475.165 391.749C474.5 392.107 473.976 392.605 473.593 393.244C473.209 393.884 473.017 394.621 473.017 395.456V407H468.39ZM490.42 407.384C488.46 407.384 486.776 406.953 485.37 406.092C483.972 405.232 482.894 404.043 482.136 402.526C481.386 401 481.011 399.244 481.011 397.259C481.011 395.264 481.394 393.504 482.161 391.979C482.928 390.445 484.011 389.251 485.408 388.399C486.815 387.538 488.477 387.108 490.394 387.108C491.988 387.108 493.398 387.402 494.626 387.99C495.862 388.57 496.846 389.392 497.579 390.457C498.312 391.514 498.729 392.75 498.832 394.165H494.408C494.229 393.219 493.803 392.43 493.13 391.8C492.465 391.161 491.575 390.841 490.458 390.841C489.512 390.841 488.681 391.097 487.965 391.608C487.249 392.111 486.691 392.835 486.29 393.781C485.898 394.727 485.702 395.861 485.702 397.182C485.702 398.52 485.898 399.67 486.29 400.634C486.683 401.588 487.232 402.325 487.94 402.845C488.656 403.357 489.495 403.612 490.458 403.612C491.14 403.612 491.749 403.484 492.286 403.229C492.832 402.964 493.288 402.585 493.654 402.091C494.021 401.597 494.272 400.996 494.408 400.288H498.832C498.721 401.678 498.312 402.909 497.604 403.983C496.897 405.048 495.934 405.884 494.715 406.489C493.496 407.085 492.065 407.384 490.42 407.384ZM507.26 395.494V407H502.632V380.818H507.157V390.7H507.387C507.848 389.592 508.559 388.719 509.522 388.08C510.494 387.432 511.73 387.108 513.23 387.108C514.593 387.108 515.782 387.393 516.797 387.964C517.811 388.536 518.595 389.371 519.149 390.47C519.711 391.57 519.993 392.912 519.993 394.497V407H515.365V395.213C515.365 393.892 515.024 392.865 514.342 392.132C513.669 391.391 512.723 391.02 511.504 391.02C510.686 391.02 509.953 391.199 509.305 391.557C508.666 391.906 508.163 392.413 507.797 393.078C507.439 393.743 507.26 394.548 507.26 395.494ZM533.403 407.384C531.434 407.384 529.734 406.974 528.302 406.156C526.879 405.33 525.784 404.162 525.017 402.653C524.25 401.136 523.866 399.351 523.866 397.297C523.866 395.277 524.25 393.504 525.017 391.979C525.792 390.445 526.875 389.251 528.264 388.399C529.653 387.538 531.285 387.108 533.16 387.108C534.37 387.108 535.512 387.304 536.586 387.696C537.669 388.08 538.623 388.676 539.45 389.486C540.285 390.295 540.941 391.327 541.419 392.58C541.896 393.824 542.135 395.307 542.135 397.028V398.447H526.039V395.328H537.699C537.69 394.442 537.498 393.653 537.123 392.963C536.748 392.264 536.224 391.714 535.551 391.314C534.886 390.913 534.11 390.713 533.224 390.713C532.278 390.713 531.447 390.943 530.731 391.403C530.015 391.855 529.457 392.452 529.056 393.193C528.664 393.926 528.464 394.732 528.456 395.609V398.332C528.456 399.474 528.664 400.455 529.082 401.273C529.5 402.082 530.083 402.705 530.833 403.139C531.583 403.565 532.461 403.778 533.467 403.778C534.14 403.778 534.75 403.685 535.295 403.497C535.841 403.301 536.314 403.016 536.714 402.641C537.115 402.266 537.417 401.801 537.622 401.247L541.943 401.733C541.67 402.875 541.15 403.872 540.383 404.724C539.625 405.568 538.653 406.224 537.468 406.693C536.284 407.153 534.929 407.384 533.403 407.384ZM546.05 407V387.364H550.537V390.636H550.741C551.099 389.503 551.713 388.629 552.582 388.016C553.46 387.393 554.462 387.082 555.587 387.082C555.842 387.082 556.128 387.095 556.443 387.121C556.767 387.138 557.036 387.168 557.249 387.21V391.467C557.053 391.399 556.741 391.339 556.315 391.288C555.898 391.229 555.493 391.199 555.101 391.199C554.257 391.199 553.499 391.382 552.825 391.749C552.161 392.107 551.636 392.605 551.253 393.244C550.869 393.884 550.678 394.621 550.678 395.456V407H546.05ZM575.843 392.554L571.624 393.014C571.505 392.588 571.296 392.188 570.998 391.812C570.708 391.438 570.316 391.135 569.822 390.905C569.327 390.675 568.722 390.56 568.006 390.56C567.043 390.56 566.234 390.768 565.577 391.186C564.93 391.604 564.61 392.145 564.619 392.81C564.61 393.381 564.819 393.845 565.245 394.203C565.68 394.561 566.396 394.855 567.393 395.085L570.742 395.801C572.6 396.202 573.981 396.837 574.884 397.706C575.796 398.575 576.256 399.713 576.265 401.119C576.256 402.355 575.894 403.446 575.178 404.392C574.471 405.33 573.487 406.062 572.225 406.591C570.964 407.119 569.515 407.384 567.879 407.384C565.475 407.384 563.54 406.881 562.075 405.875C560.609 404.861 559.735 403.45 559.454 401.643L563.967 401.209C564.171 402.095 564.606 402.764 565.271 403.216C565.935 403.668 566.8 403.893 567.866 403.893C568.965 403.893 569.847 403.668 570.512 403.216C571.185 402.764 571.522 402.206 571.522 401.541C571.522 400.979 571.305 400.514 570.87 400.148C570.444 399.781 569.779 399.5 568.876 399.304L565.526 398.601C563.643 398.209 562.249 397.548 561.346 396.619C560.442 395.682 559.995 394.497 560.004 393.065C559.995 391.855 560.323 390.807 560.988 389.92C561.661 389.026 562.594 388.335 563.788 387.849C564.989 387.355 566.374 387.108 567.942 387.108C570.244 387.108 572.055 387.598 573.376 388.578C574.705 389.558 575.528 390.884 575.843 392.554ZM610.731 380.818V407H606.512L594.175 389.166H593.958V407H589.215V380.818H593.46L605.783 398.665H606.013V380.818H610.731ZM621.345 407.396C620.1 407.396 618.98 407.175 617.983 406.732C616.994 406.28 616.21 405.615 615.63 404.737C615.059 403.859 614.774 402.777 614.774 401.49C614.774 400.382 614.978 399.466 615.387 398.741C615.797 398.017 616.355 397.438 617.062 397.003C617.77 396.568 618.566 396.24 619.453 396.018C620.348 395.788 621.272 395.622 622.227 395.52C623.377 395.401 624.311 395.294 625.027 395.2C625.743 395.098 626.262 394.945 626.586 394.74C626.919 394.527 627.085 394.199 627.085 393.756V393.679C627.085 392.716 626.799 391.97 626.228 391.442C625.657 390.913 624.835 390.649 623.761 390.649C622.627 390.649 621.728 390.896 621.064 391.391C620.407 391.885 619.964 392.469 619.734 393.142L615.413 392.528C615.754 391.335 616.316 390.338 617.1 389.537C617.885 388.727 618.843 388.122 619.977 387.722C621.11 387.312 622.363 387.108 623.735 387.108C624.681 387.108 625.623 387.219 626.561 387.44C627.498 387.662 628.355 388.028 629.13 388.54C629.906 389.043 630.528 389.729 630.997 390.598C631.474 391.467 631.713 392.554 631.713 393.858V407H627.264V404.303H627.11C626.829 404.848 626.433 405.359 625.922 405.837C625.419 406.305 624.784 406.685 624.017 406.974C623.258 407.256 622.368 407.396 621.345 407.396ZM622.547 403.996C623.475 403.996 624.281 403.812 624.963 403.446C625.645 403.071 626.169 402.577 626.535 401.963C626.91 401.349 627.098 400.68 627.098 399.956V397.642C626.953 397.761 626.706 397.872 626.356 397.974C626.015 398.077 625.632 398.166 625.206 398.243C624.779 398.32 624.358 398.388 623.94 398.447C623.522 398.507 623.16 398.558 622.853 398.601C622.163 398.695 621.545 398.848 621 399.061C620.454 399.274 620.024 399.572 619.708 399.956C619.393 400.331 619.235 400.817 619.235 401.413C619.235 402.266 619.547 402.909 620.169 403.344C620.791 403.778 621.583 403.996 622.547 403.996ZM636.366 407V387.364H640.789V390.7H641.02C641.429 389.575 642.106 388.697 643.052 388.067C643.998 387.428 645.127 387.108 646.44 387.108C647.77 387.108 648.89 387.432 649.802 388.08C650.723 388.719 651.37 389.592 651.745 390.7H651.95C652.385 389.609 653.118 388.74 654.149 388.092C655.189 387.436 656.42 387.108 657.843 387.108C659.65 387.108 661.125 387.679 662.267 388.821C663.409 389.963 663.98 391.629 663.98 393.82V407H659.339V394.536C659.339 393.317 659.015 392.426 658.368 391.864C657.72 391.293 656.927 391.007 655.99 391.007C654.873 391.007 654 391.357 653.369 392.055C652.747 392.746 652.436 393.645 652.436 394.753V407H647.897V394.344C647.897 393.33 647.591 392.52 646.977 391.915C646.372 391.31 645.579 391.007 644.599 391.007C643.934 391.007 643.329 391.178 642.784 391.518C642.238 391.851 641.804 392.324 641.48 392.938C641.156 393.543 640.994 394.25 640.994 395.06V407H636.366ZM677.368 407.384C675.399 407.384 673.699 406.974 672.267 406.156C670.844 405.33 669.749 404.162 668.982 402.653C668.214 401.136 667.831 399.351 667.831 397.297C667.831 395.277 668.214 393.504 668.982 391.979C669.757 390.445 670.839 389.251 672.229 388.399C673.618 387.538 675.25 387.108 677.125 387.108C678.335 387.108 679.477 387.304 680.551 387.696C681.634 388.08 682.588 388.676 683.415 389.486C684.25 390.295 684.906 391.327 685.384 392.58C685.861 393.824 686.099 395.307 686.099 397.028V398.447H670.004V395.328H681.663C681.655 394.442 681.463 393.653 681.088 392.963C680.713 392.264 680.189 391.714 679.516 391.314C678.851 390.913 678.075 390.713 677.189 390.713C676.243 390.713 675.412 390.943 674.696 391.403C673.98 391.855 673.422 392.452 673.021 393.193C672.629 393.926 672.429 394.732 672.42 395.609V398.332C672.42 399.474 672.629 400.455 673.047 401.273C673.464 402.082 674.048 402.705 674.798 403.139C675.548 403.565 676.426 403.778 677.432 403.778C678.105 403.778 678.714 403.685 679.26 403.497C679.805 403.301 680.278 403.016 680.679 402.641C681.08 402.266 681.382 401.801 681.587 401.247L685.908 401.733C685.635 402.875 685.115 403.872 684.348 404.724C683.589 405.568 682.618 406.224 681.433 406.693C680.249 407.153 678.893 407.384 677.368 407.384ZM707.51 407.384C705.592 407.384 703.93 406.962 702.524 406.118C701.118 405.274 700.027 404.094 699.251 402.577C698.484 401.06 698.1 399.287 698.1 397.259C698.1 395.23 698.484 393.453 699.251 391.928C700.027 390.402 701.118 389.217 702.524 388.374C703.93 387.53 705.592 387.108 707.51 387.108C709.427 387.108 711.089 387.53 712.495 388.374C713.902 389.217 714.988 390.402 715.755 391.928C716.531 393.453 716.919 395.23 716.919 397.259C716.919 399.287 716.531 401.06 715.755 402.577C714.988 404.094 713.902 405.274 712.495 406.118C711.089 406.962 709.427 407.384 707.51 407.384ZM707.535 403.676C708.575 403.676 709.444 403.391 710.143 402.82C710.842 402.24 711.362 401.464 711.703 400.493C712.052 399.521 712.227 398.439 712.227 397.246C712.227 396.044 712.052 394.957 711.703 393.986C711.362 393.006 710.842 392.226 710.143 391.646C709.444 391.067 708.575 390.777 707.535 390.777C706.47 390.777 705.583 391.067 704.876 391.646C704.177 392.226 703.653 393.006 703.304 393.986C702.963 394.957 702.792 396.044 702.792 397.246C702.792 398.439 702.963 399.521 703.304 400.493C703.653 401.464 704.177 402.24 704.876 402.82C705.583 403.391 706.47 403.676 707.535 403.676ZM720.847 407V387.364H725.334V390.636H725.538C725.896 389.503 726.51 388.629 727.379 388.016C728.257 387.393 729.259 387.082 730.384 387.082C730.639 387.082 730.925 387.095 731.24 387.121C731.564 387.138 731.832 387.168 732.045 387.21V391.467C731.849 391.399 731.538 391.339 731.112 391.288C730.695 391.229 730.29 391.199 729.898 391.199C729.054 391.199 728.295 391.382 727.622 391.749C726.957 392.107 726.433 392.605 726.05 393.244C725.666 393.884 725.474 394.621 725.474 395.456V407H720.847ZM767.649 393.909C767.649 396.73 767.121 399.146 766.064 401.158C765.016 403.161 763.584 404.695 761.768 405.76C759.962 406.825 757.912 407.358 755.619 407.358C753.327 407.358 751.273 406.825 749.457 405.76C747.651 404.686 746.219 403.148 745.162 401.145C744.114 399.134 743.589 396.722 743.589 393.909C743.589 391.088 744.114 388.676 745.162 386.673C746.219 384.662 747.651 383.124 749.457 382.058C751.273 380.993 753.327 380.46 755.619 380.46C757.912 380.46 759.962 380.993 761.768 382.058C763.584 383.124 765.016 384.662 766.064 386.673C767.121 388.676 767.649 391.088 767.649 393.909ZM762.881 393.909C762.881 391.923 762.57 390.249 761.947 388.885C761.334 387.513 760.482 386.477 759.391 385.778C758.3 385.071 757.043 384.717 755.619 384.717C754.196 384.717 752.939 385.071 751.848 385.778C750.757 386.477 749.901 387.513 749.278 388.885C748.665 390.249 748.358 391.923 748.358 393.909C748.358 395.895 748.665 397.574 749.278 398.946C749.901 400.31 750.757 401.345 751.848 402.053C752.939 402.751 754.196 403.101 755.619 403.101C757.043 403.101 758.3 402.751 759.391 402.053C760.482 401.345 761.334 400.31 761.947 398.946C762.57 397.574 762.881 395.895 762.881 393.909ZM772.133 407V380.818H781.951C783.963 380.818 785.65 381.168 787.014 381.866C788.386 382.565 789.422 383.545 790.12 384.807C790.828 386.06 791.181 387.521 791.181 389.192C791.181 390.871 790.824 392.328 790.108 393.564C789.4 394.791 788.356 395.741 786.975 396.415C785.595 397.08 783.899 397.412 781.887 397.412H774.895V393.474H781.248C782.424 393.474 783.387 393.312 784.137 392.989C784.887 392.656 785.441 392.175 785.799 391.544C786.166 390.905 786.349 390.121 786.349 389.192C786.349 388.263 786.166 387.47 785.799 386.814C785.433 386.149 784.875 385.646 784.125 385.305C783.375 384.956 782.407 384.781 781.223 384.781H776.876V407H772.133ZM785.659 395.136L792.14 407H786.848L780.481 395.136H785.659ZM817.958 389.652H813.176C813.04 388.868 812.789 388.173 812.422 387.568C812.056 386.955 811.6 386.435 811.054 386.009C810.509 385.582 809.887 385.263 809.188 385.05C808.498 384.828 807.752 384.717 806.951 384.717C805.527 384.717 804.266 385.075 803.167 385.791C802.067 386.499 801.206 387.538 800.584 388.911C799.962 390.274 799.651 391.94 799.651 393.909C799.651 395.912 799.962 397.599 800.584 398.972C801.215 400.335 802.076 401.366 803.167 402.065C804.266 402.756 805.523 403.101 806.938 403.101C807.722 403.101 808.455 402.999 809.137 402.794C809.827 402.581 810.445 402.27 810.99 401.861C811.544 401.452 812.009 400.949 812.384 400.352C812.767 399.756 813.032 399.074 813.176 398.307L817.958 398.332C817.779 399.577 817.391 400.744 816.794 401.835C816.206 402.926 815.435 403.889 814.48 404.724C813.526 405.551 812.409 406.199 811.131 406.668C809.853 407.128 808.434 407.358 806.874 407.358C804.573 407.358 802.519 406.825 800.712 405.76C798.905 404.695 797.482 403.156 796.442 401.145C795.402 399.134 794.882 396.722 794.882 393.909C794.882 391.088 795.407 388.676 796.455 386.673C797.503 384.662 798.931 383.124 800.738 382.058C802.544 380.993 804.59 380.46 806.874 380.46C808.331 380.46 809.686 380.665 810.939 381.074C812.192 381.483 813.309 382.084 814.289 382.876C815.269 383.661 816.074 384.624 816.705 385.766C817.344 386.899 817.762 388.195 817.958 389.652ZM827.044 380.818V407H822.301V380.818H827.044ZM841.052 407H832.18V380.818H841.231C843.831 380.818 846.064 381.342 847.93 382.391C849.805 383.43 851.245 384.926 852.251 386.878C853.257 388.83 853.76 391.165 853.76 393.884C853.76 396.611 853.252 398.955 852.238 400.915C851.233 402.875 849.779 404.379 847.879 405.428C845.987 406.476 843.711 407 841.052 407ZM836.923 402.896H840.822C842.646 402.896 844.167 402.564 845.386 401.899C846.605 401.226 847.521 400.224 848.135 398.895C848.748 397.557 849.055 395.886 849.055 393.884C849.055 391.881 848.748 390.219 848.135 388.898C847.521 387.568 846.613 386.575 845.412 385.919C844.218 385.254 842.735 384.922 840.963 384.922H836.923V402.896ZM871.939 380.818V407H867.196V380.818H871.939ZM885.947 407H877.075V380.818H886.126C888.725 380.818 890.958 381.342 892.825 382.391C894.7 383.43 896.14 384.926 897.146 386.878C898.151 388.83 898.654 391.165 898.654 393.884C898.654 396.611 898.147 398.955 897.133 400.915C896.127 402.875 894.674 404.379 892.773 405.428C890.881 406.476 888.606 407 885.947 407ZM881.817 402.896H885.717C887.54 402.896 889.062 402.564 890.281 401.899C891.499 401.226 892.415 400.224 893.029 398.895C893.643 397.557 893.95 395.886 893.95 393.884C893.95 391.881 893.643 390.219 893.029 388.898C892.415 387.568 891.508 386.575 890.306 385.919C889.113 385.254 887.63 384.922 885.857 384.922H881.817V402.896ZM921.691 387.364V390.943H910.403V387.364H921.691ZM913.19 382.659H917.817V401.094C917.817 401.716 917.911 402.193 918.099 402.526C918.295 402.849 918.55 403.071 918.866 403.19C919.181 403.31 919.531 403.369 919.914 403.369C920.204 403.369 920.468 403.348 920.707 403.305C920.954 403.263 921.141 403.224 921.269 403.19L922.049 406.808C921.802 406.893 921.448 406.987 920.988 407.089C920.536 407.192 919.982 407.251 919.326 407.268C918.167 407.303 917.123 407.128 916.194 406.744C915.265 406.352 914.528 405.747 913.982 404.929C913.445 404.111 913.181 403.088 913.19 401.861V382.659ZM933.916 407.384C931.998 407.384 930.336 406.962 928.93 406.118C927.524 405.274 926.433 404.094 925.657 402.577C924.89 401.06 924.507 399.287 924.507 397.259C924.507 395.23 924.89 393.453 925.657 391.928C926.433 390.402 927.524 389.217 928.93 388.374C930.336 387.53 931.998 387.108 933.916 387.108C935.833 387.108 937.495 387.53 938.902 388.374C940.308 389.217 941.395 390.402 942.162 391.928C942.937 393.453 943.325 395.23 943.325 397.259C943.325 399.287 942.937 401.06 942.162 402.577C941.395 404.094 940.308 405.274 938.902 406.118C937.495 406.962 935.833 407.384 933.916 407.384ZM933.941 403.676C934.981 403.676 935.85 403.391 936.549 402.82C937.248 402.24 937.768 401.464 938.109 400.493C938.458 399.521 938.633 398.439 938.633 397.246C938.633 396.044 938.458 394.957 938.109 393.986C937.768 393.006 937.248 392.226 936.549 391.646C935.85 391.067 934.981 390.777 933.941 390.777C932.876 390.777 931.99 391.067 931.282 391.646C930.583 392.226 930.059 393.006 929.71 393.986C929.369 394.957 929.199 396.044 929.199 397.246C929.199 398.439 929.369 399.521 929.71 400.493C930.059 401.464 930.583 402.24 931.282 402.82C931.99 403.391 932.876 403.676 933.941 403.676ZM956.387 407V380.818H961.015V390.611H961.207C961.445 390.134 961.782 389.626 962.217 389.089C962.651 388.544 963.239 388.08 963.981 387.696C964.722 387.304 965.668 387.108 966.819 387.108C968.336 387.108 969.704 387.496 970.923 388.271C972.15 389.038 973.121 390.176 973.837 391.685C974.562 393.185 974.924 395.026 974.924 397.207C974.924 399.364 974.57 401.196 973.863 402.705C973.156 404.213 972.192 405.364 970.974 406.156C969.755 406.949 968.374 407.345 966.832 407.345C965.707 407.345 964.773 407.158 964.032 406.783C963.29 406.408 962.694 405.956 962.242 405.428C961.799 404.891 961.454 404.384 961.207 403.906H960.938V407H956.387ZM960.925 397.182C960.925 398.452 961.104 399.564 961.462 400.518C961.829 401.473 962.353 402.219 963.035 402.756C963.725 403.284 964.56 403.548 965.54 403.548C966.563 403.548 967.42 403.276 968.11 402.73C968.8 402.176 969.32 401.422 969.67 400.467C970.028 399.504 970.207 398.409 970.207 397.182C970.207 395.963 970.032 394.881 969.683 393.935C969.333 392.989 968.813 392.247 968.123 391.71C967.433 391.173 966.572 390.905 965.54 390.905C964.552 390.905 963.712 391.165 963.022 391.685C962.332 392.205 961.808 392.933 961.45 393.871C961.1 394.808 960.925 395.912 960.925 397.182ZM987.551 407.384C985.583 407.384 983.882 406.974 982.451 406.156C981.027 405.33 979.932 404.162 979.165 402.653C978.398 401.136 978.015 399.351 978.015 397.297C978.015 395.277 978.398 393.504 979.165 391.979C979.941 390.445 981.023 389.251 982.412 388.399C983.801 387.538 985.434 387.108 987.309 387.108C988.519 387.108 989.661 387.304 990.735 387.696C991.817 388.08 992.772 388.676 993.598 389.486C994.434 390.295 995.09 391.327 995.567 392.58C996.044 393.824 996.283 395.307 996.283 397.028V398.447H980.188V395.328H991.847C991.838 394.442 991.647 393.653 991.272 392.963C990.897 392.264 990.373 391.714 989.699 391.314C989.034 390.913 988.259 390.713 987.373 390.713C986.426 390.713 985.596 390.943 984.88 391.403C984.164 391.855 983.605 392.452 983.205 393.193C982.813 393.926 982.613 394.732 982.604 395.609V398.332C982.604 399.474 982.813 400.455 983.23 401.273C983.648 402.082 984.232 402.705 984.982 403.139C985.732 403.565 986.61 403.778 987.615 403.778C988.289 403.778 988.898 403.685 989.444 403.497C989.989 403.301 990.462 403.016 990.863 402.641C991.263 402.266 991.566 401.801 991.77 401.247L996.091 401.733C995.819 402.875 995.299 403.872 994.532 404.724C993.773 405.568 992.801 406.224 991.617 406.693C990.432 407.153 989.077 407.384 987.551 407.384ZM1008.74 414.773C1007.08 414.773 1005.65 414.547 1004.46 414.095C1003.26 413.652 1002.3 413.055 1001.58 412.305C1000.85 411.555 1000.35 410.724 1000.07 409.812L1004.24 408.803C1004.43 409.186 1004.7 409.565 1005.06 409.94C1005.41 410.324 1005.9 410.639 1006.5 410.886C1007.11 411.142 1007.89 411.27 1008.81 411.27C1010.13 411.27 1011.21 410.95 1012.07 410.311C1012.94 409.68 1013.37 408.641 1013.37 407.192V403.472H1013.14C1012.9 403.949 1012.55 404.439 1012.09 404.942C1011.64 405.445 1011.03 405.866 1010.28 406.207C1009.54 406.548 1008.61 406.719 1007.49 406.719C1005.98 406.719 1004.61 406.365 1003.38 405.658C1002.16 404.942 1001.19 403.876 1000.47 402.462C999.751 401.038 999.393 399.257 999.393 397.118C999.393 394.962 999.751 393.142 1000.47 391.659C1001.19 390.168 1002.17 389.038 1003.39 388.271C1004.62 387.496 1005.99 387.108 1007.5 387.108C1008.65 387.108 1009.59 387.304 1010.34 387.696C1011.09 388.08 1011.68 388.544 1012.13 389.089C1012.57 389.626 1012.91 390.134 1013.14 390.611H1013.39V387.364H1017.96V407.32C1017.96 408.999 1017.55 410.388 1016.75 411.487C1015.95 412.587 1014.86 413.409 1013.47 413.955C1012.08 414.5 1010.5 414.773 1008.74 414.773ZM1008.78 403.088C1009.76 403.088 1010.59 402.849 1011.28 402.372C1011.97 401.895 1012.5 401.209 1012.85 400.314C1013.21 399.419 1013.39 398.345 1013.39 397.092C1013.39 395.857 1013.21 394.774 1012.85 393.845C1012.5 392.916 1011.99 392.196 1011.29 391.685C1010.61 391.165 1009.77 390.905 1008.78 390.905C1007.75 390.905 1006.88 391.173 1006.19 391.71C1005.5 392.247 1004.98 392.984 1004.63 393.922C1004.28 394.851 1004.11 395.908 1004.11 397.092C1004.11 398.294 1004.28 399.347 1004.63 400.25C1004.99 401.145 1005.52 401.844 1006.21 402.347C1006.91 402.841 1007.76 403.088 1008.78 403.088ZM1022.7 407V387.364H1027.33V407H1022.7ZM1025.02 384.577C1024.29 384.577 1023.66 384.334 1023.13 383.848C1022.6 383.354 1022.34 382.761 1022.34 382.071C1022.34 381.372 1022.6 380.78 1023.13 380.294C1023.66 379.8 1024.29 379.553 1025.02 379.553C1025.77 379.553 1026.4 379.8 1026.92 380.294C1027.45 380.78 1027.71 381.372 1027.71 382.071C1027.71 382.761 1027.45 383.354 1026.92 383.848C1026.4 384.334 1025.77 384.577 1025.02 384.577ZM1036.71 395.494V407H1032.08V387.364H1036.51V390.7H1036.74C1037.19 389.601 1037.91 388.727 1038.9 388.08C1039.9 387.432 1041.13 387.108 1042.59 387.108C1043.95 387.108 1045.13 387.398 1046.13 387.977C1047.15 388.557 1047.93 389.396 1048.49 390.496C1049.05 391.595 1049.33 392.929 1049.32 394.497V407H1044.69V395.213C1044.69 393.901 1044.35 392.874 1043.67 392.132C1042.99 391.391 1042.06 391.02 1040.87 391.02C1040.06 391.02 1039.34 391.199 1038.71 391.557C1038.08 391.906 1037.59 392.413 1037.24 393.078C1036.89 393.743 1036.71 394.548 1036.71 395.494Z" fill="black"/>
<path d="M965.418 63.4545H968.082L972.712 74.7614H972.883L977.513 63.4545H980.177V78H978.089V67.4744H977.954L973.664 77.9787H971.931L967.641 67.4673H967.506V78H965.418V63.4545ZM983.197 78V67.0909H985.321V78H983.197ZM984.27 65.4077C983.9 65.4077 983.583 65.2846 983.318 65.0384C983.057 64.7874 982.927 64.4891 982.927 64.1435C982.927 63.7931 983.057 63.4948 983.318 63.2486C983.583 62.9976 983.9 62.8722 984.27 62.8722C984.639 62.8722 984.954 62.9976 985.214 63.2486C985.479 63.4948 985.612 63.7931 985.612 64.1435C985.612 64.4891 985.479 64.7874 985.214 65.0384C984.954 65.2846 984.639 65.4077 984.27 65.4077ZM996.352 69.7543L994.428 70.0952C994.347 69.849 994.219 69.6146 994.044 69.392C993.874 69.1695 993.642 68.9872 993.348 68.8452C993.054 68.7031 992.688 68.6321 992.247 68.6321C991.646 68.6321 991.144 68.767 990.741 69.0369C990.339 69.3021 990.138 69.6454 990.138 70.0668C990.138 70.4313 990.273 70.7249 990.543 70.9474C990.813 71.17 991.248 71.3523 991.849 71.4943L993.582 71.892C994.586 72.1241 995.334 72.4815 995.827 72.9645C996.319 73.4474 996.565 74.0748 996.565 74.8466C996.565 75.5 996.376 76.0824 995.997 76.5938C995.623 77.1004 995.1 77.4981 994.428 77.7869C993.76 78.0758 992.986 78.2202 992.105 78.2202C990.884 78.2202 989.887 77.9598 989.115 77.4389C988.343 76.9134 987.87 76.1676 987.695 75.2017L989.747 74.8892C989.875 75.4242 990.138 75.8291 990.536 76.1037C990.933 76.3736 991.452 76.5085 992.091 76.5085C992.787 76.5085 993.343 76.3641 993.76 76.0753C994.177 75.7817 994.385 75.4242 994.385 75.0028C994.385 74.6619 994.257 74.3755 994.001 74.1435C993.75 73.9115 993.365 73.7363 992.844 73.6179L990.997 73.2131C989.979 72.9811 989.226 72.6117 988.739 72.1051C988.256 71.5985 988.014 70.9569 988.014 70.1804C988.014 69.5365 988.194 68.973 988.554 68.4901C988.914 68.0071 989.411 67.6307 990.045 67.3608C990.68 67.0862 991.407 66.9489 992.226 66.9489C993.405 66.9489 994.333 67.2045 995.01 67.7159C995.687 68.2225 996.134 68.902 996.352 69.7543ZM1007.07 69.7543L1005.15 70.0952C1005.07 69.849 1004.94 69.6146 1004.77 69.392C1004.6 69.1695 1004.36 68.9872 1004.07 68.8452C1003.78 68.7031 1003.41 68.6321 1002.97 68.6321C1002.37 68.6321 1001.87 68.767 1001.46 69.0369C1001.06 69.3021 1000.86 69.6454 1000.86 70.0668C1000.86 70.4313 1001 70.7249 1001.27 70.9474C1001.54 71.17 1001.97 71.3523 1002.57 71.4943L1004.31 71.892C1005.31 72.1241 1006.06 72.4815 1006.55 72.9645C1007.04 73.4474 1007.29 74.0748 1007.29 74.8466C1007.29 75.5 1007.1 76.0824 1006.72 76.5938C1006.35 77.1004 1005.82 77.4981 1005.15 77.7869C1004.48 78.0758 1003.71 78.2202 1002.83 78.2202C1001.61 78.2202 1000.61 77.9598 999.838 77.4389C999.066 76.9134 998.592 76.1676 998.417 75.2017L1000.47 74.8892C1000.6 75.4242 1000.86 75.8291 1001.26 76.1037C1001.66 76.3736 1002.17 76.5085 1002.81 76.5085C1003.51 76.5085 1004.07 76.3641 1004.48 76.0753C1004.9 75.7817 1005.11 75.4242 1005.11 75.0028C1005.11 74.6619 1004.98 74.3755 1004.72 74.1435C1004.47 73.9115 1004.09 73.7363 1003.57 73.6179L1001.72 73.2131C1000.7 72.9811 999.949 72.6117 999.461 72.1051C998.978 71.5985 998.737 70.9569 998.737 70.1804C998.737 69.5365 998.917 68.973 999.277 68.4901C999.636 68.0071 1000.13 67.6307 1000.77 67.3608C1001.4 67.0862 1002.13 66.9489 1002.95 66.9489C1004.13 66.9489 1005.06 67.2045 1005.73 67.7159C1006.41 68.2225 1006.86 68.902 1007.07 69.7543ZM1009.62 78V67.0909H1011.75V78H1009.62ZM1010.7 65.4077C1010.33 65.4077 1010.01 65.2846 1009.74 65.0384C1009.48 64.7874 1009.35 64.4891 1009.35 64.1435C1009.35 63.7931 1009.48 63.4948 1009.74 63.2486C1010.01 62.9976 1010.33 62.8722 1010.7 62.8722C1011.06 62.8722 1011.38 62.9976 1011.64 63.2486C1011.91 63.4948 1012.04 63.7931 1012.04 64.1435C1012.04 64.4891 1011.91 64.7874 1011.64 65.0384C1011.38 65.2846 1011.06 65.4077 1010.7 65.4077ZM1019.2 78.2202C1018.18 78.2202 1017.28 77.9858 1016.52 77.517C1015.76 77.0483 1015.17 76.3925 1014.75 75.5497C1014.32 74.7069 1014.11 73.7221 1014.11 72.5952C1014.11 71.4635 1014.32 70.474 1014.75 69.6264C1015.17 68.7789 1015.76 68.1207 1016.52 67.652C1017.28 67.1832 1018.18 66.9489 1019.2 66.9489C1020.22 66.9489 1021.11 67.1832 1021.88 67.652C1022.64 68.1207 1023.23 68.7789 1023.65 69.6264C1024.07 70.474 1024.28 71.4635 1024.28 72.5952C1024.28 73.7221 1024.07 74.7069 1023.65 75.5497C1023.23 76.3925 1022.64 77.0483 1021.88 77.517C1021.11 77.9858 1020.22 78.2202 1019.2 78.2202ZM1019.21 76.4375C1019.87 76.4375 1020.42 76.2623 1020.85 75.9119C1021.29 75.5616 1021.61 75.0952 1021.82 74.5128C1022.03 73.9304 1022.14 73.2888 1022.14 72.5881C1022.14 71.892 1022.03 71.2528 1021.82 70.6705C1021.61 70.0833 1021.29 69.6122 1020.85 69.2571C1020.42 68.902 1019.87 68.7244 1019.21 68.7244C1018.54 68.7244 1017.98 68.902 1017.54 69.2571C1017.11 69.6122 1016.78 70.0833 1016.57 70.6705C1016.36 71.2528 1016.26 71.892 1016.26 72.5881C1016.26 73.2888 1016.36 73.9304 1016.57 74.5128C1016.78 75.0952 1017.11 75.5616 1017.54 75.9119C1017.98 76.2623 1018.54 76.4375 1019.21 76.4375ZM1028.78 71.5227V78H1026.65V67.0909H1028.69V68.8665H1028.83C1029.08 68.2888 1029.47 67.8248 1030.01 67.4744C1030.55 67.1241 1031.23 66.9489 1032.04 66.9489C1032.79 66.9489 1033.44 67.1051 1034 67.4176C1034.56 67.7254 1034.99 68.1847 1035.3 68.7955C1035.61 69.4062 1035.76 70.1615 1035.76 71.0611V78H1033.64V71.3168C1033.64 70.526 1033.43 69.9081 1033.02 69.4631C1032.61 69.0133 1032.04 68.7884 1031.32 68.7884C1030.83 68.7884 1030.39 68.8949 1030.01 69.108C1029.63 69.321 1029.33 69.6335 1029.1 70.0455C1028.89 70.4527 1028.78 70.9451 1028.78 71.5227Z" fill="black"/>
<path d="M1072.5 63.4545V78H1070.31V63.4545H1072.5ZM1075.53 78V67.0909H1077.56V68.8665H1077.7C1077.93 68.2652 1078.3 67.7964 1078.81 67.4602C1079.33 67.1193 1079.95 66.9489 1080.67 66.9489C1081.4 66.9489 1082.01 67.1193 1082.5 67.4602C1083 67.8011 1083.36 68.2699 1083.6 68.8665H1083.71C1083.97 68.2841 1084.39 67.8201 1084.96 67.4744C1085.53 67.1241 1086.2 66.9489 1086.99 66.9489C1087.98 66.9489 1088.79 67.259 1089.41 67.8793C1090.04 68.4995 1090.35 69.4347 1090.35 70.6847V78H1088.23V70.8835C1088.23 70.1449 1088.03 69.6098 1087.63 69.2784C1087.23 68.947 1086.74 68.7812 1086.19 68.7812C1085.49 68.7812 1084.96 68.9943 1084.57 69.4205C1084.19 69.8419 1084 70.384 1084 71.0469V78H1081.88V70.7486C1081.88 70.1567 1081.7 69.6809 1081.33 69.321C1080.96 68.9612 1080.48 68.7812 1079.89 68.7812C1079.48 68.7812 1079.11 68.8878 1078.77 69.1009C1078.43 69.3092 1078.16 69.6004 1077.95 69.9744C1077.75 70.3485 1077.65 70.7817 1077.65 71.2741V78H1075.53ZM1093.2 82.0909V67.0909H1095.27V68.8594H1095.45C1095.58 68.6321 1095.75 68.3693 1095.99 68.071C1096.22 67.7727 1096.54 67.5123 1096.95 67.2898C1097.36 67.0625 1097.91 66.9489 1098.58 66.9489C1099.47 66.9489 1100.25 67.1714 1100.94 67.6165C1101.63 68.0616 1102.18 68.7031 1102.57 69.5412C1102.97 70.3793 1103.17 71.3878 1103.17 72.5668C1103.17 73.7457 1102.97 74.7566 1102.58 75.5994C1102.18 76.4375 1101.64 77.0838 1100.96 77.5384C1100.27 77.9882 1099.49 78.2131 1098.61 78.2131C1097.94 78.2131 1097.4 78.1018 1096.98 77.8793C1096.56 77.6567 1096.24 77.3963 1096 77.098C1095.76 76.7997 1095.58 76.5346 1095.45 76.3026H1095.32V82.0909H1093.2ZM1095.28 72.5455C1095.28 73.3125 1095.39 73.9848 1095.62 74.5625C1095.84 75.1402 1096.16 75.5923 1096.58 75.919C1097 76.241 1097.52 76.402 1098.13 76.402C1098.76 76.402 1099.29 76.2339 1099.72 75.8977C1100.15 75.5568 1100.47 75.0952 1100.69 74.5128C1100.91 73.9304 1101.02 73.2746 1101.02 72.5455C1101.02 71.8258 1100.91 71.1795 1100.69 70.6065C1100.48 70.0336 1100.16 69.5814 1099.73 69.25C1099.3 68.9186 1098.77 68.7528 1098.13 68.7528C1097.51 68.7528 1096.99 68.9115 1096.57 69.2287C1096.15 69.5459 1095.83 69.9886 1095.61 70.5568C1095.39 71.125 1095.28 71.7879 1095.28 72.5455ZM1108.72 78.2415C1108.03 78.2415 1107.4 78.1136 1106.84 77.858C1106.29 77.5975 1105.84 77.2211 1105.52 76.7287C1105.19 76.2363 1105.03 75.6326 1105.03 74.9176C1105.03 74.3021 1105.15 73.7955 1105.39 73.3977C1105.63 73 1105.94 72.6851 1106.35 72.4531C1106.75 72.2211 1107.2 72.0459 1107.7 71.9276C1108.19 71.8092 1108.7 71.7192 1109.22 71.6577C1109.87 71.5819 1110.4 71.5204 1110.81 71.473C1111.21 71.4209 1111.51 71.3381 1111.7 71.2244C1111.88 71.1108 1111.97 70.9261 1111.97 70.6705V70.6207C1111.97 70.0005 1111.8 69.5199 1111.45 69.179C1111.1 68.8381 1110.58 68.6676 1109.9 68.6676C1109.18 68.6676 1108.62 68.8262 1108.21 69.1435C1107.8 69.456 1107.52 69.804 1107.36 70.1875L1105.37 69.733C1105.6 69.0701 1105.95 68.535 1106.4 68.1278C1106.86 67.7159 1107.39 67.4176 1107.99 67.233C1108.58 67.0436 1109.21 66.9489 1109.87 66.9489C1110.31 66.9489 1110.77 67.0009 1111.25 67.1051C1111.75 67.2045 1112.21 67.3892 1112.63 67.6591C1113.06 67.929 1113.42 68.3149 1113.69 68.8168C1113.97 69.3139 1114.1 69.9602 1114.1 70.7557V78H1112.03V76.5085H1111.94C1111.81 76.7831 1111.6 77.053 1111.33 77.3182C1111.05 77.5833 1110.7 77.8035 1110.27 77.9787C1109.84 78.1539 1109.32 78.2415 1108.72 78.2415ZM1109.18 76.5369C1109.77 76.5369 1110.27 76.4209 1110.69 76.1889C1111.11 75.9569 1111.43 75.6539 1111.65 75.2798C1111.87 74.901 1111.98 74.4962 1111.98 74.0653V72.6591C1111.9 72.7348 1111.76 72.8059 1111.54 72.8722C1111.33 72.9337 1111.08 72.9882 1110.81 73.0355C1110.53 73.0781 1110.27 73.1184 1110 73.1562C1109.74 73.1894 1109.53 73.2178 1109.35 73.2415C1108.94 73.2936 1108.56 73.3812 1108.22 73.5043C1107.89 73.6274 1107.62 73.8049 1107.41 74.0369C1107.21 74.2642 1107.11 74.5672 1107.11 74.946C1107.11 75.4716 1107.31 75.8693 1107.7 76.1392C1108.08 76.4044 1108.58 76.5369 1109.18 76.5369ZM1121.53 78.2202C1120.47 78.2202 1119.56 77.9811 1118.8 77.5028C1118.04 77.0199 1117.46 76.3546 1117.05 75.5071C1116.65 74.6596 1116.44 73.6889 1116.44 72.5952C1116.44 71.4872 1116.65 70.5095 1117.07 69.6619C1117.48 68.8097 1118.07 68.1444 1118.83 67.6662C1119.59 67.188 1120.48 66.9489 1121.51 66.9489C1122.33 66.9489 1123.07 67.1027 1123.72 67.4105C1124.37 67.7135 1124.89 68.1397 1125.29 68.6889C1125.69 69.2382 1125.93 69.8797 1126.01 70.6136H1123.94C1123.83 70.1023 1123.57 69.6619 1123.16 69.2926C1122.76 68.9233 1122.22 68.7386 1121.54 68.7386C1120.95 68.7386 1120.43 68.8949 1119.99 69.2074C1119.55 69.5152 1119.2 69.9555 1118.96 70.5284C1118.71 71.0966 1118.59 71.7689 1118.59 72.5455C1118.59 73.3409 1118.71 74.0275 1118.95 74.6051C1119.19 75.1828 1119.53 75.6302 1119.97 75.9474C1120.42 76.2647 1120.94 76.4233 1121.54 76.4233C1121.94 76.4233 1122.31 76.3499 1122.63 76.2031C1122.97 76.0516 1123.24 75.8362 1123.47 75.5568C1123.69 75.2775 1123.85 74.9413 1123.94 74.5483H1126.01C1125.93 75.2538 1125.7 75.8835 1125.32 76.4375C1124.94 76.9915 1124.42 77.4271 1123.78 77.7443C1123.14 78.0616 1122.39 78.2202 1121.53 78.2202ZM1133.37 67.0909V68.7955H1127.41V67.0909H1133.37ZM1129.01 64.4773H1131.13V74.7969C1131.13 75.2088 1131.2 75.5189 1131.32 75.7273C1131.44 75.9309 1131.6 76.0705 1131.79 76.1463C1131.99 76.2173 1132.21 76.2528 1132.44 76.2528C1132.61 76.2528 1132.76 76.241 1132.89 76.2173C1133.02 76.1937 1133.12 76.1747 1133.19 76.1605L1133.57 77.9148C1133.45 77.9621 1133.27 78.0095 1133.04 78.0568C1132.82 78.1089 1132.53 78.1373 1132.19 78.142C1131.63 78.1515 1131.11 78.0521 1130.63 77.8438C1130.15 77.6354 1129.76 77.3134 1129.46 76.8778C1129.16 76.4422 1129.01 75.8954 1129.01 75.2372V64.4773Z" fill="black"/>
<path d="M1179.51 68.1847H1177.3C1177.21 67.7112 1177.06 67.2945 1176.82 66.9347C1176.59 66.5748 1176.31 66.2694 1175.97 66.0185C1175.63 65.7675 1175.26 65.5781 1174.84 65.4503C1174.43 65.3224 1173.99 65.2585 1173.53 65.2585C1172.69 65.2585 1171.94 65.4692 1171.28 65.8906C1170.62 66.312 1170.1 66.9299 1169.71 67.7443C1169.33 68.5587 1169.15 69.553 1169.15 70.7273C1169.15 71.911 1169.33 72.91 1169.71 73.7244C1170.1 74.5388 1170.62 75.1544 1171.28 75.571C1171.95 75.9877 1172.69 76.196 1173.52 76.196C1173.98 76.196 1174.42 76.1345 1174.83 76.0114C1175.24 75.8835 1175.62 75.6965 1175.96 75.4503C1176.29 75.2041 1176.58 74.9034 1176.81 74.5483C1177.05 74.1884 1177.21 73.7765 1177.3 73.3125L1179.51 73.3196C1179.4 74.0346 1179.17 74.6927 1178.83 75.294C1178.49 75.8906 1178.06 76.4067 1177.53 76.8423C1177 77.2732 1176.4 77.607 1175.72 77.8438C1175.05 78.0805 1174.31 78.1989 1173.51 78.1989C1172.25 78.1989 1171.12 77.9006 1170.14 77.304C1169.16 76.7027 1168.38 75.8433 1167.81 74.7259C1167.25 73.6084 1166.97 72.2756 1166.97 70.7273C1166.97 69.1742 1167.25 67.8414 1167.82 66.7287C1168.39 65.6113 1169.16 64.7543 1170.15 64.1577C1171.13 63.5563 1172.25 63.2557 1173.51 63.2557C1174.28 63.2557 1175 63.367 1175.67 63.5895C1176.34 63.8073 1176.94 64.1293 1177.48 64.5554C1178.01 64.9768 1178.45 65.4929 1178.8 66.1037C1179.16 66.7098 1179.39 67.4034 1179.51 68.1847ZM1186.57 78.2202C1185.54 78.2202 1184.65 77.9858 1183.89 77.517C1183.13 77.0483 1182.53 76.3925 1182.11 75.5497C1181.69 74.7069 1181.48 73.7221 1181.48 72.5952C1181.48 71.4635 1181.69 70.474 1182.11 69.6264C1182.53 68.7789 1183.13 68.1207 1183.89 67.652C1184.65 67.1832 1185.54 66.9489 1186.57 66.9489C1187.59 66.9489 1188.48 67.1832 1189.24 67.652C1190.01 68.1207 1190.6 68.7789 1191.02 69.6264C1191.44 70.474 1191.65 71.4635 1191.65 72.5952C1191.65 73.7221 1191.44 74.7069 1191.02 75.5497C1190.6 76.3925 1190.01 77.0483 1189.24 77.517C1188.48 77.9858 1187.59 78.2202 1186.57 78.2202ZM1186.57 76.4375C1187.24 76.4375 1187.78 76.2623 1188.22 75.9119C1188.66 75.5616 1188.98 75.0952 1189.19 74.5128C1189.4 73.9304 1189.51 73.2888 1189.51 72.5881C1189.51 71.892 1189.4 71.2528 1189.19 70.6705C1188.98 70.0833 1188.66 69.6122 1188.22 69.2571C1187.78 68.902 1187.24 68.7244 1186.57 68.7244C1185.91 68.7244 1185.35 68.902 1184.91 69.2571C1184.48 69.6122 1184.15 70.0833 1183.94 70.6705C1183.73 71.2528 1183.63 71.892 1183.63 72.5881C1183.63 73.2888 1183.73 73.9304 1183.94 74.5128C1184.15 75.0952 1184.48 75.5616 1184.91 75.9119C1185.35 76.2623 1185.91 76.4375 1186.57 76.4375ZM1196.14 71.5227V78H1194.02V67.0909H1196.06V68.8665H1196.19C1196.45 68.2888 1196.84 67.8248 1197.37 67.4744C1197.91 67.1241 1198.59 66.9489 1199.41 66.9489C1200.16 66.9489 1200.81 67.1051 1201.37 67.4176C1201.92 67.7254 1202.36 68.1847 1202.66 68.7955C1202.97 69.4062 1203.13 70.1615 1203.13 71.0611V78H1201V71.3168C1201 70.526 1200.8 69.9081 1200.38 69.4631C1199.97 69.0133 1199.41 68.7884 1198.69 68.7884C1198.2 68.7884 1197.76 68.8949 1197.37 69.108C1196.99 69.321 1196.69 69.6335 1196.47 70.0455C1196.25 70.4527 1196.14 70.9451 1196.14 71.5227ZM1211.07 67.0909V68.7955H1205.11V67.0909H1211.07ZM1206.71 64.4773H1208.83V74.7969C1208.83 75.2088 1208.89 75.5189 1209.01 75.7273C1209.14 75.9309 1209.3 76.0705 1209.49 76.1463C1209.69 76.2173 1209.9 76.2528 1210.14 76.2528C1210.31 76.2528 1210.46 76.241 1210.58 76.2173C1210.71 76.1937 1210.81 76.1747 1210.88 76.1605L1211.27 77.9148C1211.14 77.9621 1210.97 78.0095 1210.74 78.0568C1210.51 78.1089 1210.23 78.1373 1209.89 78.142C1209.33 78.1515 1208.81 78.0521 1208.33 77.8438C1207.84 77.6354 1207.45 77.3134 1207.15 76.8778C1206.86 76.4422 1206.71 75.8954 1206.71 75.2372V64.4773ZM1216.59 78.2415C1215.9 78.2415 1215.27 78.1136 1214.72 77.858C1214.16 77.5975 1213.71 77.2211 1213.39 76.7287C1213.07 76.2363 1212.9 75.6326 1212.9 74.9176C1212.9 74.3021 1213.02 73.7955 1213.26 73.3977C1213.5 73 1213.82 72.6851 1214.22 72.4531C1214.62 72.2211 1215.07 72.0459 1215.57 71.9276C1216.06 71.8092 1216.57 71.7192 1217.09 71.6577C1217.74 71.5819 1218.27 71.5204 1218.68 71.473C1219.09 71.4209 1219.38 71.3381 1219.57 71.2244C1219.75 71.1108 1219.84 70.9261 1219.84 70.6705V70.6207C1219.84 70.0005 1219.67 69.5199 1219.32 69.179C1218.97 68.8381 1218.46 68.6676 1217.77 68.6676C1217.05 68.6676 1216.49 68.8262 1216.08 69.1435C1215.67 69.456 1215.39 69.804 1215.23 70.1875L1213.24 69.733C1213.48 69.0701 1213.82 68.535 1214.28 68.1278C1214.73 67.7159 1215.26 67.4176 1215.86 67.233C1216.46 67.0436 1217.08 66.9489 1217.74 66.9489C1218.18 66.9489 1218.64 67.0009 1219.13 67.1051C1219.62 67.2045 1220.08 67.3892 1220.5 67.6591C1220.93 67.929 1221.29 68.3149 1221.56 68.8168C1221.84 69.3139 1221.97 69.9602 1221.97 70.7557V78H1219.9V76.5085H1219.81C1219.68 76.7831 1219.47 77.053 1219.2 77.3182C1218.92 77.5833 1218.57 77.8035 1218.14 77.9787C1217.71 78.1539 1217.19 78.2415 1216.59 78.2415ZM1217.05 76.5369C1217.64 76.5369 1218.14 76.4209 1218.56 76.1889C1218.98 75.9569 1219.3 75.6539 1219.52 75.2798C1219.74 74.901 1219.85 74.4962 1219.85 74.0653V72.6591C1219.77 72.7348 1219.63 72.8059 1219.41 72.8722C1219.2 72.9337 1218.95 72.9882 1218.68 73.0355C1218.4 73.0781 1218.14 73.1184 1217.88 73.1562C1217.62 73.1894 1217.4 73.2178 1217.22 73.2415C1216.81 73.2936 1216.43 73.3812 1216.09 73.5043C1215.76 73.6274 1215.49 73.8049 1215.28 74.0369C1215.08 74.2642 1214.99 74.5672 1214.99 74.946C1214.99 75.4716 1215.18 75.8693 1215.57 76.1392C1215.96 76.4044 1216.45 76.5369 1217.05 76.5369ZM1229.4 78.2202C1228.34 78.2202 1227.43 77.9811 1226.67 77.5028C1225.91 77.0199 1225.33 76.3546 1224.92 75.5071C1224.52 74.6596 1224.31 73.6889 1224.31 72.5952C1224.31 71.4872 1224.52 70.5095 1224.94 69.6619C1225.35 68.8097 1225.94 68.1444 1226.7 67.6662C1227.46 67.188 1228.35 66.9489 1229.38 66.9489C1230.21 66.9489 1230.94 67.1027 1231.59 67.4105C1232.24 67.7135 1232.76 68.1397 1233.16 68.6889C1233.56 69.2382 1233.8 69.8797 1233.88 70.6136H1231.81C1231.7 70.1023 1231.44 69.6619 1231.03 69.2926C1230.63 68.9233 1230.09 68.7386 1229.41 68.7386C1228.82 68.7386 1228.3 68.8949 1227.86 69.2074C1227.42 69.5152 1227.07 69.9555 1226.83 70.5284C1226.58 71.0966 1226.46 71.7689 1226.46 72.5455C1226.46 73.3409 1226.58 74.0275 1226.82 74.6051C1227.06 75.1828 1227.4 75.6302 1227.84 75.9474C1228.29 76.2647 1228.81 76.4233 1229.41 76.4233C1229.81 76.4233 1230.18 76.3499 1230.51 76.2031C1230.84 76.0516 1231.11 75.8362 1231.34 75.5568C1231.56 75.2775 1231.72 74.9413 1231.81 74.5483H1233.88C1233.8 75.2538 1233.57 75.8835 1233.19 76.4375C1232.81 76.9915 1232.29 77.4271 1231.65 77.7443C1231.01 78.0616 1230.26 78.2202 1229.4 78.2202ZM1241.24 67.0909V68.7955H1235.28V67.0909H1241.24ZM1236.88 64.4773H1239.01V74.7969C1239.01 75.2088 1239.07 75.5189 1239.19 75.7273C1239.31 75.9309 1239.47 76.0705 1239.67 76.1463C1239.86 76.2173 1240.08 76.2528 1240.31 76.2528C1240.48 76.2528 1240.63 76.241 1240.76 76.2173C1240.89 76.1937 1240.99 76.1747 1241.06 76.1605L1241.44 77.9148C1241.32 77.9621 1241.14 78.0095 1240.92 78.0568C1240.69 78.1089 1240.4 78.1373 1240.06 78.142C1239.5 78.1515 1238.98 78.0521 1238.5 77.8438C1238.02 77.6354 1237.63 77.3134 1237.33 76.8778C1237.03 76.4422 1236.88 75.8954 1236.88 75.2372V64.4773Z" fill="black"/>
<path d="M22.5155 773.263H37.5466C37.8788 773.263 38.1974 773.395 38.4323 773.63C38.6672 773.865 38.7992 774.183 38.7992 774.515C38.7992 774.848 38.6672 775.166 38.4323 775.401C38.1974 775.636 37.8788 775.768 37.5466 775.768H22.5155C22.1833 775.768 21.8647 775.636 21.6298 775.401C21.3949 775.166 21.2629 774.848 21.2629 774.515C21.2629 774.183 21.3949 773.865 21.6298 773.63C21.8647 773.395 22.1833 773.263 22.5155 773.263ZM41.3043 769.505V772.01H18.7578V769.505H41.3043ZM33.7888 777.021H36.294V794.557H33.7888V777.021ZM23.7681 777.021H26.2733V794.557H23.7681V777.021ZM28.7785 777.021H31.2836V794.557H28.7785V777.021Z" fill="black"/>
<path d="M37.5466 814.387H22.5156C22.1834 814.387 21.8648 814.255 21.6299 814.02C21.395 813.785 21.263 813.467 21.263 813.134C21.263 812.802 21.395 812.484 21.6299 812.249C21.8648 812.014 22.1834 811.882 22.5156 811.882H37.5466C37.8789 811.882 38.1975 812.014 38.4324 812.249C38.6673 812.484 38.7992 812.802 38.7992 813.134C38.7992 813.467 38.6673 813.785 38.4324 814.02C38.1975 814.255 37.8789 814.387 37.5466 814.387ZM18.7578 818.145V815.64H41.3044V818.145H18.7578ZM26.2734 810.629H23.7682L23.7682 793.093H26.2734L26.2734 810.629ZM36.2941 810.629H33.7889V793.093H36.2941V810.629ZM31.2837 810.629H28.7785L28.7785 793.093H31.2837L31.2837 810.629Z" fill="black"/>
<path d="M82.8458 773.263H97.8769C98.2091 773.263 98.5277 773.395 98.7626 773.63C98.9975 773.865 99.1294 774.183 99.1294 774.515C99.1294 774.848 98.9975 775.166 98.7626 775.401C98.5277 775.636 98.2091 775.768 97.8769 775.768H82.8458C82.5136 775.768 82.195 775.636 81.9601 775.401C81.7252 775.166 81.5932 774.848 81.5932 774.515C81.5932 774.183 81.7252 773.865 81.9601 773.63C82.195 773.395 82.5136 773.263 82.8458 773.263ZM101.635 769.505V772.01H79.0881V769.505H101.635ZM94.1191 777.021H96.6243V794.557H94.1191V777.021ZM84.0984 777.021H86.6036V794.557H84.0984V777.021ZM89.1087 777.021H91.6139V794.557H89.1087V777.021Z" fill="black"/>
<path d="M97.8769 814.387H82.8459C82.5137 814.387 82.1951 814.255 81.9602 814.02C81.7253 813.785 81.5933 813.467 81.5933 813.134C81.5933 812.802 81.7253 812.484 81.9602 812.249C82.1951 812.014 82.5137 811.882 82.8459 811.882H97.8769C98.2091 811.882 98.5277 812.014 98.7626 812.249C98.9976 812.484 99.1295 812.802 99.1295 813.134C99.1295 813.467 98.9976 813.785 98.7626 814.02C98.5277 814.255 98.2091 814.387 97.8769 814.387ZM79.0881 818.145V815.64H101.635V818.145H79.0881ZM86.6037 810.629H84.0985V793.093H86.6037V810.629ZM96.6243 810.629H94.1192V793.093H96.6243V810.629ZM91.614 810.629H89.1088V793.093H91.614V810.629Z" fill="black"/>
<path d="M52.6807 773.263H67.7117C68.0439 773.263 68.3625 773.395 68.5974 773.63C68.8323 773.865 68.9643 774.183 68.9643 774.515C68.9643 774.848 68.8323 775.166 68.5974 775.401C68.3625 775.636 68.0439 775.768 67.7117 775.768H52.6807C52.3485 775.768 52.0299 775.636 51.795 775.401C51.56 775.166 51.4281 774.848 51.4281 774.515C51.4281 774.183 51.56 773.865 51.795 773.63C52.0299 773.395 52.3485 773.263 52.6807 773.263ZM71.4695 769.505V772.01H48.9229V769.505H71.4695ZM63.9539 777.021H66.4591V794.557H63.9539V777.021ZM53.9333 777.021H56.4384V794.557H53.9333V777.021ZM58.9436 777.021H61.4488V794.557H58.9436V777.021Z" fill="black"/>
<path d="M67.7118 814.387H52.6807C52.3485 814.387 52.0299 814.255 51.795 814.02C51.5601 813.785 51.4282 813.467 51.4282 813.134C51.4282 812.802 51.5601 812.484 51.795 812.249C52.0299 812.014 52.3485 811.882 52.6807 811.882H67.7118C68.044 811.882 68.3626 812.014 68.5975 812.249C68.8324 812.484 68.9644 812.802 68.9644 813.134C68.9644 813.467 68.8324 813.785 68.5975 814.02C68.3626 814.255 68.044 814.387 67.7118 814.387ZM48.923 818.145V815.64H71.4696V818.145H48.923ZM56.4385 810.629H53.9333V793.093H56.4385V810.629ZM66.4592 810.629H63.954V793.093H66.4592V810.629ZM61.4489 810.629H58.9437V793.093H61.4489V810.629Z" fill="black"/>
<defs>
<filter id="filter0_d_9_17" x="243" y="435" width="789" height="97" filterUnits="userSpaceOnUse" color-interpolation-filters="sRGB">
<feFlood flood-opacity="0" result="BackgroundImageFix"/>
<feColorMatrix in="SourceAlpha" type="matrix" values="0 0 0 0 0 0 0 0 0 0 0 0 0 0 0 0 0 0 127 0" result="hardAlpha"/>
<feOffset dx="-2" dy="4"/>
<feGaussianBlur stdDeviation="2"/>
<feComposite in2="hardAlpha" operator="out"/>
<feColorMatrix type="matrix" values="0 0 0 0 0 0 0 0 0 0 0 0 0 0 0 0 0 0 0.25 0"/>
<feBlend mode="normal" in2="BackgroundImageFix" result="effect1_dropShadow_9_17"/>
<feBlend mode="normal" in="SourceGraphic" in2="effect1_dropShadow_9_17" result="shape"/>
</filter>
<clipPath id="clip0_9_17">
<rect width="40" height="40" fill="white" transform="translate(970 461)"/>
</clipPath>
<clipPath id="clip1_9_17">
<rect width="30" height="30" fill="white" transform="translate(975 466)"/>
</clipPath>
<clipPath id="clip2_9_17">
<rect width="30" height="30" fill="white" transform="translate(975 466)"/>
</clipPath>
</defs>
</svg>
